<svg xmlns="http://www.w3.org/2000/svg" xmlns:xlink="http://www.w3.org/1999/xlink" version="1.1" x="0px" y="0px" width="252.146px" height="190.436px" viewBox="0 0 252.146 190.436" enable-background="new 0 0 252.146 190.436" xml:space="preserve">
<g id="guides">
	<g id="_x34_2p_max_height">
	</g>
	<g id="_x33_0p_max_width" display="none">
	</g>
	<g id="_x32_6p_text_width">
	</g>
</g>
<g id="illustrator_art">
	<path fill="none" stroke="#999999" stroke-width="0.387" stroke-linejoin="round" stroke-miterlimit="10" d="M39.923,12.34h196.543    M39.923,149.684h196.543 M39.923,114.163l196.543,0.001 M39.923,69.172h196.543 M39.923,85.748h196.543 M39.923,54.964h196.543    M39.923,31.284h196.543"/>
	<g>
		<path d="M17.861,11.065c0.093,0.059,0.199,0.161,0.318,0.308V9.788h0.507v4.318h-0.475v-0.437    c-0.123,0.193-0.268,0.333-0.435,0.419c-0.167,0.086-0.359,0.129-0.575,0.129c-0.348,0-0.65-0.147-0.905-0.441    s-0.382-0.685-0.382-1.173c0-0.457,0.116-0.853,0.349-1.188s0.565-0.502,0.997-0.502C17.499,10.913,17.699,10.963,17.861,11.065z     M16.684,13.417c0.142,0.227,0.369,0.34,0.682,0.34c0.243,0,0.442-0.105,0.599-0.315c0.157-0.21,0.235-0.511,0.235-0.904    c0-0.396-0.081-0.69-0.242-0.88c-0.162-0.19-0.361-0.286-0.598-0.286c-0.265,0-0.479,0.102-0.643,0.305    c-0.164,0.203-0.246,0.502-0.246,0.896C16.471,12.91,16.542,13.191,16.684,13.417z"/>
		<path d="M21.412,11.055c0.208,0.104,0.366,0.24,0.475,0.406c0.105,0.158,0.175,0.343,0.21,0.554    c0.031,0.145,0.046,0.375,0.046,0.691H19.86c0.01,0.319,0.084,0.575,0.224,0.768c0.14,0.193,0.356,0.29,0.648,0.29    c0.273,0,0.491-0.091,0.654-0.274c0.091-0.105,0.156-0.229,0.194-0.368h0.519c-0.014,0.115-0.059,0.244-0.136,0.385    s-0.163,0.257-0.258,0.347c-0.159,0.156-0.355,0.262-0.59,0.316c-0.126,0.031-0.268,0.047-0.427,0.047    c-0.388,0-0.717-0.142-0.987-0.426c-0.27-0.284-0.405-0.682-0.405-1.194c0-0.504,0.136-0.913,0.408-1.228    c0.271-0.314,0.627-0.472,1.065-0.472C20.99,10.898,21.204,10.95,21.412,11.055z M21.601,12.287    c-0.021-0.229-0.071-0.411-0.148-0.548c-0.144-0.254-0.383-0.381-0.718-0.381c-0.24,0-0.441,0.087-0.604,0.262    c-0.163,0.175-0.249,0.397-0.259,0.667H21.601z"/>
		<path d="M24.883,11.135c0.222,0.172,0.355,0.468,0.4,0.888h-0.513c-0.031-0.193-0.103-0.354-0.214-0.482s-0.29-0.192-0.536-0.192    c-0.336,0-0.576,0.164-0.721,0.492c-0.094,0.212-0.141,0.475-0.141,0.787c0,0.314,0.066,0.578,0.199,0.793    c0.133,0.214,0.342,0.322,0.627,0.322c0.219,0,0.392-0.066,0.52-0.2s0.216-0.316,0.265-0.547h0.513    c-0.059,0.416-0.205,0.72-0.439,0.913s-0.534,0.289-0.899,0.289c-0.41,0-0.737-0.15-0.981-0.45s-0.366-0.674-0.366-1.124    c0-0.551,0.134-0.979,0.401-1.286s0.608-0.46,1.022-0.46C24.374,10.877,24.662,10.963,24.883,11.135z"/>
		<path d="M27.492,12.207c0.121-0.016,0.202-0.066,0.243-0.152c0.023-0.047,0.035-0.115,0.035-0.203c0-0.18-0.064-0.311-0.191-0.393    c-0.128-0.082-0.311-0.122-0.548-0.122c-0.275,0-0.47,0.075-0.585,0.224c-0.064,0.083-0.106,0.205-0.125,0.368h-0.492    c0.01-0.388,0.135-0.658,0.376-0.81s0.521-0.228,0.838-0.228c0.369,0,0.668,0.07,0.898,0.211c0.228,0.141,0.342,0.359,0.342,0.656    v1.808c0,0.055,0.011,0.099,0.034,0.132s0.07,0.05,0.142,0.05c0.023,0,0.05-0.001,0.079-0.004s0.061-0.007,0.094-0.013v0.39    c-0.082,0.023-0.145,0.038-0.188,0.044s-0.102,0.009-0.176,0.009c-0.182,0-0.313-0.064-0.396-0.193    c-0.043-0.068-0.073-0.165-0.091-0.29c-0.107,0.141-0.262,0.263-0.463,0.366s-0.423,0.155-0.665,0.155    c-0.291,0-0.529-0.088-0.713-0.265c-0.185-0.177-0.277-0.397-0.277-0.663c0-0.291,0.091-0.516,0.272-0.676    c0.182-0.16,0.42-0.258,0.715-0.295L27.492,12.207z M26.382,13.632c0.111,0.087,0.243,0.131,0.396,0.131    c0.186,0,0.365-0.043,0.539-0.129c0.293-0.142,0.439-0.375,0.439-0.699v-0.424c-0.064,0.041-0.147,0.076-0.249,0.103    s-0.201,0.047-0.298,0.059l-0.318,0.041c-0.191,0.025-0.335,0.065-0.431,0.12c-0.163,0.092-0.245,0.238-0.245,0.438    C26.215,13.424,26.271,13.544,26.382,13.632z"/>
		<path d="M30.872,11.065c0.093,0.059,0.199,0.161,0.318,0.308V9.788h0.507v4.318h-0.475v-0.437    c-0.123,0.193-0.268,0.333-0.435,0.419c-0.167,0.086-0.359,0.129-0.575,0.129c-0.348,0-0.65-0.147-0.905-0.441    s-0.382-0.685-0.382-1.173c0-0.457,0.116-0.853,0.349-1.188s0.565-0.502,0.997-0.502C30.509,10.913,30.71,10.963,30.872,11.065z     M29.694,13.417c0.142,0.227,0.369,0.34,0.682,0.34c0.243,0,0.442-0.105,0.599-0.315c0.157-0.21,0.235-0.511,0.235-0.904    c0-0.396-0.081-0.69-0.242-0.88c-0.162-0.19-0.361-0.286-0.598-0.286c-0.265,0-0.479,0.102-0.643,0.305    c-0.164,0.203-0.246,0.502-0.246,0.896C29.481,12.91,29.552,13.191,29.694,13.417z"/>
		<path d="M34.422,11.055c0.208,0.104,0.366,0.24,0.475,0.406c0.105,0.158,0.175,0.343,0.21,0.554    c0.031,0.145,0.046,0.375,0.046,0.691h-2.282c0.01,0.319,0.084,0.575,0.224,0.768c0.14,0.193,0.356,0.29,0.648,0.29    c0.273,0,0.491-0.091,0.654-0.274c0.091-0.105,0.156-0.229,0.194-0.368h0.519c-0.014,0.115-0.059,0.244-0.136,0.385    s-0.163,0.257-0.258,0.347c-0.159,0.156-0.355,0.262-0.59,0.316c-0.126,0.031-0.268,0.047-0.427,0.047    c-0.388,0-0.717-0.142-0.987-0.426c-0.27-0.284-0.405-0.682-0.405-1.194c0-0.504,0.136-0.913,0.408-1.228    c0.271-0.314,0.627-0.472,1.065-0.472C34,10.898,34.215,10.95,34.422,11.055z M34.611,12.287    c-0.021-0.229-0.071-0.411-0.148-0.548c-0.144-0.254-0.383-0.381-0.718-0.381c-0.24,0-0.441,0.087-0.604,0.262    c-0.163,0.175-0.249,0.397-0.259,0.667H34.611z"/>
	</g>
	<g>
		<path d="M26.111,29.909h0.583c-0.074,0.201-0.239,0.661-0.495,1.377c-0.191,0.54-0.352,0.979-0.48,1.319    c-0.304,0.8-0.519,1.288-0.644,1.463c-0.125,0.176-0.339,0.264-0.644,0.264c-0.074,0-0.131-0.003-0.171-0.009    s-0.089-0.017-0.148-0.032v-0.48c0.092,0.025,0.158,0.041,0.199,0.047s0.077,0.009,0.108,0.009c0.098,0,0.169-0.016,0.215-0.048    s0.084-0.072,0.116-0.118c0.01-0.016,0.045-0.096,0.105-0.24c0.061-0.145,0.104-0.251,0.132-0.322l-1.16-3.23h0.598l0.841,2.556    L26.111,29.909z"/>
		<path d="M29.087,29.996c0.208,0.104,0.366,0.24,0.475,0.406c0.105,0.158,0.175,0.343,0.21,0.554    c0.031,0.145,0.046,0.375,0.046,0.691h-2.282c0.01,0.319,0.084,0.575,0.224,0.768c0.14,0.193,0.356,0.29,0.648,0.29    c0.273,0,0.491-0.091,0.654-0.274c0.091-0.105,0.156-0.229,0.194-0.368h0.519c-0.014,0.115-0.059,0.244-0.136,0.385    s-0.163,0.257-0.258,0.347c-0.159,0.156-0.355,0.262-0.59,0.316c-0.126,0.031-0.268,0.047-0.427,0.047    c-0.388,0-0.717-0.142-0.987-0.426c-0.27-0.284-0.405-0.682-0.405-1.194c0-0.504,0.136-0.913,0.408-1.228    c0.271-0.314,0.627-0.472,1.065-0.472C28.666,29.839,28.88,29.891,29.087,29.996z M29.276,31.228    c-0.021-0.229-0.071-0.411-0.148-0.548c-0.144-0.254-0.383-0.381-0.718-0.381c-0.24,0-0.441,0.087-0.604,0.262    c-0.163,0.175-0.249,0.397-0.259,0.667H29.276z"/>
		<path d="M32.168,31.148c0.121-0.016,0.202-0.066,0.243-0.152c0.023-0.047,0.035-0.115,0.035-0.203c0-0.18-0.064-0.311-0.191-0.393    c-0.128-0.082-0.311-0.122-0.548-0.122c-0.275,0-0.47,0.075-0.585,0.224c-0.064,0.083-0.106,0.205-0.125,0.368h-0.492    c0.01-0.388,0.135-0.658,0.376-0.81s0.521-0.228,0.838-0.228c0.369,0,0.668,0.07,0.898,0.211c0.228,0.141,0.342,0.359,0.342,0.656    v1.808c0,0.055,0.011,0.099,0.034,0.132s0.07,0.05,0.142,0.05c0.023,0,0.05-0.001,0.079-0.004s0.061-0.007,0.094-0.013v0.39    c-0.082,0.023-0.145,0.038-0.188,0.044s-0.102,0.009-0.176,0.009c-0.182,0-0.313-0.064-0.396-0.193    c-0.043-0.068-0.073-0.165-0.091-0.29c-0.107,0.141-0.262,0.263-0.463,0.366s-0.423,0.155-0.665,0.155    c-0.291,0-0.529-0.088-0.713-0.265c-0.185-0.177-0.277-0.397-0.277-0.663c0-0.291,0.091-0.516,0.272-0.676    c0.182-0.16,0.42-0.258,0.715-0.295L32.168,31.148z M31.058,32.573c0.111,0.087,0.243,0.131,0.396,0.131    c0.186,0,0.365-0.043,0.539-0.129c0.293-0.142,0.439-0.375,0.439-0.699v-0.424c-0.064,0.041-0.147,0.076-0.249,0.103    s-0.201,0.047-0.298,0.059l-0.318,0.041c-0.191,0.025-0.335,0.065-0.431,0.12c-0.163,0.092-0.245,0.238-0.245,0.438    C30.891,32.365,30.946,32.485,31.058,32.573z"/>
		<path d="M33.838,29.909h0.501v0.542c0.041-0.105,0.142-0.234,0.302-0.385s0.345-0.227,0.554-0.227c0.01,0,0.026,0.001,0.05,0.003    s0.063,0.006,0.12,0.012v0.557c-0.031-0.006-0.06-0.01-0.086-0.012s-0.055-0.003-0.086-0.003c-0.266,0-0.47,0.085-0.612,0.256    s-0.214,0.368-0.214,0.59v1.805h-0.527V29.909z"/>
	</g>
	<g>
		<path d="M19.146,53.196h0.521v0.445c0.125-0.154,0.238-0.267,0.34-0.337c0.174-0.119,0.371-0.179,0.592-0.179    c0.25,0,0.451,0.062,0.604,0.185c0.086,0.07,0.164,0.174,0.234,0.311c0.117-0.168,0.255-0.292,0.413-0.374    s0.336-0.122,0.533-0.122c0.422,0,0.709,0.152,0.861,0.457c0.082,0.164,0.123,0.385,0.123,0.662v2.089h-0.548v-2.18    c0-0.209-0.052-0.353-0.157-0.431s-0.232-0.117-0.382-0.117c-0.207,0-0.385,0.069-0.535,0.208s-0.224,0.37-0.224,0.694v1.825    h-0.536v-2.048c0-0.213-0.025-0.368-0.076-0.466c-0.08-0.146-0.229-0.22-0.448-0.22c-0.199,0-0.38,0.077-0.543,0.231    s-0.245,0.434-0.245,0.838v1.664h-0.527V53.196z"/>
		<path d="M26.417,53.509c0.277,0.27,0.416,0.666,0.416,1.188c0,0.505-0.122,0.923-0.367,1.253c-0.244,0.33-0.624,0.495-1.137,0.495    c-0.429,0-0.769-0.146-1.021-0.438c-0.252-0.292-0.378-0.684-0.378-1.175c0-0.527,0.133-0.946,0.398-1.259    c0.266-0.312,0.623-0.468,1.071-0.468C25.8,53.105,26.14,53.24,26.417,53.509z M26.089,55.595    c0.128-0.264,0.193-0.559,0.193-0.882c0-0.292-0.046-0.53-0.139-0.714c-0.146-0.289-0.4-0.433-0.759-0.433    c-0.319,0-0.55,0.123-0.695,0.369c-0.145,0.246-0.217,0.542-0.217,0.89c0,0.333,0.072,0.611,0.217,0.834    c0.145,0.222,0.375,0.333,0.689,0.333C25.724,55.991,25.961,55.859,26.089,55.595z"/>
		<path d="M27.48,53.196h0.501v0.445c0.148-0.184,0.306-0.315,0.472-0.396s0.351-0.12,0.554-0.12c0.445,0,0.746,0.155,0.902,0.466    c0.086,0.17,0.129,0.413,0.129,0.729v2.013h-0.536v-1.978c0-0.191-0.028-0.346-0.085-0.463c-0.094-0.195-0.264-0.293-0.51-0.293    c-0.125,0-0.228,0.013-0.308,0.038c-0.145,0.043-0.271,0.129-0.381,0.258c-0.088,0.104-0.145,0.21-0.171,0.321    s-0.04,0.268-0.04,0.473v1.644H27.48V53.196z"/>
		<path d="M30.923,52.32h0.533v0.876h0.501v0.431h-0.501v2.048c0,0.109,0.037,0.183,0.111,0.22c0.041,0.021,0.109,0.032,0.205,0.032    c0.025,0,0.053,0,0.082-0.002s0.063-0.004,0.103-0.01v0.419c-0.061,0.018-0.124,0.03-0.189,0.038s-0.136,0.012-0.212,0.012    c-0.246,0-0.413-0.063-0.501-0.189s-0.132-0.29-0.132-0.491v-2.077h-0.425v-0.431h0.425V52.32z"/>
		<path d="M32.484,52.016h0.527v1.605c0.125-0.158,0.237-0.27,0.337-0.334c0.17-0.111,0.382-0.167,0.636-0.167    c0.455,0,0.764,0.159,0.926,0.478c0.088,0.174,0.132,0.415,0.132,0.724v2.013H34.5v-1.978c0-0.23-0.029-0.399-0.088-0.507    c-0.096-0.172-0.275-0.258-0.539-0.258c-0.219,0-0.417,0.075-0.595,0.226s-0.267,0.435-0.267,0.853v1.664h-0.527V52.016z"/>
	</g>
	<g>
		<path d="M22.059,67.797l0.604,2.473l0.612-2.473h0.592l0.615,2.458l0.642-2.458h0.527l-0.911,3.138h-0.548l-0.639-2.429    l-0.618,2.429h-0.548l-0.905-3.138H22.059z"/>
		<path d="M28.085,67.884c0.208,0.104,0.366,0.24,0.475,0.406c0.105,0.158,0.175,0.343,0.21,0.554    c0.031,0.145,0.046,0.375,0.046,0.691h-2.282c0.01,0.319,0.084,0.575,0.224,0.768c0.14,0.193,0.356,0.29,0.648,0.29    c0.273,0,0.491-0.091,0.654-0.274c0.091-0.105,0.156-0.229,0.194-0.368h0.519c-0.014,0.115-0.059,0.244-0.136,0.385    s-0.163,0.257-0.258,0.347c-0.159,0.156-0.355,0.262-0.59,0.316c-0.126,0.031-0.268,0.047-0.427,0.047    c-0.388,0-0.717-0.142-0.987-0.426c-0.27-0.284-0.405-0.682-0.405-1.194c0-0.504,0.136-0.913,0.408-1.228    c0.271-0.314,0.627-0.472,1.065-0.472C27.664,67.727,27.878,67.779,28.085,67.884z M28.274,69.116    c-0.021-0.229-0.071-0.411-0.148-0.548c-0.144-0.254-0.383-0.381-0.718-0.381c-0.24,0-0.441,0.087-0.604,0.262    c-0.163,0.175-0.249,0.397-0.259,0.667H28.274z"/>
		<path d="M31.422,67.884c0.208,0.104,0.366,0.24,0.475,0.406c0.105,0.158,0.175,0.343,0.21,0.554    c0.031,0.145,0.046,0.375,0.046,0.691h-2.282c0.01,0.319,0.084,0.575,0.224,0.768c0.14,0.193,0.356,0.29,0.648,0.29    c0.273,0,0.491-0.091,0.654-0.274c0.091-0.105,0.156-0.229,0.194-0.368h0.519c-0.014,0.115-0.059,0.244-0.136,0.385    s-0.163,0.257-0.258,0.347c-0.159,0.156-0.355,0.262-0.59,0.316c-0.126,0.031-0.268,0.047-0.427,0.047    c-0.388,0-0.717-0.142-0.987-0.426c-0.27-0.284-0.405-0.682-0.405-1.194c0-0.504,0.136-0.913,0.408-1.228    c0.271-0.314,0.627-0.472,1.065-0.472C31,67.727,31.215,67.779,31.422,67.884z M31.611,69.116    c-0.021-0.229-0.071-0.411-0.148-0.548c-0.144-0.254-0.383-0.381-0.718-0.381c-0.24,0-0.441,0.087-0.604,0.262    c-0.163,0.175-0.249,0.397-0.259,0.667H31.611z"/>
		<path d="M32.81,66.631h0.507v2.499l1.352-1.333h0.674l-1.206,1.167l1.274,1.971h-0.674l-0.987-1.597l-0.433,0.419v1.178H32.81    V66.631z"/>
	</g>
	<g>
		<path d="M27.872,84.876c0.093,0.059,0.199,0.161,0.318,0.308v-1.585h0.507v4.318h-0.475V87.48    c-0.123,0.193-0.268,0.333-0.435,0.419c-0.167,0.086-0.359,0.129-0.575,0.129c-0.348,0-0.65-0.147-0.905-0.441    s-0.382-0.685-0.382-1.173c0-0.457,0.116-0.853,0.349-1.188s0.565-0.502,0.997-0.502C27.509,84.724,27.71,84.774,27.872,84.876z     M26.694,87.229c0.142,0.227,0.369,0.34,0.682,0.34c0.243,0,0.442-0.105,0.599-0.315c0.157-0.21,0.235-0.511,0.235-0.904    c0-0.396-0.081-0.69-0.242-0.88c-0.162-0.19-0.361-0.286-0.598-0.286c-0.265,0-0.479,0.102-0.643,0.305    c-0.164,0.203-0.246,0.502-0.246,0.896C26.481,86.721,26.552,87.002,26.694,87.229z"/>
		<path d="M31.166,86.018c0.121-0.016,0.202-0.066,0.243-0.152c0.023-0.047,0.035-0.115,0.035-0.203c0-0.18-0.064-0.311-0.191-0.393    c-0.128-0.082-0.311-0.122-0.548-0.122c-0.275,0-0.47,0.075-0.585,0.224c-0.064,0.083-0.106,0.205-0.125,0.368h-0.492    c0.01-0.388,0.135-0.658,0.376-0.81s0.521-0.228,0.838-0.228c0.369,0,0.668,0.07,0.898,0.211c0.228,0.141,0.342,0.359,0.342,0.656    v1.808c0,0.055,0.011,0.099,0.034,0.132s0.07,0.05,0.142,0.05c0.023,0,0.05-0.001,0.079-0.004s0.061-0.007,0.094-0.013v0.39    c-0.082,0.023-0.145,0.038-0.188,0.044s-0.102,0.009-0.176,0.009c-0.182,0-0.313-0.064-0.396-0.193    c-0.043-0.068-0.073-0.165-0.091-0.29c-0.107,0.141-0.262,0.263-0.463,0.366s-0.423,0.155-0.665,0.155    c-0.291,0-0.529-0.088-0.713-0.265c-0.185-0.177-0.277-0.397-0.277-0.663c0-0.291,0.091-0.516,0.272-0.676    c0.182-0.16,0.42-0.258,0.715-0.295L31.166,86.018z M30.056,87.443c0.111,0.087,0.243,0.131,0.396,0.131    c0.186,0,0.365-0.043,0.539-0.129c0.293-0.142,0.439-0.375,0.439-0.699v-0.424c-0.064,0.041-0.147,0.076-0.249,0.103    s-0.201,0.047-0.298,0.059l-0.318,0.041c-0.191,0.025-0.335,0.065-0.431,0.12c-0.163,0.092-0.245,0.238-0.245,0.438    C29.889,87.235,29.944,87.355,30.056,87.443z"/>
		<path d="M34.783,84.779h0.583c-0.074,0.201-0.239,0.661-0.495,1.377c-0.191,0.54-0.352,0.979-0.48,1.319    c-0.304,0.8-0.519,1.288-0.644,1.463c-0.125,0.176-0.339,0.264-0.644,0.264c-0.074,0-0.131-0.003-0.171-0.009    s-0.089-0.017-0.148-0.032v-0.48c0.092,0.025,0.158,0.041,0.199,0.047s0.077,0.009,0.108,0.009c0.098,0,0.169-0.016,0.215-0.048    s0.084-0.072,0.116-0.118c0.01-0.016,0.045-0.096,0.105-0.24c0.061-0.145,0.104-0.251,0.132-0.322l-1.16-3.23h0.598l0.841,2.556    L34.783,84.779z"/>
	</g>
	<g>
		<path d="M23.812,111.61h0.527v1.605c0.125-0.158,0.237-0.27,0.337-0.334c0.17-0.111,0.382-0.167,0.636-0.167    c0.455,0,0.764,0.159,0.926,0.478c0.088,0.174,0.132,0.415,0.132,0.724v2.013h-0.542v-1.978c0-0.23-0.029-0.399-0.088-0.507    c-0.096-0.172-0.275-0.258-0.539-0.258c-0.219,0-0.417,0.075-0.595,0.226s-0.267,0.435-0.267,0.853v1.664h-0.527V111.61z"/>
		<path d="M29.423,113.104c0.277,0.27,0.416,0.666,0.416,1.188c0,0.505-0.122,0.923-0.367,1.253    c-0.244,0.33-0.624,0.495-1.137,0.495c-0.429,0-0.769-0.146-1.021-0.438c-0.252-0.292-0.378-0.684-0.378-1.175    c0-0.527,0.133-0.946,0.398-1.259c0.266-0.312,0.623-0.468,1.071-0.468C28.806,112.7,29.146,112.835,29.423,113.104z     M29.095,115.189c0.128-0.264,0.193-0.559,0.193-0.882c0-0.292-0.046-0.53-0.139-0.714c-0.146-0.289-0.4-0.433-0.759-0.433    c-0.319,0-0.55,0.123-0.695,0.369c-0.145,0.246-0.217,0.542-0.217,0.89c0,0.333,0.072,0.611,0.217,0.834    c0.145,0.222,0.375,0.333,0.689,0.333C28.73,115.586,28.967,115.454,29.095,115.189z"/>
		<path d="M31.014,112.791v2.083c0,0.16,0.025,0.291,0.074,0.393c0.091,0.188,0.262,0.281,0.511,0.281    c0.357,0,0.601-0.164,0.73-0.492c0.07-0.176,0.105-0.417,0.105-0.724v-1.541h0.527v3.138h-0.498l0.006-0.463    c-0.067,0.119-0.15,0.22-0.25,0.302c-0.198,0.164-0.437,0.246-0.719,0.246c-0.439,0-0.738-0.149-0.897-0.448    c-0.086-0.16-0.129-0.374-0.129-0.642v-2.133H31.014z"/>
		<path d="M33.838,112.791h0.501v0.542c0.041-0.105,0.142-0.234,0.302-0.385s0.345-0.227,0.554-0.227c0.01,0,0.026,0.001,0.05,0.003    s0.063,0.006,0.12,0.012v0.557c-0.031-0.006-0.06-0.01-0.086-0.012s-0.055-0.003-0.086-0.003c-0.266,0-0.47,0.085-0.612,0.256    s-0.214,0.368-0.214,0.59v1.805h-0.527V112.791z"/>
	</g>
	<g>
		<path d="M17.812,147.914h0.521v0.445c0.125-0.154,0.238-0.267,0.34-0.337c0.174-0.119,0.371-0.179,0.592-0.179    c0.25,0,0.451,0.062,0.604,0.185c0.086,0.07,0.164,0.174,0.234,0.311c0.117-0.168,0.255-0.292,0.413-0.374    s0.336-0.122,0.533-0.122c0.422,0,0.709,0.152,0.861,0.457c0.082,0.164,0.123,0.385,0.123,0.662v2.089h-0.548v-2.18    c0-0.209-0.052-0.353-0.157-0.431s-0.232-0.117-0.382-0.117c-0.207,0-0.385,0.069-0.535,0.208s-0.224,0.37-0.224,0.694v1.825    h-0.536v-2.048c0-0.213-0.025-0.368-0.076-0.466c-0.08-0.146-0.229-0.22-0.448-0.22c-0.199,0-0.38,0.077-0.543,0.231    s-0.245,0.434-0.245,0.838v1.664h-0.527V147.914z"/>
		<path d="M22.811,146.748h0.536v0.598h-0.536V146.748z M22.811,147.928h0.536v3.123h-0.536V147.928z"/>
		<path d="M24.144,147.914h0.501v0.445c0.148-0.184,0.306-0.315,0.472-0.396s0.351-0.12,0.554-0.12c0.445,0,0.746,0.155,0.902,0.466    c0.086,0.17,0.129,0.413,0.129,0.729v2.013h-0.536v-1.978c0-0.191-0.028-0.346-0.085-0.463c-0.094-0.195-0.264-0.293-0.51-0.293    c-0.125,0-0.228,0.013-0.308,0.038c-0.145,0.043-0.271,0.129-0.381,0.258c-0.088,0.104-0.145,0.21-0.171,0.321    s-0.04,0.268-0.04,0.473v1.644h-0.527V147.914z"/>
		<path d="M28.008,147.914v2.083c0,0.16,0.025,0.291,0.074,0.393c0.091,0.188,0.262,0.281,0.511,0.281    c0.357,0,0.601-0.164,0.73-0.492c0.07-0.176,0.105-0.417,0.105-0.724v-1.541h0.527v3.138h-0.498l0.006-0.463    c-0.067,0.119-0.15,0.22-0.25,0.302c-0.198,0.164-0.437,0.246-0.719,0.246c-0.439,0-0.738-0.149-0.897-0.448    c-0.086-0.16-0.129-0.374-0.129-0.642v-2.133H28.008z"/>
		<path d="M30.923,147.038h0.533v0.876h0.501v0.431h-0.501v2.048c0,0.109,0.037,0.183,0.111,0.22    c0.041,0.021,0.109,0.032,0.205,0.032c0.025,0,0.053,0,0.082-0.002s0.063-0.004,0.103-0.01v0.419    c-0.061,0.018-0.124,0.03-0.189,0.038s-0.136,0.012-0.212,0.012c-0.246,0-0.413-0.063-0.501-0.189s-0.132-0.29-0.132-0.491v-2.077    h-0.425v-0.431h0.425V147.038z"/>
		<path d="M34.422,148c0.208,0.104,0.366,0.24,0.475,0.406c0.105,0.158,0.175,0.343,0.21,0.554c0.031,0.145,0.046,0.375,0.046,0.691    h-2.282c0.01,0.319,0.084,0.575,0.224,0.768c0.14,0.193,0.356,0.29,0.648,0.29c0.273,0,0.491-0.091,0.654-0.274    c0.091-0.105,0.156-0.229,0.194-0.368h0.519c-0.014,0.115-0.059,0.244-0.136,0.385s-0.163,0.257-0.258,0.347    c-0.159,0.156-0.355,0.262-0.59,0.316c-0.126,0.031-0.268,0.047-0.427,0.047c-0.388,0-0.717-0.142-0.987-0.426    c-0.27-0.284-0.405-0.682-0.405-1.194c0-0.504,0.136-0.913,0.408-1.228c0.271-0.314,0.627-0.472,1.065-0.472    C34,147.843,34.215,147.896,34.422,148z M34.611,149.232c-0.021-0.229-0.071-0.411-0.148-0.548    c-0.144-0.254-0.383-0.381-0.718-0.381c-0.24,0-0.441,0.087-0.604,0.262c-0.163,0.175-0.249,0.397-0.259,0.667H34.611z"/>
	</g>
	<path fill="none" stroke="#999999" stroke-width="0.387" stroke-linejoin="round" stroke-miterlimit="10" d="M210.418,0.5v165.759    M160.691,0.5v165.759 M110.963,0.5v165.759 M63.604,0.5v165.759 M186.738,0.5v165.759 M87.284,0.5v165.759 M134.644,0.5v165.759"/>
	<g>
		<path d="M38.12,172.159c0.222,0.172,0.355,0.468,0.4,0.888h-0.513c-0.031-0.193-0.103-0.354-0.214-0.482s-0.29-0.192-0.536-0.192    c-0.336,0-0.576,0.164-0.721,0.492c-0.094,0.212-0.141,0.475-0.141,0.787c0,0.314,0.066,0.578,0.199,0.793    c0.133,0.214,0.342,0.322,0.627,0.322c0.219,0,0.392-0.066,0.52-0.2s0.216-0.316,0.265-0.547h0.513    c-0.059,0.416-0.205,0.72-0.439,0.913s-0.534,0.289-0.899,0.289c-0.41,0-0.737-0.15-0.981-0.45s-0.366-0.674-0.366-1.124    c0-0.551,0.134-0.979,0.401-1.286s0.608-0.46,1.022-0.46C37.61,171.901,37.898,171.987,38.12,172.159z"/>
		<path d="M39.047,171.992h0.521v0.445c0.125-0.154,0.238-0.267,0.34-0.337c0.174-0.119,0.371-0.179,0.592-0.179    c0.25,0,0.451,0.062,0.604,0.185c0.086,0.07,0.164,0.174,0.234,0.311c0.117-0.168,0.255-0.292,0.413-0.374    s0.336-0.122,0.533-0.122c0.422,0,0.709,0.152,0.861,0.457c0.082,0.164,0.123,0.385,0.123,0.662v2.089h-0.548v-2.18    c0-0.209-0.052-0.353-0.157-0.431s-0.232-0.117-0.382-0.117c-0.207,0-0.385,0.069-0.535,0.208s-0.224,0.37-0.224,0.694v1.825    h-0.536v-2.048c0-0.213-0.025-0.368-0.076-0.466c-0.08-0.146-0.229-0.22-0.448-0.22c-0.199,0-0.38,0.077-0.543,0.231    s-0.245,0.434-0.245,0.838v1.664h-0.527V171.992z"/>
	</g>
	<g>
		<path d="M85.776,171.992h0.521v0.445c0.125-0.154,0.238-0.267,0.34-0.337c0.174-0.119,0.371-0.179,0.592-0.179    c0.25,0,0.451,0.062,0.604,0.185c0.086,0.07,0.164,0.174,0.234,0.311c0.117-0.168,0.255-0.292,0.413-0.374    s0.336-0.122,0.533-0.122c0.422,0,0.709,0.152,0.861,0.457c0.082,0.164,0.123,0.385,0.123,0.662v2.089H89.45v-2.18    c0-0.209-0.052-0.353-0.157-0.431s-0.232-0.117-0.382-0.117c-0.207,0-0.385,0.069-0.535,0.208s-0.224,0.37-0.224,0.694v1.825    h-0.536v-2.048c0-0.213-0.025-0.368-0.076-0.466c-0.08-0.146-0.229-0.22-0.448-0.22c-0.199,0-0.38,0.077-0.543,0.231    s-0.245,0.434-0.245,0.838v1.664h-0.527V171.992z"/>
	</g>
	<g>
		<path d="M128.191,172.159v-0.404c0.381-0.037,0.646-0.099,0.797-0.186s0.263-0.292,0.337-0.617h0.416v4.178h-0.562v-2.971H128.191    z"/>
		<path d="M133.754,171.605c0.188,0.346,0.281,0.819,0.281,1.421c0,0.57-0.085,1.042-0.255,1.415    c-0.246,0.535-0.648,0.803-1.207,0.803c-0.504,0-0.879-0.219-1.125-0.656c-0.205-0.365-0.308-0.855-0.308-1.471    c0-0.477,0.062-0.886,0.185-1.228c0.23-0.637,0.647-0.955,1.251-0.955C133.12,170.935,133.512,171.158,133.754,171.605z     M133.224,174.4c0.162-0.242,0.243-0.693,0.243-1.354c0-0.477-0.059-0.869-0.176-1.176c-0.118-0.308-0.346-0.461-0.684-0.461    c-0.312,0-0.539,0.146-0.683,0.438s-0.216,0.722-0.216,1.291c0,0.428,0.046,0.771,0.138,1.031    c0.141,0.396,0.382,0.595,0.722,0.595C132.843,174.764,133.061,174.643,133.224,174.4z"/>
		<path d="M137.091,171.605c0.188,0.346,0.281,0.819,0.281,1.421c0,0.57-0.085,1.042-0.255,1.415    c-0.246,0.535-0.648,0.803-1.207,0.803c-0.504,0-0.879-0.219-1.125-0.656c-0.205-0.365-0.308-0.855-0.308-1.471    c0-0.477,0.062-0.886,0.185-1.228c0.23-0.637,0.647-0.955,1.251-0.955C136.457,170.935,136.849,171.158,137.091,171.605z     M136.561,174.4c0.162-0.242,0.243-0.693,0.243-1.354c0-0.477-0.059-0.869-0.176-1.176c-0.118-0.308-0.346-0.461-0.684-0.461    c-0.312,0-0.539,0.146-0.683,0.438s-0.216,0.722-0.216,1.291c0,0.428,0.046,0.771,0.138,1.031    c0.141,0.396,0.382,0.595,0.722,0.595C136.18,174.764,136.398,174.643,136.561,174.4z"/>
		<path d="M139.681,171.992h0.521v0.445c0.125-0.154,0.238-0.267,0.34-0.337c0.174-0.119,0.371-0.179,0.592-0.179    c0.25,0,0.452,0.062,0.604,0.185c0.086,0.07,0.164,0.174,0.234,0.311c0.117-0.168,0.255-0.292,0.413-0.374    s0.336-0.122,0.533-0.122c0.422,0,0.709,0.152,0.861,0.457c0.082,0.164,0.123,0.385,0.123,0.662v2.089h-0.548v-2.18    c0-0.209-0.053-0.353-0.156-0.431c-0.105-0.078-0.232-0.117-0.383-0.117c-0.207,0-0.385,0.069-0.535,0.208    c-0.148,0.139-0.224,0.37-0.224,0.694v1.825h-0.536v-2.048c0-0.213-0.025-0.368-0.076-0.466c-0.08-0.146-0.23-0.22-0.449-0.22    c-0.199,0-0.381,0.077-0.544,0.231s-0.244,0.434-0.244,0.838v1.664h-0.527V171.992z"/>
	</g>
	<g>
		<path d="M180.289,172.159v-0.404c0.381-0.037,0.646-0.099,0.797-0.186s0.263-0.292,0.337-0.617h0.416v4.178h-0.562v-2.971H180.289    z"/>
		<path d="M185.853,171.605c0.188,0.346,0.281,0.819,0.281,1.421c0,0.57-0.085,1.042-0.255,1.415    c-0.246,0.535-0.648,0.803-1.207,0.803c-0.504,0-0.879-0.219-1.125-0.656c-0.205-0.365-0.308-0.855-0.308-1.471    c0-0.477,0.062-0.886,0.185-1.228c0.23-0.637,0.647-0.955,1.251-0.955C185.218,170.935,185.61,171.158,185.853,171.605z     M185.322,174.4c0.162-0.242,0.243-0.693,0.243-1.354c0-0.477-0.059-0.869-0.176-1.176c-0.118-0.308-0.346-0.461-0.684-0.461    c-0.312,0-0.539,0.146-0.683,0.438s-0.216,0.722-0.216,1.291c0,0.428,0.046,0.771,0.138,1.031    c0.141,0.396,0.382,0.595,0.722,0.595C184.941,174.764,185.159,174.643,185.322,174.4z"/>
		<path d="M188.431,170.826h0.507v2.499l1.353-1.333h0.674l-1.206,1.167l1.273,1.971h-0.674l-0.987-1.597l-0.433,0.419v1.178h-0.507    V170.826z"/>
		<path d="M191.442,171.992h0.521v0.445c0.125-0.154,0.238-0.267,0.34-0.337c0.174-0.119,0.371-0.179,0.592-0.179    c0.25,0,0.451,0.062,0.604,0.185c0.086,0.07,0.164,0.174,0.234,0.311c0.117-0.168,0.255-0.292,0.413-0.374    s0.336-0.122,0.533-0.122c0.422,0,0.709,0.152,0.861,0.457c0.082,0.164,0.123,0.385,0.123,0.662v2.089h-0.548v-2.18    c0-0.209-0.053-0.353-0.156-0.431c-0.105-0.078-0.232-0.117-0.383-0.117c-0.207,0-0.385,0.069-0.535,0.208    c-0.148,0.139-0.224,0.37-0.224,0.694v1.825h-0.536v-2.048c0-0.213-0.025-0.368-0.076-0.466c-0.08-0.146-0.229-0.22-0.448-0.22    c-0.199,0-0.381,0.077-0.544,0.231s-0.244,0.434-0.244,0.838v1.664h-0.527V171.992z"/>
	</g>
	<g>
		<path d="M228.041,172.159v-0.404c0.381-0.037,0.646-0.099,0.797-0.186s0.263-0.292,0.337-0.617h0.416v4.178h-0.562v-2.971H228.041    z"/>
		<path d="M233.604,171.605c0.188,0.346,0.281,0.819,0.281,1.421c0,0.57-0.085,1.042-0.255,1.415    c-0.246,0.535-0.648,0.803-1.207,0.803c-0.504,0-0.879-0.219-1.125-0.656c-0.205-0.365-0.308-0.855-0.308-1.471    c0-0.477,0.062-0.886,0.185-1.228c0.23-0.637,0.647-0.955,1.251-0.955C232.97,170.935,233.362,171.158,233.604,171.605z     M233.074,174.4c0.162-0.242,0.243-0.693,0.243-1.354c0-0.477-0.059-0.869-0.176-1.176c-0.118-0.308-0.346-0.461-0.684-0.461    c-0.312,0-0.539,0.146-0.683,0.438s-0.216,0.722-0.216,1.291c0,0.428,0.046,0.771,0.138,1.031    c0.141,0.396,0.382,0.595,0.722,0.595C232.693,174.764,232.911,174.643,233.074,174.4z"/>
		<path d="M236.941,171.605c0.188,0.346,0.281,0.819,0.281,1.421c0,0.57-0.085,1.042-0.255,1.415    c-0.246,0.535-0.648,0.803-1.207,0.803c-0.504,0-0.879-0.219-1.125-0.656c-0.205-0.365-0.308-0.855-0.308-1.471    c0-0.477,0.062-0.886,0.185-1.228c0.23-0.637,0.647-0.955,1.251-0.955C236.307,170.935,236.699,171.158,236.941,171.605z     M236.411,174.4c0.162-0.242,0.243-0.693,0.243-1.354c0-0.477-0.059-0.869-0.176-1.176c-0.118-0.308-0.346-0.461-0.684-0.461    c-0.312,0-0.539,0.146-0.683,0.438s-0.216,0.722-0.216,1.291c0,0.428,0.046,0.771,0.138,1.031    c0.141,0.396,0.382,0.595,0.722,0.595C236.03,174.764,236.248,174.643,236.411,174.4z"/>
		<path d="M240.278,171.605c0.188,0.346,0.281,0.819,0.281,1.421c0,0.57-0.085,1.042-0.255,1.415    c-0.246,0.535-0.648,0.803-1.207,0.803c-0.504,0-0.879-0.219-1.125-0.656c-0.205-0.365-0.308-0.855-0.308-1.471    c0-0.477,0.062-0.886,0.185-1.228c0.23-0.637,0.647-0.955,1.251-0.955C239.644,170.935,240.036,171.158,240.278,171.605z     M239.748,174.4c0.162-0.242,0.243-0.693,0.243-1.354c0-0.477-0.059-0.869-0.176-1.176c-0.118-0.308-0.346-0.461-0.684-0.461    c-0.312,0-0.539,0.146-0.683,0.438s-0.216,0.722-0.216,1.291c0,0.428,0.046,0.771,0.138,1.031    c0.141,0.396,0.382,0.595,0.722,0.595C239.367,174.764,239.585,174.643,239.748,174.4z"/>
		<path d="M242.856,170.826h0.507v2.499l1.353-1.333h0.674l-1.206,1.167l1.273,1.971h-0.674l-0.987-1.597l-0.433,0.419v1.178h-0.507    V170.826z"/>
		<path d="M245.868,171.992h0.521v0.445c0.125-0.154,0.238-0.267,0.34-0.337c0.174-0.119,0.371-0.179,0.592-0.179    c0.25,0,0.451,0.062,0.604,0.185c0.086,0.07,0.164,0.174,0.234,0.311c0.117-0.168,0.255-0.292,0.413-0.374    s0.336-0.122,0.533-0.122c0.422,0,0.709,0.152,0.861,0.457c0.082,0.164,0.123,0.385,0.123,0.662v2.089h-0.548v-2.18    c0-0.209-0.053-0.353-0.156-0.431c-0.105-0.078-0.232-0.117-0.383-0.117c-0.207,0-0.385,0.069-0.535,0.208    c-0.148,0.139-0.224,0.37-0.224,0.694v1.825h-0.536v-2.048c0-0.213-0.025-0.368-0.076-0.466c-0.08-0.146-0.229-0.22-0.448-0.22    c-0.199,0-0.381,0.077-0.544,0.231s-0.244,0.434-0.244,0.838v1.664h-0.527V171.992z"/>
	</g>
	<g>
		<path d="M0.981,105.643h0.892v1.507h4.146v1.06H1.873v1.514H0.981V105.643z"/>
		<path d="M2.369,102.678c0.116-0.26,0.3-0.475,0.551-0.644c0.222-0.153,0.478-0.252,0.771-0.297    c0.171-0.026,0.417-0.037,0.739-0.032v2.713c0.374-0.015,0.636-0.145,0.786-0.39c0.093-0.149,0.14-0.328,0.14-0.537    c0-0.222-0.057-0.402-0.171-0.541c-0.062-0.075-0.147-0.142-0.256-0.2v-0.995c0.221,0.026,0.445,0.146,0.673,0.361    c0.362,0.333,0.543,0.801,0.543,1.401c0,0.496-0.153,0.933-0.458,1.312c-0.306,0.379-0.803,0.568-1.491,0.568    c-0.646,0-1.141-0.171-1.485-0.513s-0.517-0.786-0.517-1.333C2.194,103.23,2.252,102.938,2.369,102.678z M3.21,104.136    c0.142,0.138,0.334,0.224,0.577,0.259v-1.678c-0.259,0.018-0.455,0.104-0.589,0.259c-0.134,0.156-0.201,0.348-0.201,0.578    C2.998,103.804,3.068,103.998,3.21,104.136z"/>
		<path d="M2.307,96.564c0.064-0.16,0.175-0.304,0.335-0.434c0.13-0.105,0.29-0.175,0.479-0.212c0.125-0.023,0.309-0.034,0.55-0.034    l2.348,0.007v0.998H3.647c-0.141,0-0.257,0.023-0.349,0.068c-0.173,0.086-0.26,0.246-0.26,0.479c0,0.269,0.112,0.455,0.335,0.557    c0.119,0.052,0.261,0.079,0.427,0.079h2.218v0.981H3.801c-0.221,0-0.382,0.023-0.482,0.068c-0.18,0.082-0.27,0.243-0.27,0.482    c0,0.278,0.09,0.465,0.27,0.561c0.103,0.052,0.255,0.079,0.458,0.079h2.242v0.988H2.3v-0.947h0.543    c-0.194-0.121-0.332-0.235-0.414-0.342c-0.146-0.189-0.219-0.434-0.219-0.735c0-0.285,0.062-0.515,0.188-0.69    c0.116-0.141,0.266-0.249,0.448-0.321c-0.219-0.127-0.379-0.286-0.482-0.475c-0.103-0.201-0.154-0.424-0.154-0.67    C2.211,96.886,2.243,96.724,2.307,96.564z"/>
		<path d="M2.693,91.856C3.015,91.552,3.486,91.4,4.108,91.4c0.656,0,1.156,0.148,1.5,0.445c0.344,0.297,0.516,0.68,0.516,1.147    c0,0.298-0.074,0.546-0.222,0.743c-0.082,0.108-0.202,0.213-0.359,0.316h1.941v0.964H2.293v-0.933h0.55    c-0.162-0.105-0.29-0.218-0.383-0.337c-0.167-0.218-0.25-0.477-0.25-0.778C2.211,92.53,2.372,92.16,2.693,91.856z M3.394,92.604    c-0.221,0.132-0.332,0.347-0.332,0.644c0,0.357,0.167,0.602,0.502,0.736c0.178,0.069,0.403,0.104,0.677,0.104    c0.433,0,0.737-0.116,0.913-0.349c0.103-0.138,0.154-0.301,0.154-0.49c0-0.274-0.105-0.483-0.314-0.627s-0.489-0.216-0.837-0.216    C3.869,92.405,3.615,92.471,3.394,92.604z"/>
		<path d="M5.563,87.606c0.388,0.314,0.582,0.792,0.582,1.432s-0.194,1.118-0.582,1.432s-0.855,0.472-1.402,0.472    c-0.538,0-1.003-0.157-1.397-0.472s-0.591-0.792-0.591-1.432s0.197-1.118,0.591-1.432s0.859-0.472,1.397-0.472    C4.708,87.134,5.175,87.292,5.563,87.606z M5.025,88.385c-0.203-0.153-0.49-0.229-0.863-0.229c-0.374,0-0.661,0.076-0.862,0.229    c-0.202,0.153-0.302,0.372-0.302,0.656S3.098,89.545,3.3,89.7c0.201,0.153,0.488,0.23,0.862,0.23c0.373,0,0.661-0.077,0.863-0.23    c0.203-0.154,0.304-0.374,0.304-0.658S5.228,88.538,5.025,88.385z"/>
		<path d="M2.207,84.367c0.001-0.012,0.002-0.04,0.005-0.083h0.998c-0.007,0.062-0.011,0.116-0.014,0.164s-0.003,0.086-0.003,0.116    c0,0.392,0.127,0.655,0.383,0.79c0.144,0.075,0.365,0.113,0.663,0.113h1.781v0.981H2.293v-0.93h0.649    c-0.249-0.15-0.418-0.281-0.509-0.393c-0.153-0.182-0.229-0.419-0.229-0.711C2.205,84.396,2.205,84.38,2.207,84.367z"/>
		<path d="M3.753,82.237c-0.023-0.181-0.051-0.311-0.085-0.389c-0.059-0.14-0.151-0.21-0.277-0.21c-0.153,0-0.258,0.054-0.316,0.161    c-0.059,0.107-0.087,0.265-0.087,0.473c0,0.233,0.057,0.399,0.171,0.496c0.084,0.069,0.198,0.116,0.342,0.139v0.94    c-0.326-0.021-0.594-0.112-0.803-0.274c-0.328-0.259-0.492-0.703-0.492-1.332c0-0.41,0.081-0.773,0.243-1.092    c0.162-0.318,0.467-0.477,0.916-0.477h1.709c0.119,0,0.262-0.002,0.431-0.007c0.127-0.007,0.214-0.026,0.26-0.058    s0.083-0.08,0.113-0.144h0.144v1.06c-0.075,0.03-0.146,0.05-0.212,0.062s-0.141,0.021-0.226,0.027    c0.146,0.135,0.27,0.291,0.373,0.468c0.121,0.21,0.181,0.449,0.181,0.715c0,0.339-0.096,0.62-0.289,0.841    c-0.192,0.221-0.465,0.332-0.818,0.332c-0.458,0-0.79-0.178-0.995-0.534c-0.112-0.195-0.191-0.482-0.239-0.861L3.753,82.237z     M4.208,81.642c0.039,0.062,0.07,0.125,0.094,0.189c0.024,0.063,0.046,0.151,0.067,0.262l0.041,0.222    c0.037,0.208,0.081,0.357,0.133,0.448c0.089,0.153,0.227,0.23,0.414,0.23c0.167,0,0.287-0.047,0.361-0.141    c0.074-0.094,0.111-0.208,0.111-0.342c0-0.213-0.062-0.409-0.185-0.588c-0.123-0.179-0.348-0.272-0.673-0.279H4.208z"/>
		<path d="M6.019,78.825v0.974H0.981v-0.974H6.019z"/>
		<path d="M4.83,75.175c0.173-0.021,0.296-0.065,0.369-0.134c0.13-0.122,0.195-0.346,0.195-0.673c0-0.192-0.028-0.345-0.085-0.458    s-0.143-0.17-0.256-0.17c-0.109,0-0.192,0.046-0.25,0.137c-0.057,0.091-0.155,0.431-0.294,1.02    c-0.105,0.423-0.236,0.721-0.393,0.895c-0.155,0.173-0.378,0.26-0.67,0.26c-0.344,0-0.64-0.135-0.887-0.406    c-0.247-0.271-0.371-0.651-0.371-1.143c0-0.466,0.093-0.845,0.279-1.139c0.186-0.293,0.506-0.462,0.962-0.505v0.974    c-0.125,0.014-0.225,0.049-0.297,0.106c-0.132,0.107-0.198,0.29-0.198,0.548c0,0.212,0.033,0.364,0.099,0.454    s0.144,0.135,0.232,0.135c0.112,0,0.192-0.048,0.243-0.144c0.052-0.096,0.143-0.435,0.27-1.017    c0.091-0.388,0.229-0.679,0.414-0.873c0.187-0.191,0.42-0.287,0.701-0.287c0.369,0,0.67,0.138,0.904,0.413    c0.233,0.275,0.35,0.701,0.35,1.276c0,0.587-0.124,1.02-0.371,1.3c-0.248,0.28-0.562,0.419-0.945,0.419V75.175z"/>
		<path d="M3.63,69.809c-0.139,0.018-0.264,0.065-0.376,0.141c-0.15,0.109-0.226,0.28-0.226,0.51c0,0.329,0.163,0.554,0.489,0.675    c0.173,0.064,0.402,0.096,0.688,0.096c0.273,0,0.492-0.032,0.658-0.096c0.31-0.117,0.465-0.336,0.465-0.658    c0-0.229-0.062-0.391-0.185-0.486c-0.123-0.096-0.283-0.154-0.479-0.175v-0.995c0.296,0.023,0.577,0.13,0.841,0.322    c0.426,0.306,0.639,0.758,0.639,1.358c0,0.6-0.178,1.042-0.533,1.324s-0.816,0.424-1.383,0.424c-0.639,0-1.136-0.156-1.492-0.469    s-0.533-0.744-0.533-1.293c0-0.467,0.105-0.85,0.314-1.147c0.209-0.298,0.58-0.474,1.111-0.529V69.809z"/>
		<path d="M3.753,66.668c-0.023-0.181-0.051-0.311-0.085-0.389c-0.059-0.14-0.151-0.21-0.277-0.21c-0.153,0-0.258,0.054-0.316,0.161    c-0.059,0.107-0.087,0.265-0.087,0.473c0,0.233,0.057,0.399,0.171,0.496c0.084,0.069,0.198,0.116,0.342,0.139v0.94    c-0.326-0.021-0.594-0.112-0.803-0.274c-0.328-0.259-0.492-0.703-0.492-1.332c0-0.41,0.081-0.773,0.243-1.092    c0.162-0.318,0.467-0.477,0.916-0.477h1.709c0.119,0,0.262-0.002,0.431-0.007c0.127-0.007,0.214-0.026,0.26-0.058    s0.083-0.08,0.113-0.144h0.144v1.06c-0.075,0.03-0.146,0.05-0.212,0.062s-0.141,0.021-0.226,0.027    c0.146,0.135,0.27,0.291,0.373,0.468c0.121,0.21,0.181,0.449,0.181,0.715c0,0.339-0.096,0.62-0.289,0.841    c-0.192,0.221-0.465,0.332-0.818,0.332c-0.458,0-0.79-0.178-0.995-0.534c-0.112-0.195-0.191-0.482-0.239-0.861L3.753,66.668z     M4.208,66.073c0.039,0.062,0.07,0.125,0.094,0.189c0.024,0.063,0.046,0.151,0.067,0.262l0.041,0.222    c0.037,0.208,0.081,0.357,0.133,0.448c0.089,0.153,0.227,0.23,0.414,0.23c0.167,0,0.287-0.047,0.361-0.141    c0.074-0.094,0.111-0.208,0.111-0.342c0-0.213-0.062-0.409-0.185-0.588C5.12,66.173,4.896,66.08,4.57,66.073H4.208z"/>
		<path d="M6.019,63.256v0.974H0.981v-0.974H6.019z"/>
		<path d="M2.369,59.878c0.116-0.26,0.3-0.475,0.551-0.644c0.222-0.153,0.478-0.252,0.771-0.297    c0.171-0.026,0.417-0.037,0.739-0.032v2.713c0.374-0.015,0.636-0.145,0.786-0.39c0.093-0.149,0.14-0.328,0.14-0.537    c0-0.222-0.057-0.402-0.171-0.541c-0.062-0.075-0.147-0.142-0.256-0.2v-0.995c0.221,0.026,0.445,0.146,0.673,0.361    c0.362,0.333,0.543,0.801,0.543,1.401c0,0.496-0.153,0.933-0.458,1.312C5.381,62.411,4.884,62.6,4.196,62.6    c-0.646,0-1.141-0.171-1.485-0.513s-0.517-0.786-0.517-1.333C2.194,60.43,2.252,60.138,2.369,59.878z M3.21,61.336    c0.142,0.138,0.334,0.224,0.577,0.259v-1.678c-0.259,0.018-0.455,0.104-0.589,0.259c-0.134,0.156-0.201,0.348-0.201,0.578    C2.998,61.004,3.068,61.198,3.21,61.336z"/>
	</g>
	<g>
		<path d="M120.383,185.514c0.033,0.23,0.097,0.402,0.192,0.516c0.174,0.208,0.474,0.311,0.897,0.311    c0.253,0,0.46-0.027,0.618-0.082c0.3-0.105,0.45-0.3,0.45-0.584c0-0.167-0.074-0.295-0.221-0.386    c-0.147-0.089-0.38-0.167-0.7-0.236l-0.545-0.12c-0.536-0.119-0.904-0.247-1.105-0.386c-0.339-0.232-0.509-0.596-0.509-1.09    c0-0.451,0.166-0.826,0.498-1.125c0.333-0.298,0.82-0.448,1.464-0.448c0.537,0,0.996,0.141,1.375,0.422    c0.38,0.281,0.579,0.689,0.597,1.225h-1.012c-0.019-0.303-0.153-0.519-0.405-0.646c-0.169-0.084-0.378-0.126-0.628-0.126    c-0.278,0-0.5,0.055-0.666,0.164c-0.166,0.109-0.249,0.262-0.249,0.458c0,0.18,0.082,0.314,0.245,0.403    c0.105,0.059,0.328,0.129,0.669,0.208l0.884,0.208c0.388,0.091,0.679,0.213,0.872,0.366c0.3,0.237,0.45,0.58,0.45,1.029    c0,0.46-0.178,0.842-0.534,1.147c-0.355,0.304-0.858,0.456-1.508,0.456c-0.663,0-1.185-0.15-1.565-0.449    c-0.38-0.3-0.57-0.712-0.57-1.236H120.383z"/>
		<path d="M127.348,183.743c0.304,0.321,0.455,0.793,0.455,1.415c0,0.656-0.148,1.156-0.445,1.5s-0.679,0.516-1.146,0.516    c-0.299,0-0.546-0.074-0.743-0.222c-0.108-0.082-0.214-0.202-0.317-0.359v1.941h-0.963v-5.192h0.933v0.55    c0.105-0.162,0.218-0.29,0.337-0.383c0.218-0.167,0.478-0.25,0.777-0.25C126.673,183.261,127.044,183.422,127.348,183.743z     M126.6,184.444c-0.132-0.221-0.347-0.332-0.644-0.332c-0.357,0-0.603,0.167-0.735,0.502c-0.069,0.178-0.104,0.403-0.104,0.677    c0,0.433,0.115,0.737,0.348,0.913c0.139,0.103,0.302,0.154,0.491,0.154c0.273,0,0.482-0.105,0.626-0.314    c0.145-0.209,0.217-0.489,0.217-0.837C126.799,184.919,126.733,184.665,126.6,184.444z"/>
		<path d="M129.966,184.803c0.181-0.023,0.311-0.051,0.389-0.085c0.14-0.059,0.21-0.151,0.21-0.277c0-0.153-0.054-0.258-0.161-0.316    c-0.107-0.059-0.265-0.087-0.473-0.087c-0.233,0-0.398,0.057-0.496,0.171c-0.069,0.084-0.115,0.198-0.138,0.342h-0.94    c0.021-0.326,0.112-0.594,0.274-0.803c0.259-0.328,0.703-0.492,1.332-0.492c0.41,0,0.773,0.081,1.092,0.243    s0.477,0.467,0.477,0.916v1.709c0,0.119,0.003,0.262,0.008,0.431c0.006,0.127,0.025,0.214,0.058,0.26s0.08,0.083,0.144,0.113    v0.144h-1.06c-0.029-0.075-0.05-0.146-0.062-0.212s-0.021-0.141-0.027-0.226c-0.135,0.146-0.291,0.27-0.468,0.373    c-0.211,0.121-0.449,0.181-0.715,0.181c-0.339,0-0.619-0.096-0.841-0.289c-0.221-0.192-0.332-0.465-0.332-0.818    c0-0.458,0.179-0.79,0.534-0.995c0.195-0.112,0.482-0.191,0.86-0.239L129.966,184.803z M130.561,185.257    c-0.062,0.039-0.125,0.07-0.188,0.094c-0.063,0.024-0.15,0.046-0.262,0.067l-0.222,0.041c-0.208,0.037-0.357,0.081-0.447,0.133    c-0.153,0.089-0.23,0.227-0.23,0.414c0,0.167,0.047,0.287,0.141,0.361c0.094,0.074,0.208,0.111,0.342,0.111    c0.213,0,0.409-0.062,0.588-0.185c0.18-0.123,0.272-0.348,0.279-0.673V185.257z"/>
		<path d="M132,184.071v-0.694h0.52v-1.039h0.963v1.039h0.605v0.694h-0.605v1.969c0,0.153,0.02,0.248,0.059,0.286    c0.039,0.037,0.157,0.056,0.355,0.056c0.029,0,0.061,0,0.094-0.001c0.033-0.001,0.065-0.003,0.098-0.005v0.728l-0.461,0.017    c-0.461,0.016-0.775-0.064-0.943-0.239c-0.109-0.112-0.164-0.284-0.164-0.516v-2.293H132z"/>
		<path d="M135.715,182.899h-0.987V182h0.987V182.899z M134.728,183.343h0.987v3.726h-0.987V183.343z"/>
		<path d="M138.134,184.803c0.181-0.023,0.311-0.051,0.389-0.085c0.14-0.059,0.21-0.151,0.21-0.277c0-0.153-0.054-0.258-0.161-0.316    c-0.107-0.059-0.265-0.087-0.473-0.087c-0.233,0-0.398,0.057-0.496,0.171c-0.069,0.084-0.115,0.198-0.138,0.342h-0.94    c0.021-0.326,0.112-0.594,0.274-0.803c0.259-0.328,0.703-0.492,1.332-0.492c0.41,0,0.773,0.081,1.092,0.243    s0.477,0.467,0.477,0.916v1.709c0,0.119,0.003,0.262,0.008,0.431c0.006,0.127,0.025,0.214,0.058,0.26s0.08,0.083,0.144,0.113    v0.144h-1.06c-0.029-0.075-0.05-0.146-0.062-0.212s-0.021-0.141-0.027-0.226c-0.135,0.146-0.291,0.27-0.468,0.373    c-0.211,0.121-0.449,0.181-0.715,0.181c-0.339,0-0.619-0.096-0.841-0.289c-0.221-0.192-0.332-0.465-0.332-0.818    c0-0.458,0.179-0.79,0.534-0.995c0.195-0.112,0.482-0.191,0.86-0.239L138.134,184.803z M138.729,185.257    c-0.062,0.039-0.125,0.07-0.188,0.094c-0.063,0.024-0.15,0.046-0.262,0.067l-0.222,0.041c-0.208,0.037-0.357,0.081-0.447,0.133    c-0.153,0.089-0.23,0.227-0.23,0.414c0,0.167,0.047,0.287,0.141,0.361c0.094,0.074,0.208,0.111,0.342,0.111    c0.213,0,0.409-0.062,0.588-0.185c0.18-0.123,0.272-0.348,0.279-0.673V185.257z"/>
		<path d="M141.546,187.069h-0.975v-5.038h0.975V187.069z"/>
		<path d="M145.197,185.879c0.021,0.173,0.065,0.296,0.134,0.369c0.121,0.13,0.346,0.195,0.673,0.195    c0.192,0,0.346-0.028,0.459-0.085s0.17-0.143,0.17-0.256c0-0.109-0.046-0.192-0.137-0.25c-0.092-0.057-0.432-0.155-1.02-0.294    c-0.423-0.105-0.722-0.236-0.895-0.393c-0.173-0.155-0.26-0.378-0.26-0.67c0-0.344,0.136-0.64,0.406-0.887    c0.271-0.247,0.651-0.371,1.142-0.371c0.466,0,0.846,0.093,1.14,0.279c0.293,0.186,0.462,0.506,0.505,0.962h-0.975    c-0.014-0.125-0.049-0.225-0.105-0.297c-0.107-0.132-0.291-0.198-0.549-0.198c-0.212,0-0.363,0.033-0.454,0.099    c-0.09,0.066-0.136,0.144-0.136,0.232c0,0.112,0.049,0.192,0.145,0.243c0.096,0.052,0.435,0.143,1.017,0.27    c0.389,0.091,0.68,0.229,0.873,0.414c0.191,0.187,0.287,0.42,0.287,0.701c0,0.369-0.138,0.67-0.413,0.904    c-0.274,0.233-0.7,0.35-1.275,0.35c-0.587,0-1.02-0.124-1.3-0.371c-0.279-0.248-0.419-0.562-0.419-0.945H145.197z"/>
		<path d="M150.563,184.68c-0.019-0.139-0.065-0.264-0.141-0.376c-0.11-0.15-0.28-0.226-0.511-0.226    c-0.329,0-0.554,0.163-0.675,0.489c-0.064,0.173-0.096,0.402-0.096,0.688c0,0.273,0.031,0.492,0.096,0.658    c0.116,0.31,0.336,0.465,0.657,0.465c0.229,0,0.391-0.062,0.487-0.185c0.096-0.123,0.153-0.283,0.174-0.479h0.995    c-0.022,0.296-0.13,0.577-0.321,0.841c-0.306,0.426-0.759,0.639-1.358,0.639c-0.601,0-1.041-0.178-1.324-0.533    s-0.425-0.816-0.425-1.383c0-0.639,0.156-1.136,0.469-1.492s0.744-0.533,1.294-0.533c0.468,0,0.85,0.105,1.147,0.314    s0.474,0.58,0.529,1.111H150.563z"/>
		<path d="M153.703,184.803c0.181-0.023,0.311-0.051,0.389-0.085c0.14-0.059,0.21-0.151,0.21-0.277c0-0.153-0.054-0.258-0.161-0.316    c-0.107-0.059-0.265-0.087-0.473-0.087c-0.233,0-0.398,0.057-0.496,0.171c-0.069,0.084-0.115,0.198-0.138,0.342h-0.94    c0.021-0.326,0.112-0.594,0.274-0.803c0.259-0.328,0.703-0.492,1.332-0.492c0.41,0,0.773,0.081,1.092,0.243    s0.477,0.467,0.477,0.916v1.709c0,0.119,0.003,0.262,0.008,0.431c0.006,0.127,0.025,0.214,0.058,0.26s0.08,0.083,0.144,0.113    v0.144h-1.06c-0.029-0.075-0.05-0.146-0.062-0.212s-0.021-0.141-0.027-0.226c-0.135,0.146-0.291,0.27-0.468,0.373    c-0.211,0.121-0.449,0.181-0.715,0.181c-0.339,0-0.619-0.096-0.841-0.289c-0.221-0.192-0.332-0.465-0.332-0.818    c0-0.458,0.179-0.79,0.534-0.995c0.195-0.112,0.482-0.191,0.86-0.239L153.703,184.803z M154.298,185.257    c-0.062,0.039-0.125,0.07-0.188,0.094c-0.063,0.024-0.15,0.046-0.262,0.067l-0.222,0.041c-0.208,0.037-0.357,0.081-0.447,0.133    c-0.153,0.089-0.23,0.227-0.23,0.414c0,0.167,0.047,0.287,0.141,0.361c0.094,0.074,0.208,0.111,0.342,0.111    c0.213,0,0.409-0.062,0.588-0.185c0.18-0.123,0.272-0.348,0.279-0.673V185.257z"/>
		<path d="M157.114,187.069h-0.975v-5.038h0.975V187.069z"/>
		<path d="M160.492,183.419c0.261,0.116,0.475,0.3,0.645,0.551c0.152,0.222,0.251,0.478,0.297,0.771    c0.026,0.171,0.036,0.417,0.032,0.739h-2.714c0.015,0.374,0.145,0.636,0.39,0.786c0.148,0.093,0.328,0.14,0.537,0.14    c0.222,0,0.402-0.057,0.541-0.171c0.075-0.062,0.143-0.147,0.2-0.256h0.995c-0.026,0.221-0.147,0.445-0.361,0.673    c-0.334,0.362-0.801,0.543-1.402,0.543c-0.495,0-0.933-0.153-1.312-0.458s-0.569-0.803-0.569-1.491    c0-0.646,0.172-1.141,0.514-1.485s0.786-0.517,1.332-0.517C159.94,183.244,160.232,183.302,160.492,183.419z M159.035,184.26    c-0.138,0.142-0.224,0.334-0.259,0.577h1.678c-0.018-0.259-0.104-0.455-0.26-0.589c-0.155-0.134-0.348-0.201-0.577-0.201    C159.367,184.047,159.173,184.118,159.035,184.26z"/>
	</g>
	<g>
		<path fill-rule="evenodd" clip-rule="evenodd" d="M63.604,159.157c0-1.309,1.06-2.369,2.368-2.369s2.367,1.06,2.367,2.369    c0,1.307-1.059,2.368-2.367,2.368S63.604,160.463,63.604,159.157"/>
		
			<circle fill="none" stroke="#000000" stroke-width="0.581" stroke-linejoin="round" stroke-miterlimit="10" cx="65.971" cy="159.157" r="2.368"/>
		<path fill-rule="evenodd" clip-rule="evenodd" d="M115.699,107.06c0-1.307,1.06-2.368,2.368-2.368c1.307,0,2.37,1.061,2.37,2.368    c0,1.308-1.063,2.368-2.37,2.368C116.759,109.427,115.699,108.367,115.699,107.06"/>
		
			<circle fill="none" stroke="#000000" stroke-width="0.581" stroke-linejoin="round" stroke-miterlimit="10" cx="118.068" cy="107.06" r="2.369"/>
		<path fill-rule="evenodd" clip-rule="evenodd" d="M120.437,24.18c0-1.307,1.059-2.368,2.367-2.368    c1.307,0,2.367,1.061,2.367,2.368c0,1.308-1.06,2.368-2.367,2.368C121.496,26.548,120.437,25.488,120.437,24.18"/>
		
			<circle fill="none" stroke="#000000" stroke-width="0.581" stroke-linejoin="round" stroke-miterlimit="10" cx="122.804" cy="24.18" r="2.367"/>
		<path fill-rule="evenodd" clip-rule="evenodd" d="M144.114,45.492c0-1.308,1.061-2.368,2.369-2.368    c1.308,0,2.368,1.06,2.368,2.368c0,1.308-1.061,2.368-2.368,2.368C145.175,47.86,144.114,46.8,144.114,45.492"/>
		
			<circle fill="none" stroke="#000000" stroke-width="0.581" stroke-linejoin="round" stroke-miterlimit="10" cx="146.483" cy="45.492" r="2.369"/>
		<path fill-rule="evenodd" clip-rule="evenodd" d="M189.107,17.076c0-1.308,1.061-2.368,2.368-2.368s2.365,1.06,2.365,2.368    s-1.058,2.368-2.365,2.368S189.107,18.384,189.107,17.076"/>
		
			<circle fill="none" stroke="#000000" stroke-width="0.581" stroke-linejoin="round" stroke-miterlimit="10" cx="191.474" cy="17.076" r="2.367"/>
	</g>
	<g>
		<path fill="none" stroke="#FFFFFF" stroke-width="3" stroke-miterlimit="10" d="M73.178,155.555h0.768l1.823,5.021h-0.745    l-0.524-1.504h-1.97l-0.545,1.504h-0.697L73.178,155.555z M74.306,158.519l-0.773-2.218l-0.804,2.218H74.306z"/>
		<path fill="none" stroke="#FFFFFF" stroke-width="3" stroke-miterlimit="10" d="M76.139,158.31h1.716v0.632h-1.716V158.31z"/>
		<path fill="none" stroke="#FFFFFF" stroke-width="3" stroke-miterlimit="10" d="M81.049,157.11    c0.259,0.201,0.415,0.546,0.467,1.036h-0.598c-0.037-0.226-0.12-0.413-0.25-0.562c-0.13-0.149-0.338-0.224-0.625-0.224    c-0.392,0-0.672,0.191-0.841,0.574c-0.109,0.248-0.164,0.554-0.164,0.918c0,0.367,0.078,0.675,0.232,0.925    s0.399,0.375,0.731,0.375c0.255,0,0.458-0.078,0.607-0.233c0.149-0.155,0.252-0.368,0.309-0.638h0.598    c-0.068,0.485-0.239,0.84-0.513,1.065c-0.273,0.224-0.623,0.336-1.049,0.336c-0.479,0-0.86-0.175-1.145-0.525    c-0.285-0.35-0.427-0.787-0.427-1.311c0-0.643,0.156-1.143,0.468-1.5s0.71-0.537,1.193-0.537    C80.455,156.81,80.791,156.91,81.049,157.11z"/>
		<path fill="none" stroke="#FFFFFF" stroke-width="3" stroke-miterlimit="10" d="M84.783,157.281    c0.324,0.314,0.485,0.776,0.485,1.387c0,0.589-0.143,1.077-0.428,1.461s-0.728,0.577-1.327,0.577c-0.5,0-0.897-0.17-1.191-0.511    c-0.294-0.34-0.441-0.797-0.441-1.371c0-0.615,0.155-1.104,0.465-1.468s0.727-0.546,1.249-0.546    C84.063,156.81,84.459,156.967,84.783,157.281z M84.401,159.714c0.15-0.309,0.225-0.652,0.225-1.029    c0-0.341-0.054-0.619-0.162-0.833c-0.171-0.337-0.466-0.505-0.886-0.505c-0.372,0-0.642,0.144-0.811,0.43    s-0.253,0.633-0.253,1.038c0,0.39,0.084,0.714,0.253,0.973s0.437,0.389,0.804,0.389C83.975,160.176,84.251,160.022,84.401,159.714    z"/>
		<path fill="none" stroke="#FFFFFF" stroke-width="3" stroke-miterlimit="10" d="M86.041,156.916h0.584v0.632    c0.048-0.123,0.165-0.273,0.352-0.449c0.187-0.177,0.402-0.265,0.646-0.265c0.011,0,0.031,0.001,0.058,0.003    s0.074,0.007,0.14,0.014v0.649c-0.037-0.007-0.07-0.011-0.101-0.014c-0.031-0.002-0.064-0.003-0.101-0.003    c-0.31,0-0.548,0.1-0.714,0.299c-0.167,0.199-0.25,0.429-0.25,0.688v2.105h-0.615V156.916z"/>
		<path fill="none" stroke="#FFFFFF" stroke-width="3" stroke-miterlimit="10" d="M90.616,157.017    c0.242,0.122,0.427,0.279,0.554,0.473c0.122,0.185,0.204,0.4,0.245,0.646c0.036,0.168,0.054,0.438,0.054,0.807h-2.663    c0.011,0.373,0.098,0.671,0.261,0.896c0.163,0.225,0.415,0.337,0.756,0.337c0.318,0,0.573-0.106,0.763-0.319    c0.106-0.124,0.182-0.267,0.226-0.429h0.605c-0.016,0.134-0.069,0.284-0.159,0.449c-0.09,0.166-0.19,0.3-0.301,0.405    c-0.186,0.182-0.415,0.305-0.689,0.369c-0.147,0.037-0.313,0.055-0.499,0.055c-0.453,0-0.836-0.166-1.151-0.497    c-0.315-0.332-0.472-0.796-0.472-1.393c0-0.588,0.159-1.065,0.476-1.432s0.731-0.55,1.243-0.55    C90.124,156.833,90.374,156.895,90.616,157.017z M90.836,158.454c-0.025-0.267-0.083-0.479-0.173-0.639    c-0.167-0.296-0.446-0.444-0.837-0.444c-0.28,0-0.516,0.102-0.705,0.306c-0.19,0.204-0.291,0.463-0.302,0.778H90.836z"/>
	</g>
	<g>
		<path fill="none" stroke="#FFFFFF" stroke-width="3" stroke-miterlimit="10" d="M123.794,103.457h2.171    c0.591,0,1.012,0.175,1.263,0.526c0.146,0.208,0.22,0.447,0.22,0.718c0,0.317-0.09,0.577-0.27,0.779    c-0.094,0.107-0.229,0.205-0.404,0.294c0.258,0.098,0.45,0.208,0.578,0.332c0.226,0.219,0.338,0.521,0.338,0.906    c0,0.324-0.102,0.616-0.306,0.878c-0.305,0.392-0.79,0.588-1.455,0.588h-2.135V103.457z M125.71,105.579    c0.29,0,0.516-0.04,0.677-0.12c0.254-0.125,0.381-0.351,0.381-0.677c0-0.328-0.135-0.549-0.404-0.663    c-0.152-0.064-0.378-0.096-0.677-0.096h-1.227v1.555H125.71z M125.941,107.896c0.421,0,0.721-0.121,0.9-0.362    c0.112-0.153,0.169-0.337,0.169-0.554c0-0.365-0.164-0.613-0.493-0.745c-0.175-0.071-0.406-0.106-0.693-0.106h-1.363v1.767    H125.941z"/>
		<path fill="none" stroke="#FFFFFF" stroke-width="3" stroke-miterlimit="10" d="M128.238,106.211h1.715v0.632h-1.715V106.211z"/>
		<path fill="none" stroke="#FFFFFF" stroke-width="3" stroke-miterlimit="10" d="M131.094,107.329    c0.02,0.205,0.071,0.362,0.157,0.472c0.158,0.198,0.433,0.297,0.823,0.297c0.232,0,0.438-0.049,0.614-0.149    c0.177-0.099,0.265-0.252,0.265-0.459c0-0.157-0.07-0.277-0.211-0.359c-0.091-0.05-0.27-0.108-0.535-0.174l-0.497-0.123    c-0.317-0.078-0.551-0.164-0.701-0.26c-0.269-0.167-0.403-0.396-0.403-0.69c0-0.346,0.126-0.626,0.379-0.841    s0.593-0.321,1.021-0.321c0.559,0,0.962,0.162,1.209,0.485c0.154,0.205,0.229,0.426,0.226,0.663h-0.582    c-0.011-0.138-0.062-0.264-0.15-0.377c-0.145-0.161-0.395-0.241-0.752-0.241c-0.238,0-0.418,0.044-0.54,0.133    c-0.123,0.088-0.185,0.206-0.185,0.351c0,0.159,0.081,0.286,0.242,0.382c0.093,0.057,0.229,0.106,0.41,0.15l0.415,0.099    c0.45,0.107,0.752,0.211,0.905,0.311c0.239,0.157,0.359,0.404,0.359,0.742c0,0.326-0.126,0.607-0.376,0.844    s-0.632,0.355-1.144,0.355c-0.552,0-0.942-0.124-1.172-0.371c-0.229-0.248-0.352-0.553-0.368-0.918H131.094z"/>
		<path fill="none" stroke="#FFFFFF" stroke-width="3" stroke-miterlimit="10" d="M134.844,104.817v2.43    c0,0.187,0.029,0.339,0.087,0.458c0.106,0.219,0.305,0.328,0.596,0.328c0.417,0,0.701-0.191,0.852-0.574    c0.082-0.205,0.124-0.486,0.124-0.844v-1.798h0.615v3.661h-0.582l0.008-0.54c-0.079,0.139-0.176,0.256-0.292,0.352    c-0.23,0.191-0.51,0.287-0.839,0.287c-0.512,0-0.86-0.174-1.046-0.523c-0.101-0.187-0.151-0.437-0.151-0.749v-2.488H134.844z"/>
		<path fill="none" stroke="#FFFFFF" stroke-width="3" stroke-miterlimit="10" d="M138.139,104.817h0.584v0.632    c0.048-0.123,0.165-0.273,0.352-0.449c0.188-0.177,0.402-0.265,0.646-0.265c0.012,0,0.031,0.001,0.059,0.003    s0.073,0.007,0.14,0.014v0.649c-0.036-0.007-0.07-0.011-0.101-0.014c-0.031-0.002-0.064-0.003-0.102-0.003    c-0.31,0-0.548,0.1-0.714,0.299c-0.166,0.199-0.249,0.429-0.249,0.688v2.105h-0.615V104.817z"/>
		<path fill="none" stroke="#FFFFFF" stroke-width="3" stroke-miterlimit="10" d="M140.755,104.817l0.978,2.98l1.019-2.98h0.673    l-1.378,3.661h-0.655l-1.351-3.661H140.755z"/>
		<path fill="none" stroke="#FFFFFF" stroke-width="3" stroke-miterlimit="10" d="M146.214,104.918    c0.242,0.122,0.427,0.279,0.554,0.473c0.123,0.185,0.204,0.4,0.245,0.646c0.036,0.168,0.054,0.438,0.054,0.807h-2.662    c0.012,0.373,0.099,0.671,0.261,0.896c0.163,0.225,0.415,0.337,0.757,0.337c0.318,0,0.573-0.106,0.763-0.319    c0.106-0.124,0.182-0.267,0.226-0.429h0.605c-0.016,0.134-0.069,0.284-0.159,0.449c-0.09,0.166-0.19,0.3-0.301,0.405    c-0.186,0.182-0.415,0.305-0.688,0.369c-0.147,0.037-0.313,0.055-0.499,0.055c-0.453,0-0.837-0.166-1.151-0.497    c-0.314-0.332-0.473-0.796-0.473-1.393c0-0.588,0.159-1.065,0.476-1.432c0.317-0.367,0.731-0.55,1.244-0.55    C145.722,104.735,145.972,104.796,146.214,104.918z M146.435,106.355c-0.024-0.267-0.082-0.479-0.173-0.639    c-0.167-0.296-0.446-0.444-0.837-0.444c-0.28,0-0.516,0.102-0.705,0.306c-0.189,0.204-0.29,0.463-0.302,0.778H146.435z"/>
		<path fill="none" stroke="#FFFFFF" stroke-width="3" stroke-miterlimit="10" d="M150.135,104.817h0.681    c-0.087,0.235-0.279,0.771-0.578,1.607c-0.223,0.629-0.41,1.142-0.561,1.539c-0.354,0.934-0.605,1.503-0.751,1.708    c-0.146,0.205-0.396,0.308-0.751,0.308c-0.087,0-0.153-0.003-0.2-0.01s-0.104-0.02-0.173-0.038v-0.561    c0.107,0.03,0.185,0.048,0.232,0.055s0.09,0.01,0.126,0.01c0.114,0,0.197-0.019,0.251-0.056s0.099-0.083,0.135-0.138    c0.012-0.019,0.053-0.111,0.123-0.28s0.122-0.293,0.153-0.375l-1.354-3.768h0.697l0.981,2.982L150.135,104.817z"/>
	</g>
	<g>
		<path fill="none" stroke="#FFFFFF" stroke-width="3" stroke-miterlimit="10" d="M132.098,20.941    c0.348,0.335,0.54,0.715,0.578,1.142h-0.663c-0.074-0.324-0.221-0.58-0.441-0.769s-0.53-0.284-0.928-0.284    c-0.486,0-0.878,0.174-1.177,0.521c-0.299,0.348-0.448,0.881-0.448,1.6c0,0.588,0.135,1.065,0.404,1.432    c0.27,0.366,0.673,0.549,1.207,0.549c0.493,0,0.868-0.192,1.125-0.578c0.137-0.203,0.238-0.469,0.306-0.8h0.663    c-0.059,0.529-0.252,0.972-0.581,1.33c-0.395,0.431-0.926,0.646-1.595,0.646c-0.577,0-1.061-0.177-1.453-0.53    c-0.516-0.467-0.773-1.189-0.773-2.165c0-0.741,0.193-1.349,0.581-1.823c0.419-0.515,0.996-0.773,1.733-0.773    C131.264,20.438,131.751,20.606,132.098,20.941z"/>
		<path fill="none" stroke="#FFFFFF" stroke-width="3" stroke-miterlimit="10" d="M133.36,23.33h1.715v0.632h-1.715V23.33z"/>
		<path fill="none" stroke="#FFFFFF" stroke-width="3" stroke-miterlimit="10" d="M136.07,22.13v-0.472    c0.444-0.043,0.754-0.116,0.93-0.217c0.176-0.102,0.307-0.341,0.393-0.72h0.486v4.874h-0.656V22.13H136.07z"/>
		<path fill="none" stroke="#FFFFFF" stroke-width="3" stroke-miterlimit="10" d="M139.774,24.496    c0.151-0.312,0.447-0.596,0.887-0.851l0.657-0.379c0.294-0.171,0.5-0.317,0.619-0.438c0.187-0.189,0.279-0.406,0.279-0.65    c0-0.286-0.085-0.512-0.256-0.68c-0.171-0.167-0.398-0.251-0.684-0.251c-0.422,0-0.713,0.16-0.875,0.48    c-0.087,0.171-0.135,0.409-0.144,0.713h-0.626c0.008-0.426,0.086-0.773,0.236-1.042c0.267-0.474,0.737-0.711,1.413-0.711    c0.561,0,0.97,0.151,1.229,0.455s0.388,0.64,0.388,1.012c0,0.392-0.138,0.727-0.413,1.005c-0.16,0.162-0.446,0.358-0.858,0.588    l-0.468,0.26c-0.224,0.123-0.399,0.24-0.527,0.352c-0.228,0.198-0.371,0.418-0.43,0.66h2.672v0.581h-3.36    C139.535,25.175,139.623,24.808,139.774,24.496z"/>
		<path fill="none" stroke="#FFFFFF" stroke-width="3" stroke-miterlimit="10" d="M145.948,24.448    c0.02,0.205,0.071,0.362,0.157,0.472c0.158,0.198,0.433,0.297,0.823,0.297c0.232,0,0.438-0.049,0.614-0.149    c0.177-0.099,0.265-0.252,0.265-0.459c0-0.157-0.07-0.277-0.211-0.359c-0.091-0.05-0.27-0.108-0.535-0.174l-0.497-0.123    c-0.317-0.078-0.551-0.164-0.701-0.26c-0.269-0.167-0.403-0.396-0.403-0.69c0-0.346,0.126-0.626,0.379-0.841    s0.593-0.321,1.021-0.321c0.559,0,0.962,0.162,1.209,0.485c0.154,0.205,0.229,0.426,0.226,0.663h-0.582    c-0.011-0.138-0.062-0.264-0.15-0.377c-0.145-0.161-0.395-0.241-0.752-0.241c-0.238,0-0.418,0.044-0.54,0.133    c-0.123,0.088-0.185,0.206-0.185,0.351c0,0.159,0.081,0.286,0.242,0.382c0.093,0.057,0.229,0.106,0.41,0.15l0.415,0.099    c0.45,0.107,0.752,0.211,0.905,0.311c0.239,0.157,0.359,0.404,0.359,0.742c0,0.326-0.126,0.607-0.376,0.844    s-0.632,0.355-1.144,0.355c-0.552,0-0.942-0.124-1.172-0.371c-0.229-0.248-0.352-0.553-0.368-0.918H145.948z"/>
		<path fill="none" stroke="#FFFFFF" stroke-width="3" stroke-miterlimit="10" d="M149.698,21.936v2.43    c0,0.187,0.029,0.339,0.087,0.458c0.106,0.219,0.305,0.328,0.596,0.328c0.417,0,0.701-0.191,0.852-0.574    c0.082-0.205,0.124-0.486,0.124-0.844v-1.798h0.615v3.661h-0.582l0.008-0.54c-0.079,0.139-0.176,0.256-0.292,0.352    c-0.23,0.191-0.51,0.287-0.839,0.287c-0.512,0-0.86-0.174-1.046-0.523c-0.101-0.187-0.151-0.437-0.151-0.749v-2.488H149.698z"/>
		<path fill="none" stroke="#FFFFFF" stroke-width="3" stroke-miterlimit="10" d="M152.993,21.936h0.584v0.632    c0.048-0.123,0.165-0.273,0.352-0.449c0.188-0.177,0.402-0.265,0.646-0.265c0.012,0,0.031,0.001,0.059,0.003    s0.073,0.007,0.14,0.014v0.649c-0.036-0.007-0.07-0.011-0.101-0.014c-0.031-0.002-0.064-0.003-0.102-0.003    c-0.31,0-0.548,0.1-0.714,0.299c-0.166,0.199-0.249,0.429-0.249,0.688v2.105h-0.615V21.936z"/>
		<path fill="none" stroke="#FFFFFF" stroke-width="3" stroke-miterlimit="10" d="M155.609,21.936l0.978,2.98l1.019-2.98h0.673    l-1.378,3.661h-0.655l-1.351-3.661H155.609z"/>
		<path fill="none" stroke="#FFFFFF" stroke-width="3" stroke-miterlimit="10" d="M161.067,22.037    c0.242,0.122,0.427,0.279,0.554,0.473c0.123,0.185,0.204,0.4,0.245,0.646c0.036,0.168,0.054,0.438,0.054,0.807h-2.662    c0.012,0.373,0.099,0.671,0.261,0.896c0.163,0.225,0.415,0.337,0.757,0.337c0.318,0,0.573-0.106,0.763-0.319    c0.106-0.124,0.182-0.267,0.226-0.429h0.605c-0.016,0.134-0.069,0.284-0.159,0.449c-0.09,0.166-0.19,0.3-0.301,0.405    c-0.186,0.182-0.415,0.305-0.688,0.369c-0.147,0.037-0.313,0.055-0.499,0.055c-0.453,0-0.837-0.166-1.151-0.497    c-0.314-0.332-0.473-0.796-0.473-1.393c0-0.588,0.159-1.065,0.476-1.432c0.317-0.367,0.731-0.55,1.244-0.55    C160.575,21.854,160.825,21.915,161.067,22.037z M161.288,23.474c-0.024-0.267-0.082-0.479-0.173-0.639    c-0.167-0.296-0.446-0.444-0.837-0.444c-0.28,0-0.516,0.102-0.705,0.306c-0.189,0.204-0.29,0.463-0.302,0.778H161.288z"/>
		<path fill="none" stroke="#FFFFFF" stroke-width="3" stroke-miterlimit="10" d="M164.988,21.936h0.681    c-0.087,0.235-0.279,0.771-0.578,1.607c-0.223,0.629-0.41,1.142-0.561,1.539c-0.354,0.934-0.605,1.503-0.751,1.708    c-0.146,0.205-0.396,0.308-0.751,0.308c-0.087,0-0.153-0.003-0.2-0.01s-0.104-0.02-0.173-0.038v-0.561    c0.107,0.03,0.185,0.048,0.232,0.055s0.09,0.01,0.126,0.01c0.114,0,0.197-0.019,0.251-0.056s0.099-0.083,0.135-0.138    c0.012-0.019,0.053-0.111,0.123-0.28s0.122-0.293,0.153-0.375l-1.354-3.768h0.697l0.981,2.982L164.988,21.936z"/>
		<path fill="none" stroke="#FFFFFF" stroke-width="3" stroke-miterlimit="10" d="M166.565,24.448    c0.02,0.205,0.071,0.362,0.157,0.472c0.158,0.198,0.433,0.297,0.823,0.297c0.232,0,0.438-0.049,0.614-0.149    c0.177-0.099,0.265-0.252,0.265-0.459c0-0.157-0.07-0.277-0.211-0.359c-0.091-0.05-0.27-0.108-0.535-0.174l-0.497-0.123    c-0.317-0.078-0.551-0.164-0.701-0.26c-0.269-0.167-0.403-0.396-0.403-0.69c0-0.346,0.126-0.626,0.379-0.841    s0.593-0.321,1.021-0.321c0.559,0,0.962,0.162,1.209,0.485c0.154,0.205,0.229,0.426,0.226,0.663h-0.582    c-0.011-0.138-0.062-0.264-0.15-0.377c-0.145-0.161-0.395-0.241-0.752-0.241c-0.238,0-0.418,0.044-0.54,0.133    c-0.123,0.088-0.185,0.206-0.185,0.351c0,0.159,0.081,0.286,0.242,0.382c0.093,0.057,0.229,0.106,0.41,0.15l0.415,0.099    c0.45,0.107,0.752,0.211,0.905,0.311c0.239,0.157,0.359,0.404,0.359,0.742c0,0.326-0.126,0.607-0.376,0.844    s-0.632,0.355-1.144,0.355c-0.552,0-0.942-0.124-1.172-0.371c-0.229-0.248-0.352-0.553-0.368-0.918H166.565z"/>
	</g>
	<g>
		<path fill="none" stroke="#FFFFFF" stroke-width="3" stroke-miterlimit="10" d="M152.263,41.884h2.007    c0.681,0,1.209,0.245,1.585,0.735c0.335,0.442,0.502,1.008,0.502,1.699c0,0.533-0.099,1.015-0.296,1.446    c-0.349,0.761-0.948,1.142-1.798,1.142h-2V41.884z M154.136,46.324c0.225,0,0.41-0.024,0.555-0.072    c0.259-0.089,0.47-0.26,0.635-0.513c0.132-0.203,0.227-0.462,0.284-0.779c0.033-0.189,0.05-0.365,0.05-0.526    c0-0.622-0.12-1.105-0.362-1.449c-0.241-0.344-0.631-0.516-1.168-0.516h-1.18v3.855H154.136z"/>
		<path fill="none" stroke="#FFFFFF" stroke-width="3" stroke-miterlimit="10" d="M157.044,44.639h1.715v0.632h-1.715V44.639z"/>
		<path fill="none" stroke="#FFFFFF" stroke-width="3" stroke-miterlimit="10" d="M161.796,43.346    c0.242,0.122,0.427,0.279,0.554,0.473c0.123,0.185,0.204,0.4,0.245,0.646c0.036,0.168,0.054,0.438,0.054,0.807h-2.662    c0.012,0.373,0.099,0.671,0.261,0.896c0.163,0.225,0.415,0.337,0.757,0.337c0.318,0,0.573-0.106,0.763-0.319    c0.106-0.124,0.182-0.267,0.226-0.429h0.605c-0.016,0.134-0.069,0.284-0.159,0.449c-0.09,0.166-0.19,0.3-0.301,0.405    c-0.186,0.182-0.415,0.305-0.688,0.369c-0.147,0.037-0.313,0.055-0.499,0.055c-0.453,0-0.837-0.166-1.151-0.497    c-0.314-0.332-0.473-0.796-0.473-1.393c0-0.588,0.159-1.065,0.476-1.432c0.317-0.367,0.731-0.55,1.244-0.55    C161.304,43.163,161.554,43.224,161.796,43.346z M162.017,44.783c-0.024-0.267-0.082-0.479-0.173-0.639    c-0.167-0.296-0.446-0.444-0.837-0.444c-0.28,0-0.516,0.102-0.705,0.306c-0.189,0.204-0.29,0.463-0.302,0.778H162.017z"/>
		<path fill="none" stroke="#FFFFFF" stroke-width="3" stroke-miterlimit="10" d="M163.08,43.245h0.796l0.842,1.289l0.851-1.289    l0.749,0.017l-1.234,1.767l1.289,1.876h-0.787l-0.908-1.374l-0.883,1.374h-0.779l1.289-1.876L163.08,43.245z"/>
		<path fill="none" stroke="#FFFFFF" stroke-width="3" stroke-miterlimit="10" d="M166.878,43.262h0.602v0.485    c0.123-0.167,0.258-0.295,0.404-0.386c0.207-0.137,0.452-0.205,0.733-0.205c0.415,0,0.769,0.159,1.059,0.477    c0.29,0.317,0.435,0.771,0.435,1.362c0,0.797-0.209,1.367-0.628,1.709c-0.265,0.216-0.574,0.325-0.926,0.325    c-0.277,0-0.509-0.061-0.697-0.181c-0.109-0.068-0.231-0.186-0.366-0.352v1.87h-0.615V43.262z M169.192,46.131    c0.19-0.24,0.286-0.6,0.286-1.078c0-0.292-0.042-0.542-0.127-0.752c-0.16-0.403-0.453-0.605-0.878-0.605    c-0.428,0-0.721,0.213-0.878,0.639c-0.085,0.228-0.127,0.517-0.127,0.868c0,0.283,0.042,0.523,0.127,0.721    c0.16,0.378,0.452,0.567,0.878,0.567C168.762,46.492,169.001,46.372,169.192,46.131z"/>
		<path fill="none" stroke="#FFFFFF" stroke-width="3" stroke-miterlimit="10" d="M173.082,43.346    c0.242,0.122,0.427,0.279,0.554,0.473c0.123,0.185,0.204,0.4,0.245,0.646c0.036,0.168,0.054,0.438,0.054,0.807h-2.662    c0.012,0.373,0.099,0.671,0.261,0.896c0.163,0.225,0.415,0.337,0.757,0.337c0.318,0,0.573-0.106,0.763-0.319    c0.106-0.124,0.182-0.267,0.226-0.429h0.605c-0.016,0.134-0.069,0.284-0.159,0.449c-0.09,0.166-0.19,0.3-0.301,0.405    c-0.186,0.182-0.415,0.305-0.688,0.369c-0.147,0.037-0.313,0.055-0.499,0.055c-0.453,0-0.837-0.166-1.151-0.497    c-0.314-0.332-0.473-0.796-0.473-1.393c0-0.588,0.159-1.065,0.476-1.432c0.317-0.367,0.731-0.55,1.244-0.55    C172.59,43.163,172.84,43.224,173.082,43.346z M173.303,44.783c-0.024-0.267-0.082-0.479-0.173-0.639    c-0.167-0.296-0.446-0.444-0.837-0.444c-0.28,0-0.516,0.102-0.705,0.306c-0.189,0.204-0.29,0.463-0.302,0.778H173.303z"/>
		<path fill="none" stroke="#FFFFFF" stroke-width="3" stroke-miterlimit="10" d="M174.731,43.245h0.584v0.632    c0.048-0.123,0.165-0.273,0.352-0.449c0.188-0.177,0.402-0.265,0.646-0.265c0.012,0,0.031,0.001,0.059,0.003    s0.073,0.007,0.14,0.014v0.649c-0.036-0.007-0.07-0.011-0.101-0.014c-0.031-0.002-0.064-0.003-0.102-0.003    c-0.31,0-0.548,0.1-0.714,0.299c-0.166,0.199-0.249,0.429-0.249,0.688v2.105h-0.615V43.245z"/>
		<path fill="none" stroke="#FFFFFF" stroke-width="3" stroke-miterlimit="10" d="M177.045,41.884h0.625v0.697h-0.625V41.884z     M177.045,43.262h0.625v3.644h-0.625V43.262z"/>
		<path fill="none" stroke="#FFFFFF" stroke-width="3" stroke-miterlimit="10" d="M178.601,43.245h0.608v0.52    c0.146-0.18,0.278-0.311,0.396-0.393c0.203-0.139,0.433-0.208,0.69-0.208c0.292,0,0.526,0.072,0.704,0.215    c0.101,0.082,0.191,0.203,0.273,0.362c0.137-0.196,0.298-0.341,0.481-0.436c0.186-0.095,0.393-0.142,0.623-0.142    c0.492,0,0.826,0.178,1.004,0.533c0.096,0.191,0.145,0.449,0.145,0.772v2.437h-0.64v-2.543c0-0.244-0.061-0.411-0.183-0.502    s-0.271-0.137-0.446-0.137c-0.241,0-0.449,0.081-0.624,0.243c-0.174,0.162-0.262,0.432-0.262,0.81v2.129h-0.625v-2.389    c0-0.249-0.029-0.43-0.089-0.543c-0.094-0.171-0.268-0.256-0.522-0.256c-0.232,0-0.444,0.09-0.635,0.27s-0.285,0.506-0.285,0.978    v1.941h-0.615V43.245z"/>
		<path fill="none" stroke="#FFFFFF" stroke-width="3" stroke-miterlimit="10" d="M186.692,43.346    c0.242,0.122,0.427,0.279,0.554,0.473c0.123,0.185,0.204,0.4,0.245,0.646c0.036,0.168,0.054,0.438,0.054,0.807h-2.662    c0.012,0.373,0.099,0.671,0.261,0.896c0.163,0.225,0.415,0.337,0.757,0.337c0.318,0,0.573-0.106,0.763-0.319    c0.106-0.124,0.182-0.267,0.226-0.429h0.605c-0.016,0.134-0.069,0.284-0.159,0.449c-0.09,0.166-0.19,0.3-0.301,0.405    c-0.186,0.182-0.415,0.305-0.688,0.369c-0.147,0.037-0.313,0.055-0.499,0.055c-0.453,0-0.837-0.166-1.151-0.497    c-0.314-0.332-0.473-0.796-0.473-1.393c0-0.588,0.159-1.065,0.476-1.432c0.317-0.367,0.731-0.55,1.244-0.55    C186.2,43.163,186.45,43.224,186.692,43.346z M186.913,44.783c-0.024-0.267-0.082-0.479-0.173-0.639    c-0.167-0.296-0.446-0.444-0.837-0.444c-0.28,0-0.516,0.102-0.705,0.306c-0.189,0.204-0.29,0.463-0.302,0.778H186.913z"/>
		<path fill="none" stroke="#FFFFFF" stroke-width="3" stroke-miterlimit="10" d="M188.325,43.245h0.584v0.52    c0.174-0.214,0.357-0.368,0.551-0.461s0.409-0.14,0.646-0.14c0.52,0,0.87,0.181,1.053,0.543c0.1,0.198,0.15,0.482,0.15,0.851    v2.348h-0.626v-2.307c0-0.223-0.033-0.403-0.099-0.54c-0.109-0.228-0.309-0.342-0.596-0.342c-0.146,0-0.265,0.015-0.358,0.044    c-0.169,0.05-0.316,0.15-0.444,0.301c-0.103,0.121-0.169,0.246-0.2,0.374c-0.03,0.129-0.046,0.313-0.046,0.552v1.917h-0.615    V43.245z"/>
		<path fill="none" stroke="#FFFFFF" stroke-width="3" stroke-miterlimit="10" d="M192.341,42.223h0.622v1.022h0.585v0.502h-0.585    v2.389c0,0.127,0.043,0.213,0.13,0.256c0.048,0.025,0.128,0.038,0.239,0.038c0.029,0,0.062-0.001,0.096-0.002    s0.074-0.005,0.12-0.011v0.489c-0.071,0.021-0.145,0.035-0.221,0.044s-0.159,0.014-0.248,0.014c-0.287,0-0.482-0.074-0.584-0.22    c-0.104-0.147-0.154-0.338-0.154-0.573v-2.423h-0.496v-0.502h0.496V42.223z"/>
	</g>
	<g>
		<path fill="none" stroke="#FFFFFF" stroke-width="3" stroke-miterlimit="10" d="M197.289,13.47h3.645v0.615h-2.98v1.524h2.754    v0.581h-2.754v1.702h3.031v0.598h-3.695V13.47z"/>
		<path fill="none" stroke="#FFFFFF" stroke-width="3" stroke-miterlimit="10" d="M201.651,16.225h1.715v0.632h-1.715V16.225z"/>
		<path fill="none" stroke="#FFFFFF" stroke-width="3" stroke-miterlimit="10" d="M204.143,14.83h0.608v0.52    c0.146-0.18,0.278-0.311,0.396-0.393c0.203-0.139,0.433-0.208,0.69-0.208c0.292,0,0.526,0.072,0.704,0.215    c0.101,0.082,0.191,0.203,0.273,0.362c0.137-0.196,0.298-0.341,0.481-0.436c0.186-0.095,0.393-0.142,0.623-0.142    c0.492,0,0.826,0.178,1.004,0.533c0.096,0.191,0.145,0.449,0.145,0.772v2.437h-0.64v-2.543c0-0.244-0.061-0.411-0.183-0.502    s-0.271-0.137-0.446-0.137c-0.241,0-0.449,0.081-0.624,0.243c-0.174,0.162-0.262,0.432-0.262,0.81v2.129h-0.625v-2.389    c0-0.249-0.029-0.43-0.089-0.543c-0.094-0.171-0.268-0.256-0.522-0.256c-0.232,0-0.444,0.09-0.635,0.27s-0.285,0.506-0.285,0.978    v1.941h-0.615V14.83z"/>
		<path fill="none" stroke="#FFFFFF" stroke-width="3" stroke-miterlimit="10" d="M212.626,15.195    c0.323,0.314,0.485,0.776,0.485,1.387c0,0.589-0.143,1.077-0.428,1.461s-0.728,0.577-1.327,0.577c-0.5,0-0.897-0.17-1.191-0.511    c-0.294-0.34-0.441-0.797-0.441-1.371c0-0.615,0.155-1.104,0.466-1.468c0.31-0.364,0.726-0.546,1.249-0.546    C211.906,14.724,212.303,14.881,212.626,15.195z M212.244,17.628c0.149-0.309,0.225-0.652,0.225-1.029    c0-0.341-0.054-0.619-0.162-0.833c-0.171-0.337-0.467-0.505-0.886-0.505c-0.372,0-0.642,0.144-0.811,0.43    s-0.254,0.633-0.254,1.038c0,0.39,0.085,0.714,0.254,0.973s0.437,0.389,0.804,0.389C211.817,18.091,212.094,17.937,212.244,17.628    z"/>
		<path fill="none" stroke="#FFFFFF" stroke-width="3" stroke-miterlimit="10" d="M215.877,14.943    c0.109,0.068,0.233,0.188,0.372,0.359v-1.849h0.591v5.038h-0.554v-0.509c-0.143,0.226-0.312,0.389-0.508,0.489    c-0.194,0.1-0.418,0.15-0.67,0.15c-0.406,0-0.759-0.171-1.056-0.515c-0.298-0.343-0.446-0.799-0.446-1.369    c0-0.533,0.136-0.995,0.407-1.386c0.271-0.391,0.658-0.586,1.162-0.586C215.455,14.765,215.689,14.824,215.877,14.943z     M214.504,17.688c0.166,0.264,0.431,0.396,0.796,0.396c0.283,0,0.517-0.123,0.699-0.368c0.183-0.245,0.273-0.596,0.273-1.054    c0-0.462-0.094-0.805-0.282-1.027c-0.188-0.223-0.421-0.333-0.697-0.333c-0.309,0-0.559,0.119-0.75,0.355    s-0.287,0.585-0.287,1.046C214.256,17.095,214.339,17.423,214.504,17.688z"/>
		<path fill="none" stroke="#FFFFFF" stroke-width="3" stroke-miterlimit="10" d="M220.02,14.931    c0.242,0.122,0.427,0.279,0.554,0.473c0.123,0.185,0.204,0.4,0.245,0.646c0.036,0.168,0.054,0.438,0.054,0.807h-2.662    c0.012,0.373,0.099,0.671,0.261,0.896c0.163,0.225,0.415,0.337,0.757,0.337c0.318,0,0.573-0.106,0.763-0.319    c0.106-0.124,0.182-0.267,0.226-0.429h0.605c-0.016,0.134-0.069,0.284-0.159,0.449c-0.09,0.166-0.19,0.3-0.301,0.405    c-0.186,0.182-0.415,0.305-0.688,0.369c-0.147,0.037-0.313,0.055-0.499,0.055c-0.453,0-0.837-0.166-1.151-0.497    c-0.314-0.332-0.473-0.796-0.473-1.393c0-0.588,0.159-1.065,0.476-1.432c0.317-0.367,0.731-0.55,1.244-0.55    C219.527,14.748,219.777,14.809,220.02,14.931z M220.24,16.368c-0.024-0.267-0.082-0.479-0.173-0.639    c-0.167-0.296-0.446-0.444-0.837-0.444c-0.28,0-0.516,0.102-0.705,0.306c-0.189,0.204-0.29,0.463-0.302,0.778H220.24z"/>
		<path fill="none" stroke="#FFFFFF" stroke-width="3" stroke-miterlimit="10" d="M221.669,13.47h0.615v5.021h-0.615V13.47z"/>
	</g>
	<g>
		<path d="M73.178,155.555h0.768l1.823,5.021h-0.745l-0.524-1.504h-1.97l-0.545,1.504h-0.697L73.178,155.555z M74.306,158.519    l-0.773-2.218l-0.804,2.218H74.306z"/>
		<path d="M76.139,158.31h1.716v0.632h-1.716V158.31z"/>
		<path d="M81.049,157.11c0.259,0.201,0.415,0.546,0.467,1.036h-0.598c-0.037-0.226-0.12-0.413-0.25-0.562    c-0.13-0.149-0.338-0.224-0.625-0.224c-0.392,0-0.672,0.191-0.841,0.574c-0.109,0.248-0.164,0.554-0.164,0.918    c0,0.367,0.078,0.675,0.232,0.925s0.399,0.375,0.731,0.375c0.255,0,0.458-0.078,0.607-0.233c0.149-0.155,0.252-0.368,0.309-0.638    h0.598c-0.068,0.485-0.239,0.84-0.513,1.065c-0.273,0.224-0.623,0.336-1.049,0.336c-0.479,0-0.86-0.175-1.145-0.525    c-0.285-0.35-0.427-0.787-0.427-1.311c0-0.643,0.156-1.143,0.468-1.5s0.71-0.537,1.193-0.537    C80.455,156.81,80.791,156.91,81.049,157.11z"/>
		<path d="M84.783,157.281c0.324,0.314,0.485,0.776,0.485,1.387c0,0.589-0.143,1.077-0.428,1.461s-0.728,0.577-1.327,0.577    c-0.5,0-0.897-0.17-1.191-0.511c-0.294-0.34-0.441-0.797-0.441-1.371c0-0.615,0.155-1.104,0.465-1.468s0.727-0.546,1.249-0.546    C84.063,156.81,84.459,156.967,84.783,157.281z M84.401,159.714c0.15-0.309,0.225-0.652,0.225-1.029    c0-0.341-0.054-0.619-0.162-0.833c-0.171-0.337-0.466-0.505-0.886-0.505c-0.372,0-0.642,0.144-0.811,0.43    s-0.253,0.633-0.253,1.038c0,0.39,0.084,0.714,0.253,0.973s0.437,0.389,0.804,0.389C83.975,160.176,84.251,160.022,84.401,159.714    z"/>
		<path d="M86.041,156.916h0.584v0.632c0.048-0.123,0.165-0.273,0.352-0.449c0.187-0.177,0.402-0.265,0.646-0.265    c0.011,0,0.031,0.001,0.058,0.003s0.074,0.007,0.14,0.014v0.649c-0.037-0.007-0.07-0.011-0.101-0.014    c-0.031-0.002-0.064-0.003-0.101-0.003c-0.31,0-0.548,0.1-0.714,0.299c-0.167,0.199-0.25,0.429-0.25,0.688v2.105h-0.615V156.916z"/>
		<path d="M90.616,157.017c0.242,0.122,0.427,0.279,0.554,0.473c0.122,0.185,0.204,0.4,0.245,0.646    c0.036,0.168,0.054,0.438,0.054,0.807h-2.663c0.011,0.373,0.098,0.671,0.261,0.896c0.163,0.225,0.415,0.337,0.756,0.337    c0.318,0,0.573-0.106,0.763-0.319c0.106-0.124,0.182-0.267,0.226-0.429h0.605c-0.016,0.134-0.069,0.284-0.159,0.449    c-0.09,0.166-0.19,0.3-0.301,0.405c-0.186,0.182-0.415,0.305-0.689,0.369c-0.147,0.037-0.313,0.055-0.499,0.055    c-0.453,0-0.836-0.166-1.151-0.497c-0.315-0.332-0.472-0.796-0.472-1.393c0-0.588,0.159-1.065,0.476-1.432s0.731-0.55,1.243-0.55    C90.124,156.833,90.374,156.895,90.616,157.017z M90.836,158.454c-0.025-0.267-0.083-0.479-0.173-0.639    c-0.167-0.296-0.446-0.444-0.837-0.444c-0.28,0-0.516,0.102-0.705,0.306c-0.19,0.204-0.291,0.463-0.302,0.778H90.836z"/>
	</g>
	<g>
		<path d="M123.794,103.457h2.171c0.591,0,1.012,0.175,1.263,0.526c0.146,0.208,0.22,0.447,0.22,0.718    c0,0.317-0.09,0.577-0.27,0.779c-0.094,0.107-0.229,0.205-0.404,0.294c0.258,0.098,0.45,0.208,0.578,0.332    c0.226,0.219,0.338,0.521,0.338,0.906c0,0.324-0.102,0.616-0.306,0.878c-0.305,0.392-0.79,0.588-1.455,0.588h-2.135V103.457z     M125.71,105.579c0.29,0,0.516-0.04,0.677-0.12c0.254-0.125,0.381-0.351,0.381-0.677c0-0.328-0.135-0.549-0.404-0.663    c-0.152-0.064-0.378-0.096-0.677-0.096h-1.227v1.555H125.71z M125.941,107.896c0.421,0,0.721-0.121,0.9-0.362    c0.112-0.153,0.169-0.337,0.169-0.554c0-0.365-0.164-0.613-0.493-0.745c-0.175-0.071-0.406-0.106-0.693-0.106h-1.363v1.767    H125.941z"/>
		<path d="M128.238,106.211h1.715v0.632h-1.715V106.211z"/>
		<path d="M131.094,107.329c0.02,0.205,0.071,0.362,0.157,0.472c0.158,0.198,0.433,0.297,0.823,0.297    c0.232,0,0.438-0.049,0.614-0.149c0.177-0.099,0.265-0.252,0.265-0.459c0-0.157-0.07-0.277-0.211-0.359    c-0.091-0.05-0.27-0.108-0.535-0.174l-0.497-0.123c-0.317-0.078-0.551-0.164-0.701-0.26c-0.269-0.167-0.403-0.396-0.403-0.69    c0-0.346,0.126-0.626,0.379-0.841s0.593-0.321,1.021-0.321c0.559,0,0.962,0.162,1.209,0.485c0.154,0.205,0.229,0.426,0.226,0.663    h-0.582c-0.011-0.138-0.062-0.264-0.15-0.377c-0.145-0.161-0.395-0.241-0.752-0.241c-0.238,0-0.418,0.044-0.54,0.133    c-0.123,0.088-0.185,0.206-0.185,0.351c0,0.159,0.081,0.286,0.242,0.382c0.093,0.057,0.229,0.106,0.41,0.15l0.415,0.099    c0.45,0.107,0.752,0.211,0.905,0.311c0.239,0.157,0.359,0.404,0.359,0.742c0,0.326-0.126,0.607-0.376,0.844    s-0.632,0.355-1.144,0.355c-0.552,0-0.942-0.124-1.172-0.371c-0.229-0.248-0.352-0.553-0.368-0.918H131.094z"/>
		<path d="M134.844,104.817v2.43c0,0.187,0.029,0.339,0.087,0.458c0.106,0.219,0.305,0.328,0.596,0.328    c0.417,0,0.701-0.191,0.852-0.574c0.082-0.205,0.124-0.486,0.124-0.844v-1.798h0.615v3.661h-0.582l0.008-0.54    c-0.079,0.139-0.176,0.256-0.292,0.352c-0.23,0.191-0.51,0.287-0.839,0.287c-0.512,0-0.86-0.174-1.046-0.523    c-0.101-0.187-0.151-0.437-0.151-0.749v-2.488H134.844z"/>
		<path d="M138.139,104.817h0.584v0.632c0.048-0.123,0.165-0.273,0.352-0.449c0.188-0.177,0.402-0.265,0.646-0.265    c0.012,0,0.031,0.001,0.059,0.003s0.073,0.007,0.14,0.014v0.649c-0.036-0.007-0.07-0.011-0.101-0.014    c-0.031-0.002-0.064-0.003-0.102-0.003c-0.31,0-0.548,0.1-0.714,0.299c-0.166,0.199-0.249,0.429-0.249,0.688v2.105h-0.615V104.817    z"/>
		<path d="M140.755,104.817l0.978,2.98l1.019-2.98h0.673l-1.378,3.661h-0.655l-1.351-3.661H140.755z"/>
		<path d="M146.214,104.918c0.242,0.122,0.427,0.279,0.554,0.473c0.123,0.185,0.204,0.4,0.245,0.646    c0.036,0.168,0.054,0.438,0.054,0.807h-2.662c0.012,0.373,0.099,0.671,0.261,0.896c0.163,0.225,0.415,0.337,0.757,0.337    c0.318,0,0.573-0.106,0.763-0.319c0.106-0.124,0.182-0.267,0.226-0.429h0.605c-0.016,0.134-0.069,0.284-0.159,0.449    c-0.09,0.166-0.19,0.3-0.301,0.405c-0.186,0.182-0.415,0.305-0.688,0.369c-0.147,0.037-0.313,0.055-0.499,0.055    c-0.453,0-0.837-0.166-1.151-0.497c-0.314-0.332-0.473-0.796-0.473-1.393c0-0.588,0.159-1.065,0.476-1.432    c0.317-0.367,0.731-0.55,1.244-0.55C145.722,104.735,145.972,104.796,146.214,104.918z M146.435,106.355    c-0.024-0.267-0.082-0.479-0.173-0.639c-0.167-0.296-0.446-0.444-0.837-0.444c-0.28,0-0.516,0.102-0.705,0.306    c-0.189,0.204-0.29,0.463-0.302,0.778H146.435z"/>
		<path d="M150.135,104.817h0.681c-0.087,0.235-0.279,0.771-0.578,1.607c-0.223,0.629-0.41,1.142-0.561,1.539    c-0.354,0.934-0.605,1.503-0.751,1.708c-0.146,0.205-0.396,0.308-0.751,0.308c-0.087,0-0.153-0.003-0.2-0.01    s-0.104-0.02-0.173-0.038v-0.561c0.107,0.03,0.185,0.048,0.232,0.055s0.09,0.01,0.126,0.01c0.114,0,0.197-0.019,0.251-0.056    s0.099-0.083,0.135-0.138c0.012-0.019,0.053-0.111,0.123-0.28s0.122-0.293,0.153-0.375l-1.354-3.768h0.697l0.981,2.982    L150.135,104.817z"/>
	</g>
	<g>
		<path d="M132.098,20.941c0.348,0.335,0.54,0.715,0.578,1.142h-0.663c-0.074-0.324-0.221-0.58-0.441-0.769s-0.53-0.284-0.928-0.284    c-0.486,0-0.878,0.174-1.177,0.521c-0.299,0.348-0.448,0.881-0.448,1.6c0,0.588,0.135,1.065,0.404,1.432    c0.27,0.366,0.673,0.549,1.207,0.549c0.493,0,0.868-0.192,1.125-0.578c0.137-0.203,0.238-0.469,0.306-0.8h0.663    c-0.059,0.529-0.252,0.972-0.581,1.33c-0.395,0.431-0.926,0.646-1.595,0.646c-0.577,0-1.061-0.177-1.453-0.53    c-0.516-0.467-0.773-1.189-0.773-2.165c0-0.741,0.193-1.349,0.581-1.823c0.419-0.515,0.996-0.773,1.733-0.773    C131.264,20.438,131.751,20.606,132.098,20.941z"/>
		<path d="M133.36,23.33h1.715v0.632h-1.715V23.33z"/>
		<path d="M136.07,22.13v-0.472c0.444-0.043,0.754-0.116,0.93-0.217c0.176-0.102,0.307-0.341,0.393-0.72h0.486v4.874h-0.656V22.13    H136.07z"/>
		<path d="M139.774,24.496c0.151-0.312,0.447-0.596,0.887-0.851l0.657-0.379c0.294-0.171,0.5-0.317,0.619-0.438    c0.187-0.189,0.279-0.406,0.279-0.65c0-0.286-0.085-0.512-0.256-0.68c-0.171-0.167-0.398-0.251-0.684-0.251    c-0.422,0-0.713,0.16-0.875,0.48c-0.087,0.171-0.135,0.409-0.144,0.713h-0.626c0.008-0.426,0.086-0.773,0.236-1.042    c0.267-0.474,0.737-0.711,1.413-0.711c0.561,0,0.97,0.151,1.229,0.455s0.388,0.64,0.388,1.012c0,0.392-0.138,0.727-0.413,1.005    c-0.16,0.162-0.446,0.358-0.858,0.588l-0.468,0.26c-0.224,0.123-0.399,0.24-0.527,0.352c-0.228,0.198-0.371,0.418-0.43,0.66h2.672    v0.581h-3.36C139.535,25.175,139.623,24.808,139.774,24.496z"/>
		<path d="M145.948,24.448c0.02,0.205,0.071,0.362,0.157,0.472c0.158,0.198,0.433,0.297,0.823,0.297    c0.232,0,0.438-0.049,0.614-0.149c0.177-0.099,0.265-0.252,0.265-0.459c0-0.157-0.07-0.277-0.211-0.359    c-0.091-0.05-0.27-0.108-0.535-0.174l-0.497-0.123c-0.317-0.078-0.551-0.164-0.701-0.26c-0.269-0.167-0.403-0.396-0.403-0.69    c0-0.346,0.126-0.626,0.379-0.841s0.593-0.321,1.021-0.321c0.559,0,0.962,0.162,1.209,0.485c0.154,0.205,0.229,0.426,0.226,0.663    h-0.582c-0.011-0.138-0.062-0.264-0.15-0.377c-0.145-0.161-0.395-0.241-0.752-0.241c-0.238,0-0.418,0.044-0.54,0.133    c-0.123,0.088-0.185,0.206-0.185,0.351c0,0.159,0.081,0.286,0.242,0.382c0.093,0.057,0.229,0.106,0.41,0.15l0.415,0.099    c0.45,0.107,0.752,0.211,0.905,0.311c0.239,0.157,0.359,0.404,0.359,0.742c0,0.326-0.126,0.607-0.376,0.844    s-0.632,0.355-1.144,0.355c-0.552,0-0.942-0.124-1.172-0.371c-0.229-0.248-0.352-0.553-0.368-0.918H145.948z"/>
		<path d="M149.698,21.936v2.43c0,0.187,0.029,0.339,0.087,0.458c0.106,0.219,0.305,0.328,0.596,0.328    c0.417,0,0.701-0.191,0.852-0.574c0.082-0.205,0.124-0.486,0.124-0.844v-1.798h0.615v3.661h-0.582l0.008-0.54    c-0.079,0.139-0.176,0.256-0.292,0.352c-0.23,0.191-0.51,0.287-0.839,0.287c-0.512,0-0.86-0.174-1.046-0.523    c-0.101-0.187-0.151-0.437-0.151-0.749v-2.488H149.698z"/>
		<path d="M152.993,21.936h0.584v0.632c0.048-0.123,0.165-0.273,0.352-0.449c0.188-0.177,0.402-0.265,0.646-0.265    c0.012,0,0.031,0.001,0.059,0.003s0.073,0.007,0.14,0.014v0.649c-0.036-0.007-0.07-0.011-0.101-0.014    c-0.031-0.002-0.064-0.003-0.102-0.003c-0.31,0-0.548,0.1-0.714,0.299c-0.166,0.199-0.249,0.429-0.249,0.688v2.105h-0.615V21.936z    "/>
		<path d="M155.609,21.936l0.978,2.98l1.019-2.98h0.673l-1.378,3.661h-0.655l-1.351-3.661H155.609z"/>
		<path d="M161.067,22.037c0.242,0.122,0.427,0.279,0.554,0.473c0.123,0.185,0.204,0.4,0.245,0.646    c0.036,0.168,0.054,0.438,0.054,0.807h-2.662c0.012,0.373,0.099,0.671,0.261,0.896c0.163,0.225,0.415,0.337,0.757,0.337    c0.318,0,0.573-0.106,0.763-0.319c0.106-0.124,0.182-0.267,0.226-0.429h0.605c-0.016,0.134-0.069,0.284-0.159,0.449    c-0.09,0.166-0.19,0.3-0.301,0.405c-0.186,0.182-0.415,0.305-0.688,0.369c-0.147,0.037-0.313,0.055-0.499,0.055    c-0.453,0-0.837-0.166-1.151-0.497c-0.314-0.332-0.473-0.796-0.473-1.393c0-0.588,0.159-1.065,0.476-1.432    c0.317-0.367,0.731-0.55,1.244-0.55C160.575,21.854,160.825,21.915,161.067,22.037z M161.288,23.474    c-0.024-0.267-0.082-0.479-0.173-0.639c-0.167-0.296-0.446-0.444-0.837-0.444c-0.28,0-0.516,0.102-0.705,0.306    c-0.189,0.204-0.29,0.463-0.302,0.778H161.288z"/>
		<path d="M164.988,21.936h0.681c-0.087,0.235-0.279,0.771-0.578,1.607c-0.223,0.629-0.41,1.142-0.561,1.539    c-0.354,0.934-0.605,1.503-0.751,1.708c-0.146,0.205-0.396,0.308-0.751,0.308c-0.087,0-0.153-0.003-0.2-0.01    s-0.104-0.02-0.173-0.038v-0.561c0.107,0.03,0.185,0.048,0.232,0.055s0.09,0.01,0.126,0.01c0.114,0,0.197-0.019,0.251-0.056    s0.099-0.083,0.135-0.138c0.012-0.019,0.053-0.111,0.123-0.28s0.122-0.293,0.153-0.375l-1.354-3.768h0.697l0.981,2.982    L164.988,21.936z"/>
		<path d="M166.565,24.448c0.02,0.205,0.071,0.362,0.157,0.472c0.158,0.198,0.433,0.297,0.823,0.297    c0.232,0,0.438-0.049,0.614-0.149c0.177-0.099,0.265-0.252,0.265-0.459c0-0.157-0.07-0.277-0.211-0.359    c-0.091-0.05-0.27-0.108-0.535-0.174l-0.497-0.123c-0.317-0.078-0.551-0.164-0.701-0.26c-0.269-0.167-0.403-0.396-0.403-0.69    c0-0.346,0.126-0.626,0.379-0.841s0.593-0.321,1.021-0.321c0.559,0,0.962,0.162,1.209,0.485c0.154,0.205,0.229,0.426,0.226,0.663    h-0.582c-0.011-0.138-0.062-0.264-0.15-0.377c-0.145-0.161-0.395-0.241-0.752-0.241c-0.238,0-0.418,0.044-0.54,0.133    c-0.123,0.088-0.185,0.206-0.185,0.351c0,0.159,0.081,0.286,0.242,0.382c0.093,0.057,0.229,0.106,0.41,0.15l0.415,0.099    c0.45,0.107,0.752,0.211,0.905,0.311c0.239,0.157,0.359,0.404,0.359,0.742c0,0.326-0.126,0.607-0.376,0.844    s-0.632,0.355-1.144,0.355c-0.552,0-0.942-0.124-1.172-0.371c-0.229-0.248-0.352-0.553-0.368-0.918H166.565z"/>
	</g>
	<g>
		<path d="M152.263,41.884h2.007c0.681,0,1.209,0.245,1.585,0.735c0.335,0.442,0.502,1.008,0.502,1.699    c0,0.533-0.099,1.015-0.296,1.446c-0.349,0.761-0.948,1.142-1.798,1.142h-2V41.884z M154.136,46.324    c0.225,0,0.41-0.024,0.555-0.072c0.259-0.089,0.47-0.26,0.635-0.513c0.132-0.203,0.227-0.462,0.284-0.779    c0.033-0.189,0.05-0.365,0.05-0.526c0-0.622-0.12-1.105-0.362-1.449c-0.241-0.344-0.631-0.516-1.168-0.516h-1.18v3.855H154.136z"/>
		<path d="M157.044,44.639h1.715v0.632h-1.715V44.639z"/>
		<path d="M161.796,43.346c0.242,0.122,0.427,0.279,0.554,0.473c0.123,0.185,0.204,0.4,0.245,0.646    c0.036,0.168,0.054,0.438,0.054,0.807h-2.662c0.012,0.373,0.099,0.671,0.261,0.896c0.163,0.225,0.415,0.337,0.757,0.337    c0.318,0,0.573-0.106,0.763-0.319c0.106-0.124,0.182-0.267,0.226-0.429h0.605c-0.016,0.134-0.069,0.284-0.159,0.449    c-0.09,0.166-0.19,0.3-0.301,0.405c-0.186,0.182-0.415,0.305-0.688,0.369c-0.147,0.037-0.313,0.055-0.499,0.055    c-0.453,0-0.837-0.166-1.151-0.497c-0.314-0.332-0.473-0.796-0.473-1.393c0-0.588,0.159-1.065,0.476-1.432    c0.317-0.367,0.731-0.55,1.244-0.55C161.304,43.163,161.554,43.224,161.796,43.346z M162.017,44.783    c-0.024-0.267-0.082-0.479-0.173-0.639c-0.167-0.296-0.446-0.444-0.837-0.444c-0.28,0-0.516,0.102-0.705,0.306    c-0.189,0.204-0.29,0.463-0.302,0.778H162.017z"/>
		<path d="M163.08,43.245h0.796l0.842,1.289l0.851-1.289l0.749,0.017l-1.234,1.767l1.289,1.876h-0.787l-0.908-1.374l-0.883,1.374    h-0.779l1.289-1.876L163.08,43.245z"/>
		<path d="M166.878,43.262h0.602v0.485c0.123-0.167,0.258-0.295,0.404-0.386c0.207-0.137,0.452-0.205,0.733-0.205    c0.415,0,0.769,0.159,1.059,0.477c0.29,0.317,0.435,0.771,0.435,1.362c0,0.797-0.209,1.367-0.628,1.709    c-0.265,0.216-0.574,0.325-0.926,0.325c-0.277,0-0.509-0.061-0.697-0.181c-0.109-0.068-0.231-0.186-0.366-0.352v1.87h-0.615    V43.262z M169.192,46.131c0.19-0.24,0.286-0.6,0.286-1.078c0-0.292-0.042-0.542-0.127-0.752c-0.16-0.403-0.453-0.605-0.878-0.605    c-0.428,0-0.721,0.213-0.878,0.639c-0.085,0.228-0.127,0.517-0.127,0.868c0,0.283,0.042,0.523,0.127,0.721    c0.16,0.378,0.452,0.567,0.878,0.567C168.762,46.492,169.001,46.372,169.192,46.131z"/>
		<path d="M173.082,43.346c0.242,0.122,0.427,0.279,0.554,0.473c0.123,0.185,0.204,0.4,0.245,0.646    c0.036,0.168,0.054,0.438,0.054,0.807h-2.662c0.012,0.373,0.099,0.671,0.261,0.896c0.163,0.225,0.415,0.337,0.757,0.337    c0.318,0,0.573-0.106,0.763-0.319c0.106-0.124,0.182-0.267,0.226-0.429h0.605c-0.016,0.134-0.069,0.284-0.159,0.449    c-0.09,0.166-0.19,0.3-0.301,0.405c-0.186,0.182-0.415,0.305-0.688,0.369c-0.147,0.037-0.313,0.055-0.499,0.055    c-0.453,0-0.837-0.166-1.151-0.497c-0.314-0.332-0.473-0.796-0.473-1.393c0-0.588,0.159-1.065,0.476-1.432    c0.317-0.367,0.731-0.55,1.244-0.55C172.59,43.163,172.84,43.224,173.082,43.346z M173.303,44.783    c-0.024-0.267-0.082-0.479-0.173-0.639c-0.167-0.296-0.446-0.444-0.837-0.444c-0.28,0-0.516,0.102-0.705,0.306    c-0.189,0.204-0.29,0.463-0.302,0.778H173.303z"/>
		<path d="M174.731,43.245h0.584v0.632c0.048-0.123,0.165-0.273,0.352-0.449c0.188-0.177,0.402-0.265,0.646-0.265    c0.012,0,0.031,0.001,0.059,0.003s0.073,0.007,0.14,0.014v0.649c-0.036-0.007-0.07-0.011-0.101-0.014    c-0.031-0.002-0.064-0.003-0.102-0.003c-0.31,0-0.548,0.1-0.714,0.299c-0.166,0.199-0.249,0.429-0.249,0.688v2.105h-0.615V43.245z    "/>
		<path d="M177.045,41.884h0.625v0.697h-0.625V41.884z M177.045,43.262h0.625v3.644h-0.625V43.262z"/>
		<path d="M178.601,43.245h0.608v0.52c0.146-0.18,0.278-0.311,0.396-0.393c0.203-0.139,0.433-0.208,0.69-0.208    c0.292,0,0.526,0.072,0.704,0.215c0.101,0.082,0.191,0.203,0.273,0.362c0.137-0.196,0.298-0.341,0.481-0.436    c0.186-0.095,0.393-0.142,0.623-0.142c0.492,0,0.826,0.178,1.004,0.533c0.096,0.191,0.145,0.449,0.145,0.772v2.437h-0.64v-2.543    c0-0.244-0.061-0.411-0.183-0.502s-0.271-0.137-0.446-0.137c-0.241,0-0.449,0.081-0.624,0.243    c-0.174,0.162-0.262,0.432-0.262,0.81v2.129h-0.625v-2.389c0-0.249-0.029-0.43-0.089-0.543c-0.094-0.171-0.268-0.256-0.522-0.256    c-0.232,0-0.444,0.09-0.635,0.27s-0.285,0.506-0.285,0.978v1.941h-0.615V43.245z"/>
		<path d="M186.692,43.346c0.242,0.122,0.427,0.279,0.554,0.473c0.123,0.185,0.204,0.4,0.245,0.646    c0.036,0.168,0.054,0.438,0.054,0.807h-2.662c0.012,0.373,0.099,0.671,0.261,0.896c0.163,0.225,0.415,0.337,0.757,0.337    c0.318,0,0.573-0.106,0.763-0.319c0.106-0.124,0.182-0.267,0.226-0.429h0.605c-0.016,0.134-0.069,0.284-0.159,0.449    c-0.09,0.166-0.19,0.3-0.301,0.405c-0.186,0.182-0.415,0.305-0.688,0.369c-0.147,0.037-0.313,0.055-0.499,0.055    c-0.453,0-0.837-0.166-1.151-0.497c-0.314-0.332-0.473-0.796-0.473-1.393c0-0.588,0.159-1.065,0.476-1.432    c0.317-0.367,0.731-0.55,1.244-0.55C186.2,43.163,186.45,43.224,186.692,43.346z M186.913,44.783    c-0.024-0.267-0.082-0.479-0.173-0.639c-0.167-0.296-0.446-0.444-0.837-0.444c-0.28,0-0.516,0.102-0.705,0.306    c-0.189,0.204-0.29,0.463-0.302,0.778H186.913z"/>
		<path d="M188.325,43.245h0.584v0.52c0.174-0.214,0.357-0.368,0.551-0.461s0.409-0.14,0.646-0.14c0.52,0,0.87,0.181,1.053,0.543    c0.1,0.198,0.15,0.482,0.15,0.851v2.348h-0.626v-2.307c0-0.223-0.033-0.403-0.099-0.54c-0.109-0.228-0.309-0.342-0.596-0.342    c-0.146,0-0.265,0.015-0.358,0.044c-0.169,0.05-0.316,0.15-0.444,0.301c-0.103,0.121-0.169,0.246-0.2,0.374    c-0.03,0.129-0.046,0.313-0.046,0.552v1.917h-0.615V43.245z"/>
		<path d="M192.341,42.223h0.622v1.022h0.585v0.502h-0.585v2.389c0,0.127,0.043,0.213,0.13,0.256    c0.048,0.025,0.128,0.038,0.239,0.038c0.029,0,0.062-0.001,0.096-0.002s0.074-0.005,0.12-0.011v0.489    c-0.071,0.021-0.145,0.035-0.221,0.044s-0.159,0.014-0.248,0.014c-0.287,0-0.482-0.074-0.584-0.22    c-0.104-0.147-0.154-0.338-0.154-0.573v-2.423h-0.496v-0.502h0.496V42.223z"/>
	</g>
	<g>
		<path d="M197.289,13.47h3.645v0.615h-2.98v1.524h2.754v0.581h-2.754v1.702h3.031v0.598h-3.695V13.47z"/>
		<path d="M201.651,16.225h1.715v0.632h-1.715V16.225z"/>
		<path d="M204.143,14.83h0.608v0.52c0.146-0.18,0.278-0.311,0.396-0.393c0.203-0.139,0.433-0.208,0.69-0.208    c0.292,0,0.526,0.072,0.704,0.215c0.101,0.082,0.191,0.203,0.273,0.362c0.137-0.196,0.298-0.341,0.481-0.436    c0.186-0.095,0.393-0.142,0.623-0.142c0.492,0,0.826,0.178,1.004,0.533c0.096,0.191,0.145,0.449,0.145,0.772v2.437h-0.64v-2.543    c0-0.244-0.061-0.411-0.183-0.502s-0.271-0.137-0.446-0.137c-0.241,0-0.449,0.081-0.624,0.243    c-0.174,0.162-0.262,0.432-0.262,0.81v2.129h-0.625v-2.389c0-0.249-0.029-0.43-0.089-0.543c-0.094-0.171-0.268-0.256-0.522-0.256    c-0.232,0-0.444,0.09-0.635,0.27s-0.285,0.506-0.285,0.978v1.941h-0.615V14.83z"/>
		<path d="M212.626,15.195c0.323,0.314,0.485,0.776,0.485,1.387c0,0.589-0.143,1.077-0.428,1.461s-0.728,0.577-1.327,0.577    c-0.5,0-0.897-0.17-1.191-0.511c-0.294-0.34-0.441-0.797-0.441-1.371c0-0.615,0.155-1.104,0.466-1.468    c0.31-0.364,0.726-0.546,1.249-0.546C211.906,14.724,212.303,14.881,212.626,15.195z M212.244,17.628    c0.149-0.309,0.225-0.652,0.225-1.029c0-0.341-0.054-0.619-0.162-0.833c-0.171-0.337-0.467-0.505-0.886-0.505    c-0.372,0-0.642,0.144-0.811,0.43s-0.254,0.633-0.254,1.038c0,0.39,0.085,0.714,0.254,0.973s0.437,0.389,0.804,0.389    C211.817,18.091,212.094,17.937,212.244,17.628z"/>
		<path d="M215.877,14.943c0.109,0.068,0.233,0.188,0.372,0.359v-1.849h0.591v5.038h-0.554v-0.509    c-0.143,0.226-0.312,0.389-0.508,0.489c-0.194,0.1-0.418,0.15-0.67,0.15c-0.406,0-0.759-0.171-1.056-0.515    c-0.298-0.343-0.446-0.799-0.446-1.369c0-0.533,0.136-0.995,0.407-1.386c0.271-0.391,0.658-0.586,1.162-0.586    C215.455,14.765,215.689,14.824,215.877,14.943z M214.504,17.688c0.166,0.264,0.431,0.396,0.796,0.396    c0.283,0,0.517-0.123,0.699-0.368c0.183-0.245,0.273-0.596,0.273-1.054c0-0.462-0.094-0.805-0.282-1.027    c-0.188-0.223-0.421-0.333-0.697-0.333c-0.309,0-0.559,0.119-0.75,0.355s-0.287,0.585-0.287,1.046    C214.256,17.095,214.339,17.423,214.504,17.688z"/>
		<path d="M220.02,14.931c0.242,0.122,0.427,0.279,0.554,0.473c0.123,0.185,0.204,0.4,0.245,0.646    c0.036,0.168,0.054,0.438,0.054,0.807h-2.662c0.012,0.373,0.099,0.671,0.261,0.896c0.163,0.225,0.415,0.337,0.757,0.337    c0.318,0,0.573-0.106,0.763-0.319c0.106-0.124,0.182-0.267,0.226-0.429h0.605c-0.016,0.134-0.069,0.284-0.159,0.449    c-0.09,0.166-0.19,0.3-0.301,0.405c-0.186,0.182-0.415,0.305-0.688,0.369c-0.147,0.037-0.313,0.055-0.499,0.055    c-0.453,0-0.837-0.166-1.151-0.497c-0.314-0.332-0.473-0.796-0.473-1.393c0-0.588,0.159-1.065,0.476-1.432    c0.317-0.367,0.731-0.55,1.244-0.55C219.527,14.748,219.777,14.809,220.02,14.931z M220.24,16.368    c-0.024-0.267-0.082-0.479-0.173-0.639c-0.167-0.296-0.446-0.444-0.837-0.444c-0.28,0-0.516,0.102-0.705,0.306    c-0.189,0.204-0.29,0.463-0.302,0.778H220.24z"/>
		<path d="M221.669,13.47h0.615v5.021h-0.615V13.47z"/>
	</g>
	<g>
		<rect x="39.924" y="0.5" fill="none" stroke="#000000" stroke-miterlimit="8" width="196.543" height="165.759"/>
	</g>
</g>
</svg>