<svg xmlns="http://www.w3.org/2000/svg" xmlns:xlink="http://www.w3.org/1999/xlink" version="1.1" x="0px" y="0px" width="254.603px" height="282.705px" viewBox="0 0 254.603 282.705" enable-background="new 0 0 254.603 282.705" xml:space="preserve">
<g id="guides">
	<g id="_x34_2p_max_height">
	</g>
	<g id="_x33_0p_max_width" display="none">
	</g>
	<g id="_x32_6p_text_width">
	</g>
</g>
<g id="illustrator_art">
	<g>
		<g>
			<path d="M1.798,1.481h1.191l1.782,5.038H3.63L3.298,5.483H1.442L1.101,6.519H0L1.798,1.481z M1.729,4.615h1.29L2.383,2.633     L1.729,4.615z"/>
		</g>
		<g>
			<path d="M53.342,11.64h0.602v0.485c0.124-0.167,0.258-0.295,0.404-0.386c0.208-0.137,0.452-0.205,0.733-0.205     c0.416,0,0.769,0.159,1.059,0.477c0.29,0.317,0.435,0.771,0.435,1.362c0,0.797-0.209,1.367-0.628,1.709     c-0.266,0.216-0.574,0.325-0.926,0.325c-0.277,0-0.509-0.061-0.697-0.181c-0.11-0.068-0.232-0.186-0.367-0.352v1.87h-0.615V11.64     z M55.657,14.509c0.19-0.24,0.286-0.6,0.286-1.078c0-0.292-0.042-0.542-0.127-0.752c-0.16-0.403-0.453-0.605-0.878-0.605     c-0.428,0-0.72,0.213-0.878,0.639c-0.084,0.228-0.127,0.517-0.127,0.868c0,0.283,0.042,0.523,0.127,0.721     c0.16,0.378,0.453,0.567,0.878,0.567C55.227,14.87,55.466,14.75,55.657,14.509z"/>
			<path d="M57.304,11.623h0.584v0.632c0.048-0.123,0.165-0.273,0.352-0.449c0.187-0.177,0.402-0.265,0.646-0.265     c0.011,0,0.031,0.001,0.058,0.003s0.074,0.007,0.14,0.014v0.649c-0.037-0.007-0.07-0.011-0.101-0.014     c-0.031-0.002-0.064-0.003-0.101-0.003c-0.31,0-0.548,0.1-0.714,0.299c-0.167,0.199-0.25,0.429-0.25,0.688v2.105h-0.615V11.623z"/>
			<path d="M61.879,11.724c0.242,0.122,0.427,0.279,0.554,0.473c0.122,0.185,0.204,0.4,0.245,0.646     c0.036,0.168,0.054,0.438,0.054,0.807h-2.663c0.011,0.373,0.098,0.671,0.261,0.896c0.163,0.225,0.415,0.337,0.756,0.337     c0.318,0,0.573-0.106,0.763-0.319c0.106-0.124,0.182-0.267,0.226-0.429h0.605c-0.016,0.134-0.069,0.284-0.159,0.449     c-0.09,0.166-0.19,0.3-0.301,0.405c-0.186,0.182-0.415,0.305-0.689,0.369c-0.147,0.037-0.313,0.055-0.499,0.055     c-0.453,0-0.836-0.166-1.151-0.497c-0.315-0.332-0.472-0.796-0.472-1.393c0-0.588,0.159-1.065,0.476-1.432s0.731-0.55,1.243-0.55     C61.386,11.541,61.636,11.602,61.879,11.724z M62.099,13.161c-0.025-0.267-0.083-0.479-0.173-0.639     c-0.167-0.296-0.446-0.444-0.837-0.444c-0.28,0-0.516,0.102-0.705,0.306c-0.19,0.204-0.291,0.463-0.302,0.778H62.099z"/>
			<path d="M65.522,11.736c0.109,0.068,0.232,0.188,0.371,0.359v-1.849h0.591v5.038h-0.554v-0.509     c-0.143,0.226-0.312,0.389-0.507,0.489s-0.419,0.15-0.671,0.15c-0.406,0-0.758-0.171-1.055-0.515     c-0.298-0.343-0.446-0.799-0.446-1.369c0-0.533,0.136-0.995,0.407-1.386c0.271-0.391,0.659-0.586,1.163-0.586     C65.1,11.558,65.333,11.617,65.522,11.736z M64.148,14.48c0.166,0.264,0.431,0.396,0.796,0.396c0.284,0,0.517-0.123,0.699-0.368     c0.183-0.245,0.274-0.596,0.274-1.054c0-0.462-0.094-0.805-0.282-1.027c-0.188-0.223-0.42-0.333-0.697-0.333     c-0.308,0-0.558,0.119-0.75,0.355c-0.191,0.237-0.287,0.585-0.287,1.046C63.9,13.888,63.983,14.216,64.148,14.48z"/>
			<path d="M69.366,13.068c0.141-0.018,0.236-0.077,0.284-0.177c0.027-0.055,0.041-0.134,0.041-0.237     c0-0.21-0.075-0.363-0.224-0.458c-0.149-0.095-0.362-0.143-0.639-0.143c-0.321,0-0.548,0.087-0.683,0.261     c-0.075,0.096-0.124,0.239-0.146,0.429h-0.574c0.011-0.453,0.158-0.767,0.438-0.944c0.281-0.177,0.607-0.266,0.979-0.266     c0.43,0,0.779,0.082,1.048,0.246c0.266,0.164,0.399,0.419,0.399,0.766v2.109c0,0.064,0.013,0.115,0.039,0.154     c0.026,0.039,0.082,0.058,0.166,0.058c0.027,0,0.058-0.002,0.092-0.005c0.034-0.004,0.071-0.009,0.109-0.016v0.455     c-0.096,0.027-0.168,0.044-0.219,0.051s-0.119,0.01-0.205,0.01c-0.212,0-0.366-0.075-0.461-0.226     c-0.05-0.08-0.085-0.192-0.106-0.338c-0.125,0.164-0.305,0.307-0.54,0.427s-0.493,0.181-0.776,0.181     c-0.339,0-0.617-0.103-0.832-0.309c-0.216-0.206-0.323-0.463-0.323-0.773c0-0.339,0.106-0.602,0.318-0.789     s0.49-0.302,0.834-0.345L69.366,13.068z M68.07,14.73c0.13,0.102,0.284,0.153,0.461,0.153c0.216,0,0.426-0.05,0.629-0.15     c0.342-0.167,0.513-0.438,0.513-0.816v-0.495c-0.075,0.048-0.172,0.088-0.29,0.12c-0.118,0.032-0.234,0.055-0.348,0.068     l-0.372,0.048c-0.223,0.029-0.39,0.076-0.503,0.14c-0.19,0.107-0.285,0.277-0.285,0.512C67.875,14.488,67.94,14.628,68.07,14.73z     "/>
			<path d="M71.42,10.601h0.622v1.022h0.584v0.502h-0.584v2.389c0,0.127,0.043,0.213,0.13,0.256     c0.048,0.025,0.127,0.038,0.239,0.038c0.03,0,0.062-0.001,0.096-0.002s0.074-0.005,0.12-0.011v0.489     c-0.071,0.021-0.144,0.035-0.22,0.044c-0.077,0.009-0.159,0.014-0.248,0.014c-0.287,0-0.482-0.074-0.584-0.22     c-0.103-0.147-0.154-0.338-0.154-0.573v-2.423h-0.496v-0.502h0.496V10.601z"/>
			<path d="M75.894,11.988c0.324,0.314,0.485,0.776,0.485,1.387c0,0.589-0.143,1.077-0.428,1.461s-0.728,0.577-1.327,0.577     c-0.5,0-0.897-0.17-1.191-0.511c-0.294-0.34-0.441-0.797-0.441-1.371c0-0.615,0.155-1.104,0.465-1.468s0.727-0.546,1.249-0.546     C75.174,11.517,75.57,11.674,75.894,11.988z M75.512,14.421c0.15-0.309,0.225-0.652,0.225-1.029c0-0.341-0.054-0.619-0.162-0.833     c-0.171-0.337-0.466-0.505-0.886-0.505c-0.372,0-0.642,0.144-0.811,0.43s-0.253,0.633-0.253,1.038     c0,0.39,0.084,0.714,0.253,0.973s0.437,0.389,0.804,0.389C75.085,14.884,75.362,14.729,75.512,14.421z"/>
			<path d="M77.152,11.623h0.584v0.632c0.048-0.123,0.165-0.273,0.352-0.449c0.187-0.177,0.402-0.265,0.646-0.265     c0.011,0,0.031,0.001,0.058,0.003s0.074,0.007,0.14,0.014v0.649c-0.037-0.007-0.07-0.011-0.101-0.014     c-0.031-0.002-0.064-0.003-0.101-0.003c-0.31,0-0.548,0.1-0.714,0.299c-0.167,0.199-0.25,0.429-0.25,0.688v2.105h-0.615V11.623z"/>
			<path d="M79.832,14.135c0.019,0.205,0.071,0.362,0.157,0.472c0.158,0.198,0.433,0.297,0.824,0.297     c0.232,0,0.437-0.049,0.614-0.149c0.177-0.099,0.265-0.252,0.265-0.459c0-0.157-0.071-0.277-0.212-0.359     c-0.09-0.05-0.269-0.108-0.535-0.174l-0.497-0.123c-0.317-0.078-0.551-0.164-0.702-0.26c-0.269-0.167-0.403-0.396-0.403-0.69     c0-0.346,0.126-0.626,0.379-0.841s0.593-0.321,1.02-0.321c0.559,0,0.962,0.162,1.209,0.485c0.155,0.205,0.229,0.426,0.225,0.663     h-0.581c-0.012-0.138-0.062-0.264-0.15-0.377c-0.145-0.161-0.396-0.241-0.752-0.241c-0.238,0-0.418,0.044-0.541,0.133     s-0.184,0.206-0.184,0.351c0,0.159,0.081,0.286,0.241,0.382c0.093,0.057,0.23,0.106,0.411,0.15l0.415,0.099     c0.45,0.107,0.752,0.211,0.905,0.311c0.239,0.157,0.359,0.404,0.359,0.742c0,0.326-0.125,0.607-0.375,0.844     s-0.631,0.355-1.144,0.355c-0.551,0-0.942-0.124-1.171-0.371c-0.229-0.248-0.353-0.553-0.369-0.918H79.832z"/>
		</g>
		<g>
			<path d="M175.81,11.623h0.585v0.52c0.173-0.214,0.356-0.368,0.55-0.461c0.194-0.093,0.409-0.14,0.646-0.14     c0.52,0,0.87,0.181,1.053,0.543c0.1,0.198,0.15,0.482,0.15,0.851v2.348h-0.626v-2.307c0-0.223-0.033-0.403-0.099-0.54     c-0.109-0.228-0.308-0.342-0.595-0.342c-0.146,0-0.266,0.015-0.359,0.044c-0.168,0.05-0.316,0.15-0.444,0.301     c-0.103,0.121-0.169,0.246-0.2,0.374c-0.03,0.129-0.046,0.313-0.046,0.552v1.917h-0.615V11.623z"/>
			<path d="M182.355,11.988c0.323,0.314,0.485,0.776,0.485,1.387c0,0.589-0.143,1.077-0.428,1.461s-0.728,0.577-1.327,0.577     c-0.5,0-0.897-0.17-1.191-0.511c-0.294-0.34-0.441-0.797-0.441-1.371c0-0.615,0.155-1.104,0.465-1.468     c0.311-0.364,0.727-0.546,1.249-0.546C181.636,11.517,182.031,11.674,182.355,11.988z M181.974,14.421     c0.149-0.309,0.225-0.652,0.225-1.029c0-0.341-0.055-0.619-0.162-0.833c-0.172-0.337-0.467-0.505-0.886-0.505     c-0.372,0-0.643,0.144-0.812,0.43s-0.253,0.633-0.253,1.038c0,0.39,0.084,0.714,0.253,0.973s0.438,0.389,0.805,0.389     C181.547,14.884,181.823,14.729,181.974,14.421z"/>
			<path d="M185.489,11.64h0.602v0.485c0.124-0.167,0.259-0.295,0.404-0.386c0.208-0.137,0.452-0.205,0.733-0.205     c0.416,0,0.769,0.159,1.06,0.477c0.29,0.317,0.435,0.771,0.435,1.362c0,0.797-0.209,1.367-0.628,1.709     c-0.266,0.216-0.574,0.325-0.926,0.325c-0.277,0-0.51-0.061-0.697-0.181c-0.109-0.068-0.232-0.186-0.367-0.352v1.87h-0.615V11.64     z M187.805,14.509c0.19-0.24,0.286-0.6,0.286-1.078c0-0.292-0.043-0.542-0.127-0.752c-0.16-0.403-0.453-0.605-0.878-0.605     c-0.428,0-0.721,0.213-0.878,0.639c-0.085,0.228-0.127,0.517-0.127,0.868c0,0.283,0.042,0.523,0.127,0.721     c0.16,0.378,0.452,0.567,0.878,0.567C187.374,14.87,187.613,14.75,187.805,14.509z"/>
			<path d="M189.451,11.623h0.584v0.632c0.048-0.123,0.165-0.273,0.353-0.449c0.187-0.177,0.402-0.265,0.646-0.265     c0.012,0,0.031,0.001,0.059,0.003s0.074,0.007,0.14,0.014v0.649c-0.036-0.007-0.07-0.011-0.101-0.014     c-0.031-0.002-0.064-0.003-0.101-0.003c-0.311,0-0.548,0.1-0.715,0.299c-0.166,0.199-0.249,0.429-0.249,0.688v2.105h-0.615     V11.623z"/>
			<path d="M194.026,11.724c0.242,0.122,0.427,0.279,0.554,0.473c0.122,0.185,0.203,0.4,0.244,0.646     c0.036,0.168,0.055,0.438,0.055,0.807h-2.663c0.012,0.373,0.099,0.671,0.262,0.896c0.162,0.225,0.414,0.337,0.756,0.337     c0.318,0,0.573-0.106,0.763-0.319c0.106-0.124,0.182-0.267,0.227-0.429h0.604c-0.016,0.134-0.068,0.284-0.159,0.449     c-0.09,0.166-0.19,0.3-0.301,0.405c-0.186,0.182-0.415,0.305-0.688,0.369c-0.147,0.037-0.313,0.055-0.499,0.055     c-0.452,0-0.836-0.166-1.151-0.497c-0.314-0.332-0.472-0.796-0.472-1.393c0-0.588,0.158-1.065,0.476-1.432     c0.316-0.367,0.731-0.55,1.243-0.55C193.533,11.541,193.783,11.602,194.026,11.724z M194.246,13.161     c-0.024-0.267-0.082-0.479-0.173-0.639c-0.167-0.296-0.446-0.444-0.837-0.444c-0.28,0-0.516,0.102-0.705,0.306     c-0.189,0.204-0.29,0.463-0.302,0.778H194.246z"/>
			<path d="M197.669,11.736c0.109,0.068,0.232,0.188,0.371,0.359v-1.849h0.592v5.038h-0.554v-0.509     c-0.144,0.226-0.312,0.389-0.508,0.489s-0.419,0.15-0.671,0.15c-0.406,0-0.758-0.171-1.055-0.515     c-0.298-0.343-0.446-0.799-0.446-1.369c0-0.533,0.136-0.995,0.406-1.386c0.271-0.391,0.659-0.586,1.163-0.586     C197.247,11.558,197.48,11.617,197.669,11.736z M196.296,14.48c0.165,0.264,0.431,0.396,0.796,0.396     c0.283,0,0.517-0.123,0.698-0.368c0.183-0.245,0.274-0.596,0.274-1.054c0-0.462-0.095-0.805-0.282-1.027     c-0.188-0.223-0.421-0.333-0.697-0.333c-0.309,0-0.559,0.119-0.75,0.355s-0.287,0.585-0.287,1.046     C196.048,13.888,196.13,14.216,196.296,14.48z"/>
			<path d="M201.513,13.068c0.142-0.018,0.236-0.077,0.284-0.177c0.027-0.055,0.041-0.134,0.041-0.237     c0-0.21-0.075-0.363-0.224-0.458c-0.149-0.095-0.362-0.143-0.64-0.143c-0.32,0-0.548,0.087-0.683,0.261     c-0.074,0.096-0.123,0.239-0.146,0.429h-0.574c0.012-0.453,0.158-0.767,0.438-0.944c0.281-0.177,0.607-0.266,0.979-0.266     c0.43,0,0.779,0.082,1.048,0.246c0.267,0.164,0.399,0.419,0.399,0.766v2.109c0,0.064,0.014,0.115,0.039,0.154     c0.026,0.039,0.082,0.058,0.166,0.058c0.027,0,0.059-0.002,0.093-0.005c0.034-0.004,0.07-0.009,0.109-0.016v0.455     c-0.096,0.027-0.169,0.044-0.219,0.051c-0.051,0.007-0.119,0.01-0.205,0.01c-0.212,0-0.366-0.075-0.462-0.226     c-0.05-0.08-0.085-0.192-0.105-0.338c-0.126,0.164-0.306,0.307-0.54,0.427c-0.235,0.121-0.493,0.181-0.776,0.181     c-0.339,0-0.617-0.103-0.832-0.309c-0.216-0.206-0.323-0.463-0.323-0.773c0-0.339,0.106-0.602,0.318-0.789     s0.489-0.302,0.834-0.345L201.513,13.068z M200.218,14.73c0.13,0.102,0.283,0.153,0.461,0.153c0.217,0,0.427-0.05,0.629-0.15     c0.342-0.167,0.513-0.438,0.513-0.816v-0.495c-0.075,0.048-0.172,0.088-0.29,0.12c-0.118,0.032-0.234,0.055-0.348,0.068     l-0.372,0.048c-0.223,0.029-0.39,0.076-0.503,0.14c-0.189,0.107-0.285,0.277-0.285,0.512     C200.022,14.488,200.088,14.628,200.218,14.73z"/>
			<path d="M203.567,10.601h0.622v1.022h0.584v0.502h-0.584v2.389c0,0.127,0.043,0.213,0.13,0.256     c0.048,0.025,0.127,0.038,0.239,0.038c0.029,0,0.062-0.001,0.096-0.002s0.074-0.005,0.119-0.011v0.489     c-0.07,0.021-0.144,0.035-0.22,0.044c-0.077,0.009-0.159,0.014-0.248,0.014c-0.287,0-0.482-0.074-0.585-0.22     c-0.103-0.147-0.153-0.338-0.153-0.573v-2.423h-0.496v-0.502h0.496V10.601z"/>
			<path d="M208.041,11.988c0.324,0.314,0.485,0.776,0.485,1.387c0,0.589-0.143,1.077-0.428,1.461s-0.728,0.577-1.327,0.577     c-0.5,0-0.896-0.17-1.19-0.511c-0.295-0.34-0.441-0.797-0.441-1.371c0-0.615,0.154-1.104,0.465-1.468     c0.31-0.364,0.727-0.546,1.249-0.546C207.321,11.517,207.718,11.674,208.041,11.988z M207.659,14.421     c0.15-0.309,0.225-0.652,0.225-1.029c0-0.341-0.054-0.619-0.162-0.833c-0.171-0.337-0.466-0.505-0.886-0.505     c-0.371,0-0.642,0.144-0.811,0.43s-0.254,0.633-0.254,1.038c0,0.39,0.085,0.714,0.254,0.973s0.437,0.389,0.804,0.389     C207.232,14.884,207.51,14.729,207.659,14.421z"/>
			<path d="M209.299,11.623h0.585v0.632c0.048-0.123,0.165-0.273,0.352-0.449c0.188-0.177,0.402-0.265,0.646-0.265     c0.011,0,0.03,0.001,0.058,0.003s0.074,0.007,0.141,0.014v0.649c-0.037-0.007-0.07-0.011-0.101-0.014     c-0.031-0.002-0.064-0.003-0.102-0.003c-0.31,0-0.548,0.1-0.714,0.299c-0.167,0.199-0.25,0.429-0.25,0.688v2.105h-0.615V11.623z"/>
			<path d="M211.979,14.135c0.019,0.205,0.071,0.362,0.157,0.472c0.158,0.198,0.433,0.297,0.823,0.297     c0.232,0,0.438-0.049,0.614-0.149c0.177-0.099,0.265-0.252,0.265-0.459c0-0.157-0.07-0.277-0.212-0.359     c-0.09-0.05-0.269-0.108-0.534-0.174l-0.497-0.123c-0.317-0.078-0.552-0.164-0.702-0.26c-0.269-0.167-0.402-0.396-0.402-0.69     c0-0.346,0.126-0.626,0.379-0.841s0.593-0.321,1.021-0.321c0.559,0,0.962,0.162,1.209,0.485c0.154,0.205,0.229,0.426,0.225,0.663     h-0.581c-0.012-0.138-0.062-0.264-0.15-0.377c-0.145-0.161-0.396-0.241-0.752-0.241c-0.238,0-0.418,0.044-0.541,0.133     c-0.122,0.088-0.184,0.206-0.184,0.351c0,0.159,0.081,0.286,0.241,0.382c0.093,0.057,0.23,0.106,0.411,0.15l0.415,0.099     c0.45,0.107,0.752,0.211,0.905,0.311c0.239,0.157,0.358,0.404,0.358,0.742c0,0.326-0.125,0.607-0.375,0.844     c-0.251,0.237-0.632,0.355-1.144,0.355c-0.552,0-0.942-0.124-1.172-0.371c-0.229-0.248-0.353-0.553-0.368-0.918H211.979z"/>
		</g>
		<g>
			<g>
				<circle fill="none" stroke="#000000" stroke-miterlimit="10" cx="226.01" cy="70.057" r="7.255"/>
			</g>
			<g>
				<circle fill="none" stroke="#000000" stroke-miterlimit="10" cx="226.01" cy="107.557" r="7.255"/>
			</g>
			<g>
				<circle fill="none" stroke="#000000" stroke-miterlimit="10" cx="226.01" cy="32.557" r="7.255"/>
			</g>
			<g>
				<circle fill="none" stroke="#000000" stroke-miterlimit="10" cx="196.01" cy="70.057" r="7.255"/>
			</g>
			<g>
				<circle fill="none" stroke="#000000" stroke-miterlimit="10" cx="196.01" cy="107.557" r="7.255"/>
			</g>
			<g>
				<circle fill="none" stroke="#000000" stroke-miterlimit="10" cx="196.01" cy="32.557" r="7.255"/>
			</g>
			<g>
				<circle fill="none" stroke="#000000" stroke-miterlimit="10" cx="166.01" cy="70.057" r="7.255"/>
			</g>
			<g>
				<circle fill="none" stroke="#000000" stroke-miterlimit="10" cx="166.01" cy="107.557" r="7.255"/>
			</g>
			<g>
				<circle fill="none" stroke="#000000" stroke-miterlimit="10" cx="166.01" cy="32.557" r="7.255"/>
			</g>
		</g>
		<g>
			<g>
				<path d="M95.335,67.357h2.247c0.444,0,0.803,0.126,1.076,0.377c0.273,0.252,0.41,0.606,0.41,1.062      c0,0.392-0.122,0.733-0.366,1.023c-0.244,0.291-0.617,0.436-1.119,0.436h-1.568v2.123h-0.68V67.357z M97.974,68.048      c-0.149-0.071-0.354-0.106-0.614-0.106h-1.344v1.74h1.344c0.303,0,0.549-0.065,0.738-0.195s0.283-0.359,0.283-0.687      C98.381,68.431,98.245,68.18,97.974,68.048z"/>
			</g>
			<circle fill="none" stroke="#000000" stroke-miterlimit="10" cx="97.01" cy="70.057" r="7.256"/>
		</g>
		<g>
			<g>
				<path d="M95.335,104.857h2.247c0.444,0,0.803,0.126,1.076,0.377c0.273,0.252,0.41,0.606,0.41,1.062      c0,0.392-0.122,0.733-0.366,1.023c-0.244,0.291-0.617,0.436-1.119,0.436h-1.568v2.123h-0.68V104.857z M97.974,105.548      c-0.149-0.071-0.354-0.106-0.614-0.106h-1.344v1.74h1.344c0.303,0,0.549-0.065,0.738-0.195s0.283-0.359,0.283-0.687      C98.381,105.931,98.245,105.68,97.974,105.548z"/>
			</g>
			<circle fill="none" stroke="#000000" stroke-miterlimit="10" cx="97.01" cy="107.557" r="7.256"/>
		</g>
		<g>
			<g>
				<path d="M95.335,29.857h2.247c0.444,0,0.803,0.126,1.076,0.377c0.273,0.252,0.41,0.606,0.41,1.062      c0,0.392-0.122,0.733-0.366,1.023c-0.244,0.291-0.617,0.436-1.119,0.436h-1.568v2.123h-0.68V29.857z M97.974,30.548      c-0.149-0.071-0.354-0.106-0.614-0.106h-1.344v1.74h1.344c0.303,0,0.549-0.065,0.738-0.195s0.283-0.359,0.283-0.687      C98.381,30.931,98.245,30.68,97.974,30.548z"/>
			</g>
			<circle fill="none" stroke="#000000" stroke-miterlimit="10" cx="97.01" cy="32.557" r="7.256"/>
		</g>
		<g>
			<g>
				<path d="M65.335,67.357h2.247c0.444,0,0.803,0.126,1.076,0.377c0.273,0.252,0.41,0.606,0.41,1.062      c0,0.392-0.122,0.733-0.366,1.023c-0.244,0.291-0.617,0.436-1.119,0.436h-1.568v2.123h-0.68V67.357z M67.974,68.048      c-0.149-0.071-0.354-0.106-0.614-0.106h-1.344v1.74h1.344c0.303,0,0.549-0.065,0.738-0.195s0.283-0.359,0.283-0.687      C68.381,68.431,68.245,68.18,67.974,68.048z"/>
			</g>
			<circle fill="none" stroke="#000000" stroke-miterlimit="10" cx="67.01" cy="70.057" r="7.256"/>
		</g>
		<g>
			<g>
				<path d="M65.335,104.857h2.247c0.444,0,0.803,0.126,1.076,0.377c0.273,0.252,0.41,0.606,0.41,1.062      c0,0.392-0.122,0.733-0.366,1.023c-0.244,0.291-0.617,0.436-1.119,0.436h-1.568v2.123h-0.68V104.857z M67.974,105.548      c-0.149-0.071-0.354-0.106-0.614-0.106h-1.344v1.74h1.344c0.303,0,0.549-0.065,0.738-0.195s0.283-0.359,0.283-0.687      C68.381,105.931,68.245,105.68,67.974,105.548z"/>
			</g>
			<circle fill="none" stroke="#000000" stroke-miterlimit="10" cx="67.01" cy="107.557" r="7.256"/>
		</g>
		<g>
			<g>
				<path d="M65.335,29.857h2.247c0.444,0,0.803,0.126,1.076,0.377c0.273,0.252,0.41,0.606,0.41,1.062      c0,0.392-0.122,0.733-0.366,1.023c-0.244,0.291-0.617,0.436-1.119,0.436h-1.568v2.123h-0.68V29.857z M67.974,30.548      c-0.149-0.071-0.354-0.106-0.614-0.106h-1.344v1.74h1.344c0.303,0,0.549-0.065,0.738-0.195s0.283-0.359,0.283-0.687      C68.381,30.931,68.245,30.68,67.974,30.548z"/>
			</g>
			<circle fill="none" stroke="#000000" stroke-miterlimit="10" cx="67.01" cy="32.557" r="7.256"/>
		</g>
		<g>
			<g>
				<path d="M35.335,67.357h2.247c0.444,0,0.803,0.126,1.076,0.377c0.273,0.252,0.41,0.606,0.41,1.062      c0,0.392-0.122,0.733-0.366,1.023c-0.244,0.291-0.617,0.436-1.119,0.436h-1.568v2.123h-0.68V67.357z M37.974,68.048      c-0.149-0.071-0.354-0.106-0.614-0.106h-1.344v1.74h1.344c0.303,0,0.549-0.065,0.738-0.195s0.283-0.359,0.283-0.687      C38.381,68.431,38.245,68.18,37.974,68.048z"/>
			</g>
			<circle fill="none" stroke="#000000" stroke-miterlimit="10" cx="37.01" cy="70.057" r="7.256"/>
		</g>
		<g>
			<g>
				<path d="M35.335,104.857h2.247c0.444,0,0.803,0.126,1.076,0.377c0.273,0.252,0.41,0.606,0.41,1.062      c0,0.392-0.122,0.733-0.366,1.023c-0.244,0.291-0.617,0.436-1.119,0.436h-1.568v2.123h-0.68V104.857z M37.974,105.548      c-0.149-0.071-0.354-0.106-0.614-0.106h-1.344v1.74h1.344c0.303,0,0.549-0.065,0.738-0.195s0.283-0.359,0.283-0.687      C38.381,105.931,38.245,105.68,37.974,105.548z"/>
			</g>
			<circle fill="none" stroke="#000000" stroke-miterlimit="10" cx="37.01" cy="107.557" r="7.256"/>
		</g>
		<g>
			<g>
				<path d="M35.335,29.857h2.247c0.444,0,0.803,0.126,1.076,0.377c0.273,0.252,0.41,0.606,0.41,1.062      c0,0.392-0.122,0.733-0.366,1.023c-0.244,0.291-0.617,0.436-1.119,0.436h-1.568v2.123h-0.68V29.857z M37.974,30.548      c-0.149-0.071-0.354-0.106-0.614-0.106h-1.344v1.74h1.344c0.303,0,0.549-0.065,0.738-0.195s0.283-0.359,0.283-0.687      C38.381,30.931,38.245,30.68,37.974,30.548z"/>
			</g>
			<circle fill="none" stroke="#000000" stroke-miterlimit="10" cx="37.01" cy="32.557" r="7.256"/>
		</g>
		<polyline fill="none" stroke="#000000" stroke-width="0.5" stroke-miterlimit="10" points="122.94,0.5 129.917,5.244     122.94,5.942 135.359,10.751 126.149,13.616 132.289,14.314 126.987,19.477 135.359,21.57 126.708,27.988 135.359,29.853     126.289,33.291 134.243,39.812 127.734,39.151 135.359,44.314 129.149,47.384 138.149,49.616 126.429,51.988 134.801,54.918     127.734,57.57 136.057,62.801 125.033,67.353 135.08,70.686 128.801,75.849 136.475,78.779 126.987,78.779 133.266,85.756     127.734,87.709 132.149,90.779 127.734,95.104 132.01,96.639 126.568,96.639 137.312,104.853 131.871,107.557 136.057,114.221     122.243,116.035 132.987,118.127 125.033,122.732 135.08,123.988 125.591,135.849   "/>
		<rect x="9.638" y="0.5" fill="none" stroke="#000000" stroke-miterlimit="10" width="244.464" height="135.349"/>
		<g>
			<path d="M135.785,127.322h0.598v1.822c0.135-0.175,0.296-0.309,0.483-0.402c0.188-0.092,0.392-0.138,0.611-0.138     c0.457,0,0.828,0.157,1.113,0.47c0.285,0.313,0.427,0.775,0.427,1.386c0,0.579-0.141,1.06-0.422,1.442s-0.671,0.574-1.17,0.574     c-0.279,0-0.515-0.067-0.707-0.202c-0.114-0.08-0.236-0.208-0.367-0.383v0.468h-0.566V127.322z M138.136,131.537     c0.166-0.264,0.249-0.613,0.249-1.046c0-0.385-0.083-0.704-0.249-0.957c-0.165-0.253-0.409-0.379-0.731-0.379     c-0.281,0-0.528,0.104-0.739,0.311c-0.212,0.208-0.317,0.549-0.317,1.025c0,0.344,0.043,0.623,0.13,0.837     c0.163,0.403,0.466,0.605,0.909,0.605C137.721,131.933,137.971,131.801,138.136,131.537z"/>
			<path d="M141.69,130.145c0.142-0.018,0.236-0.077,0.284-0.177c0.027-0.055,0.041-0.134,0.041-0.237     c0-0.21-0.075-0.363-0.224-0.458c-0.149-0.095-0.362-0.143-0.64-0.143c-0.321,0-0.548,0.087-0.683,0.261     c-0.075,0.096-0.124,0.239-0.146,0.429h-0.574c0.012-0.453,0.157-0.767,0.438-0.944s0.607-0.266,0.979-0.266     c0.43,0,0.779,0.082,1.048,0.246c0.267,0.164,0.399,0.419,0.399,0.766v2.109c0,0.064,0.013,0.115,0.039,0.154     s0.082,0.058,0.166,0.058c0.027,0,0.059-0.002,0.092-0.005c0.035-0.004,0.071-0.009,0.109-0.016v0.455     c-0.096,0.027-0.168,0.044-0.219,0.051c-0.05,0.007-0.118,0.01-0.205,0.01c-0.211,0-0.365-0.075-0.461-0.226     c-0.05-0.08-0.086-0.192-0.105-0.338c-0.126,0.164-0.306,0.307-0.541,0.427c-0.234,0.121-0.493,0.181-0.775,0.181     c-0.34,0-0.617-0.103-0.832-0.309c-0.216-0.206-0.323-0.463-0.323-0.773c0-0.339,0.106-0.602,0.317-0.789     c0.213-0.187,0.49-0.302,0.834-0.345L141.69,130.145z M140.394,131.807c0.131,0.102,0.284,0.153,0.462,0.153     c0.217,0,0.426-0.05,0.629-0.15c0.342-0.167,0.513-0.438,0.513-0.816V130.5c-0.075,0.048-0.172,0.088-0.29,0.12     c-0.118,0.032-0.234,0.055-0.348,0.068l-0.372,0.048c-0.223,0.029-0.391,0.076-0.503,0.14c-0.19,0.107-0.285,0.277-0.285,0.512     C140.2,131.565,140.265,131.705,140.394,131.807z"/>
			<path d="M143.638,128.7h0.584v0.632c0.048-0.123,0.165-0.273,0.352-0.449c0.188-0.177,0.402-0.265,0.646-0.265     c0.012,0,0.031,0.001,0.059,0.003s0.073,0.007,0.14,0.014v0.649c-0.036-0.007-0.07-0.011-0.101-0.014     c-0.031-0.002-0.064-0.003-0.102-0.003c-0.31,0-0.548,0.1-0.714,0.299c-0.166,0.199-0.249,0.429-0.249,0.688v2.105h-0.615V128.7z     "/>
			<path d="M145.969,128.7h0.584v0.632c0.048-0.123,0.165-0.273,0.352-0.449c0.188-0.177,0.402-0.265,0.646-0.265     c0.012,0,0.031,0.001,0.059,0.003s0.073,0.007,0.14,0.014v0.649c-0.036-0.007-0.07-0.011-0.101-0.014     c-0.031-0.002-0.064-0.003-0.102-0.003c-0.31,0-0.548,0.1-0.714,0.299c-0.166,0.199-0.249,0.429-0.249,0.688v2.105h-0.615V128.7z     "/>
			<path d="M148.283,127.339h0.625v0.697h-0.625V127.339z M148.283,128.717h0.625v3.644h-0.625V128.717z"/>
			<path d="M152.098,128.801c0.242,0.122,0.427,0.279,0.554,0.473c0.123,0.185,0.204,0.4,0.245,0.646     c0.036,0.168,0.054,0.438,0.054,0.807h-2.662c0.012,0.373,0.099,0.671,0.261,0.896c0.163,0.225,0.415,0.337,0.757,0.337     c0.318,0,0.573-0.106,0.763-0.319c0.106-0.124,0.182-0.267,0.226-0.429h0.605c-0.016,0.134-0.069,0.284-0.159,0.449     c-0.09,0.166-0.19,0.3-0.301,0.405c-0.186,0.182-0.415,0.305-0.688,0.369c-0.147,0.037-0.313,0.055-0.499,0.055     c-0.453,0-0.837-0.166-1.151-0.497c-0.314-0.332-0.473-0.796-0.473-1.393c0-0.588,0.159-1.065,0.476-1.432     c0.317-0.367,0.731-0.55,1.244-0.55C151.606,128.618,151.856,128.679,152.098,128.801z M152.319,130.238     c-0.024-0.267-0.082-0.479-0.173-0.639c-0.167-0.296-0.446-0.444-0.837-0.444c-0.28,0-0.516,0.102-0.705,0.306     c-0.189,0.204-0.29,0.463-0.302,0.778H152.319z"/>
			<path d="M153.748,128.7h0.584v0.632c0.048-0.123,0.165-0.273,0.352-0.449c0.188-0.177,0.402-0.265,0.646-0.265     c0.012,0,0.031,0.001,0.059,0.003s0.073,0.007,0.14,0.014v0.649c-0.036-0.007-0.07-0.011-0.101-0.014     c-0.031-0.002-0.064-0.003-0.102-0.003c-0.31,0-0.548,0.1-0.714,0.299c-0.166,0.199-0.249,0.429-0.249,0.688v2.105h-0.615V128.7z     "/>
		</g>
	</g>
	<g>
		<g>
			<path d="M4.115,148.375c0.154,0.214,0.23,0.471,0.23,0.769c0,0.308-0.077,0.555-0.232,0.742     c-0.087,0.105-0.216,0.201-0.385,0.287c0.257,0.093,0.451,0.242,0.582,0.444s0.196,0.449,0.196,0.738     c0,0.298-0.075,0.566-0.225,0.803c-0.095,0.157-0.214,0.29-0.356,0.396c-0.161,0.123-0.351,0.208-0.569,0.253     s-0.456,0.068-0.712,0.068h-2.27v-5.038H2.81C3.424,147.847,3.858,148.026,4.115,148.375z M1.379,148.713v1.111h1.225     c0.219,0,0.396-0.042,0.533-0.125c0.137-0.083,0.205-0.231,0.205-0.443c0-0.235-0.091-0.39-0.271-0.465     c-0.155-0.052-0.354-0.079-0.595-0.079H1.379z M1.379,150.658v1.343h1.224c0.219,0,0.389-0.03,0.51-0.089     c0.221-0.109,0.331-0.319,0.331-0.629c0-0.262-0.106-0.442-0.32-0.54c-0.119-0.055-0.287-0.083-0.504-0.085H1.379z"/>
		</g>
		<rect x="9.638" y="146.857" fill="none" stroke="#000000" stroke-miterlimit="10" width="244.464" height="135.348"/>
		<g>
			<polygon fill="none" stroke="#000000" stroke-width="0.5" stroke-miterlimit="10" points="141.173,257.333 137.514,252.391      143.454,251.25 141.933,244.979 148.585,248.779 150.296,242.127 153.337,245.738 158.469,238.706 157.519,248.02      163.601,243.838 160.94,248.02 168.353,249.54 162.08,252.961 165.376,256.002 160.94,258.283 164.552,263.604 158.089,262.084      159.795,267.298 154.492,265.205 156.376,270.368 150.486,266.836 149.465,271.693 146.875,267.597 142.503,273.298      142.313,267.977 137.514,267.406 140.223,263.604 135.097,259.423    "/>
			<g>
				<g>
					<path d="M149.469,254.692h2.247c0.444,0,0.803,0.126,1.076,0.377c0.273,0.252,0.41,0.606,0.41,1.062       c0,0.393-0.122,0.733-0.366,1.023c-0.244,0.291-0.617,0.437-1.119,0.437h-1.568v2.122h-0.68V254.692z M152.107,255.383       c-0.149-0.071-0.354-0.106-0.614-0.106h-1.344v1.74h1.344c0.303,0,0.549-0.065,0.738-0.195s0.283-0.358,0.283-0.687       C152.514,255.766,152.378,255.515,152.107,255.383z"/>
				</g>
				<circle fill="none" stroke="#000000" stroke-miterlimit="10" cx="151.144" cy="257.392" r="7.256"/>
			</g>
		</g>
		<g>
			<polygon fill="none" stroke="#000000" stroke-width="0.5" stroke-miterlimit="10" points="102.375,257.333 98.716,252.391      104.656,251.25 103.136,244.979 109.788,248.779 111.499,242.127 114.54,245.738 119.671,238.706 118.721,248.02      124.803,243.838 122.143,248.02 129.555,249.54 123.283,252.961 126.578,256.002 122.143,258.283 125.754,263.604      119.292,262.084 120.997,267.298 115.695,265.205 117.578,270.368 111.688,266.836 110.667,271.693 108.077,267.597      103.706,273.298 103.516,267.977 98.716,267.406 101.425,263.604 96.299,259.423    "/>
			<g>
				<circle fill="none" stroke="#000000" stroke-miterlimit="10" cx="112.346" cy="257.392" r="7.256"/>
			</g>
		</g>
		<g>
			<polygon fill="none" stroke="#000000" stroke-width="0.5" stroke-miterlimit="10" points="24.78,257.333 21.121,252.391      27.061,251.25 25.541,244.979 32.193,248.779 33.903,242.127 36.944,245.738 42.076,238.706 41.126,248.02 47.208,243.838      44.547,248.02 51.96,249.54 45.688,252.961 48.983,256.002 44.547,258.283 48.159,263.604 41.696,262.084 43.402,267.298      38.1,265.205 39.983,270.368 34.093,266.836 33.072,271.693 30.482,267.597 26.11,273.298 25.92,267.977 21.121,267.406      23.83,263.604 18.704,259.423    "/>
			<g>
				<g>
					<path d="M33.076,254.692h2.247c0.444,0,0.803,0.126,1.076,0.377c0.273,0.252,0.41,0.606,0.41,1.062       c0,0.393-0.122,0.733-0.366,1.023c-0.244,0.291-0.617,0.437-1.119,0.437h-1.568v2.122h-0.68V254.692z M35.714,255.383       c-0.149-0.071-0.354-0.106-0.614-0.106h-1.344v1.74H35.1c0.303,0,0.549-0.065,0.738-0.195s0.283-0.358,0.283-0.687       C36.121,255.766,35.985,255.515,35.714,255.383z"/>
				</g>
				<circle fill="none" stroke="#000000" stroke-miterlimit="10" cx="34.75" cy="257.392" r="7.256"/>
			</g>
		</g>
		<g>
			<polygon fill="none" stroke="#000000" stroke-width="0.5" stroke-miterlimit="10" points="218.769,257.333 215.109,252.391      221.049,251.25 219.528,244.979 226.181,248.779 227.892,242.127 230.933,245.738 236.064,238.706 235.114,248.02      241.196,243.838 238.535,248.02 245.948,249.54 239.676,252.961 242.971,256.002 238.535,258.283 242.146,263.604      235.685,262.084 237.39,267.298 232.087,265.205 233.971,270.368 228.081,266.836 227.061,271.693 224.47,267.597      220.099,273.298 219.908,267.977 215.109,267.406 217.817,263.604 212.692,259.423    "/>
			<g>
				<circle fill="none" stroke="#000000" stroke-miterlimit="10" cx="228.738" cy="257.392" r="7.256"/>
			</g>
		</g>
		<g>
			<polygon fill="none" stroke="#000000" stroke-width="0.5" stroke-miterlimit="10" points="179.971,257.333 176.312,252.391      182.251,251.25 180.73,244.979 187.383,248.779 189.094,242.127 192.135,245.738 197.267,238.706 196.316,248.02      202.398,243.838 199.737,248.02 207.15,249.54 200.878,252.961 204.174,256.002 199.737,258.283 203.349,263.604      196.887,262.084 198.592,267.298 193.29,265.205 195.174,270.368 189.284,266.836 188.263,271.693 185.673,267.597      181.301,273.298 181.111,267.977 176.312,267.406 179.021,263.604 173.895,259.423    "/>
			<g>
				<g>
					<path d="M188.267,254.692h2.247c0.443,0,0.803,0.126,1.075,0.377c0.273,0.252,0.41,0.606,0.41,1.062       c0,0.393-0.122,0.733-0.366,1.023c-0.243,0.291-0.616,0.437-1.118,0.437h-1.568v2.122h-0.68V254.692z M190.904,255.383       c-0.149-0.071-0.354-0.106-0.614-0.106h-1.344v1.74h1.344c0.304,0,0.55-0.065,0.738-0.195c0.189-0.13,0.283-0.358,0.283-0.687       C191.312,255.766,191.176,255.515,190.904,255.383z"/>
				</g>
				<circle fill="none" stroke="#000000" stroke-miterlimit="10" cx="189.941" cy="257.392" r="7.256"/>
			</g>
		</g>
		<g>
			<polygon fill="none" stroke="#000000" stroke-width="0.5" stroke-miterlimit="10" points="63.578,257.333 59.919,252.391      65.858,251.25 64.338,244.979 70.99,248.779 72.701,242.127 75.742,245.738 80.874,238.706 79.923,248.02 86.006,243.838      83.345,248.02 90.757,249.54 84.485,252.961 87.781,256.002 83.345,258.283 86.956,263.604 80.494,262.084 82.199,267.298      76.897,265.205 78.781,270.368 72.891,266.836 71.87,271.693 69.28,267.597 64.908,273.298 64.718,267.977 59.919,267.406      62.627,263.604 57.502,259.423    "/>
			<g>
				<g>
					<path d="M71.874,254.692h2.247c0.444,0,0.803,0.126,1.076,0.377c0.273,0.252,0.41,0.606,0.41,1.062       c0,0.393-0.122,0.733-0.366,1.023c-0.244,0.291-0.617,0.437-1.119,0.437h-1.568v2.122h-0.68V254.692z M74.512,255.383       c-0.149-0.071-0.354-0.106-0.614-0.106h-1.344v1.74h1.344c0.303,0,0.549-0.065,0.738-0.195s0.283-0.358,0.283-0.687       C74.919,255.766,74.783,255.515,74.512,255.383z"/>
				</g>
				<circle fill="none" stroke="#000000" stroke-miterlimit="10" cx="73.548" cy="257.392" r="7.256"/>
			</g>
		</g>
		<g>
			<polygon fill="none" stroke="#000000" stroke-width="0.5" stroke-miterlimit="10" points="141.173,217.333 137.514,212.391      143.454,211.25 141.933,204.978 148.585,208.779 150.296,202.127 153.337,205.738 158.469,198.706 157.519,208.019      163.601,203.838 160.94,208.019 168.353,209.54 162.08,212.961 165.376,216.002 160.94,218.283 164.552,223.605 158.089,222.084      159.795,227.298 154.492,225.205 156.376,230.368 150.486,226.836 149.465,231.694 146.875,227.596 142.503,233.298      142.313,227.977 137.514,227.406 140.223,223.605 135.097,219.423    "/>
			<g>
				<g>
					<path d="M149.469,214.692h2.247c0.444,0,0.803,0.126,1.076,0.377c0.273,0.252,0.41,0.606,0.41,1.062       c0,0.393-0.122,0.733-0.366,1.023c-0.244,0.291-0.617,0.437-1.119,0.437h-1.568v2.122h-0.68V214.692z M152.107,215.383       c-0.149-0.071-0.354-0.106-0.614-0.106h-1.344v1.74h1.344c0.303,0,0.549-0.065,0.738-0.195s0.283-0.358,0.283-0.687       C152.514,215.766,152.378,215.515,152.107,215.383z"/>
				</g>
				<circle fill="none" stroke="#000000" stroke-miterlimit="10" cx="151.144" cy="217.392" r="7.256"/>
			</g>
		</g>
		<g>
			<polygon fill="none" stroke="#000000" stroke-width="0.5" stroke-miterlimit="10" points="102.375,217.333 98.716,212.391      104.656,211.25 103.136,204.978 109.788,208.779 111.499,202.127 114.54,205.738 119.671,198.706 118.721,208.019      124.803,203.838 122.143,208.019 129.555,209.54 123.283,212.961 126.578,216.002 122.143,218.283 125.754,223.605      119.292,222.084 120.997,227.298 115.695,225.205 117.578,230.368 111.688,226.836 110.667,231.694 108.077,227.596      103.706,233.298 103.516,227.977 98.716,227.406 101.425,223.605 96.299,219.423    "/>
			<g>
				<circle fill="none" stroke="#000000" stroke-miterlimit="10" cx="112.346" cy="217.392" r="7.256"/>
			</g>
		</g>
		<g>
			<polygon fill="none" stroke="#000000" stroke-width="0.5" stroke-miterlimit="10" points="24.78,217.333 21.121,212.391      27.061,211.25 25.541,204.978 32.193,208.779 33.903,202.127 36.944,205.738 42.076,198.706 41.126,208.019 47.208,203.838      44.547,208.019 51.96,209.54 45.688,212.961 48.983,216.002 44.547,218.283 48.159,223.605 41.696,222.084 43.402,227.298      38.1,225.205 39.983,230.368 34.093,226.836 33.072,231.694 30.482,227.596 26.11,233.298 25.92,227.977 21.121,227.406      23.83,223.605 18.704,219.423    "/>
			<g>
				<circle fill="none" stroke="#000000" stroke-miterlimit="10" cx="34.75" cy="217.392" r="7.256"/>
			</g>
		</g>
		<g>
			<polygon fill="none" stroke="#000000" stroke-width="0.5" stroke-miterlimit="10" points="218.769,217.333 215.109,212.391      221.049,211.25 219.528,204.978 226.181,208.779 227.892,202.127 230.933,205.738 236.064,198.706 235.114,208.019      241.196,203.838 238.535,208.019 245.948,209.54 239.676,212.961 242.971,216.002 238.535,218.283 242.146,223.605      235.685,222.084 237.39,227.298 232.087,225.205 233.971,230.368 228.081,226.836 227.061,231.694 224.47,227.596      220.099,233.298 219.908,227.977 215.109,227.406 217.817,223.605 212.692,219.423    "/>
			<g>
				<g>
					<path d="M227.063,214.692h2.247c0.444,0,0.803,0.126,1.076,0.377c0.272,0.252,0.409,0.606,0.409,1.062       c0,0.393-0.122,0.733-0.365,1.023c-0.244,0.291-0.617,0.437-1.119,0.437h-1.567v2.122h-0.681V214.692z M229.702,215.383       c-0.149-0.071-0.354-0.106-0.614-0.106h-1.344v1.74h1.344c0.303,0,0.549-0.065,0.738-0.195c0.188-0.13,0.283-0.358,0.283-0.687       C230.109,215.766,229.974,215.515,229.702,215.383z"/>
				</g>
				<circle fill="none" stroke="#000000" stroke-miterlimit="10" cx="228.738" cy="217.392" r="7.256"/>
			</g>
		</g>
		<g>
			<polygon fill="none" stroke="#000000" stroke-width="0.5" stroke-miterlimit="10" points="179.971,217.333 176.312,212.391      182.251,211.25 180.73,204.978 187.383,208.779 189.094,202.127 192.135,205.738 197.267,198.706 196.316,208.019      202.398,203.838 199.737,208.019 207.15,209.54 200.878,212.961 204.174,216.002 199.737,218.283 203.349,223.605      196.887,222.084 198.592,227.298 193.29,225.205 195.174,230.368 189.284,226.836 188.263,231.694 185.673,227.596      181.301,233.298 181.111,227.977 176.312,227.406 179.021,223.605 173.895,219.423    "/>
			<g>
				<circle fill="none" stroke="#000000" stroke-miterlimit="10" cx="189.941" cy="217.392" r="7.256"/>
			</g>
		</g>
		<g>
			<polygon fill="none" stroke="#000000" stroke-width="0.5" stroke-miterlimit="10" points="63.578,217.333 59.919,212.391      65.858,211.25 64.338,204.978 70.99,208.779 72.701,202.127 75.742,205.738 80.874,198.706 79.923,208.019 86.006,203.838      83.345,208.019 90.757,209.54 84.485,212.961 87.781,216.002 83.345,218.283 86.956,223.605 80.494,222.084 82.199,227.298      76.897,225.205 78.781,230.368 72.891,226.836 71.87,231.694 69.28,227.596 64.908,233.298 64.718,227.977 59.919,227.406      62.627,223.605 57.502,219.423    "/>
			<g>
				<g>
					<path d="M71.874,214.692h2.247c0.444,0,0.803,0.126,1.076,0.377c0.273,0.252,0.41,0.606,0.41,1.062       c0,0.393-0.122,0.733-0.366,1.023c-0.244,0.291-0.617,0.437-1.119,0.437h-1.568v2.122h-0.68V214.692z M74.512,215.383       c-0.149-0.071-0.354-0.106-0.614-0.106h-1.344v1.74h1.344c0.303,0,0.549-0.065,0.738-0.195s0.283-0.358,0.283-0.687       C74.919,215.766,74.783,215.515,74.512,215.383z"/>
				</g>
				<circle fill="none" stroke="#000000" stroke-miterlimit="10" cx="73.548" cy="217.392" r="7.256"/>
			</g>
		</g>
		<g>
			<polygon fill="none" stroke="#000000" stroke-width="0.5" stroke-miterlimit="10" points="141.173,177.333 137.514,172.391      143.454,171.25 141.933,164.978 148.585,168.779 150.296,162.127 153.337,165.738 158.469,158.706 157.519,168.019      163.601,163.838 160.94,168.019 168.353,169.54 162.08,172.961 165.376,176.002 160.94,178.283 164.552,183.605 158.089,182.084      159.795,187.298 154.492,185.205 156.376,190.368 150.486,186.836 149.465,191.694 146.875,187.596 142.503,193.298      142.313,187.977 137.514,187.406 140.223,183.605 135.097,179.423    "/>
			<g>
				<circle fill="none" stroke="#000000" stroke-miterlimit="10" cx="151.144" cy="177.392" r="7.256"/>
			</g>
		</g>
		<g>
			<polygon fill="none" stroke="#000000" stroke-width="0.5" stroke-miterlimit="10" points="102.375,177.333 98.716,172.391      104.656,171.25 103.136,164.978 109.788,168.779 111.499,162.127 114.54,165.738 119.671,158.706 118.721,168.019      124.803,163.838 122.143,168.019 129.555,169.54 123.283,172.961 126.578,176.002 122.143,178.283 125.754,183.605      119.292,182.084 120.997,187.298 115.695,185.205 117.578,190.368 111.688,186.836 110.667,191.694 108.077,187.596      103.706,193.298 103.516,187.977 98.716,187.406 101.425,183.605 96.299,179.423    "/>
			<g>
				<circle fill="none" stroke="#000000" stroke-miterlimit="10" cx="112.346" cy="177.392" r="7.256"/>
			</g>
		</g>
		<g>
			<polygon fill="none" stroke="#000000" stroke-width="0.5" stroke-miterlimit="10" points="24.78,177.333 21.121,172.391      27.061,171.25 25.541,164.978 32.193,168.779 33.903,162.127 36.944,165.738 42.076,158.706 41.126,168.019 47.208,163.838      44.547,168.019 51.96,169.54 45.688,172.961 48.983,176.002 44.547,178.283 48.159,183.605 41.696,182.084 43.402,187.298      38.1,185.205 39.983,190.368 34.093,186.836 33.072,191.694 30.482,187.596 26.11,193.298 25.92,187.977 21.121,187.406      23.83,183.605 18.704,179.423    "/>
			<g>
				<g>
					<path d="M33.076,174.692h2.247c0.444,0,0.803,0.126,1.076,0.377c0.273,0.252,0.41,0.606,0.41,1.062       c0,0.393-0.122,0.733-0.366,1.023c-0.244,0.291-0.617,0.437-1.119,0.437h-1.568v2.122h-0.68V174.692z M35.714,175.383       c-0.149-0.071-0.354-0.106-0.614-0.106h-1.344v1.74H35.1c0.303,0,0.549-0.065,0.738-0.195s0.283-0.358,0.283-0.687       C36.121,175.766,35.985,175.515,35.714,175.383z"/>
				</g>
				<circle fill="none" stroke="#000000" stroke-miterlimit="10" cx="34.75" cy="177.392" r="7.256"/>
			</g>
		</g>
		<g>
			<polygon fill="none" stroke="#000000" stroke-width="0.5" stroke-miterlimit="10" points="218.769,177.333 215.109,172.391      221.049,171.25 219.528,164.978 226.181,168.779 227.892,162.127 230.933,165.738 236.064,158.706 235.114,168.019      241.196,163.838 238.535,168.019 245.948,169.54 239.676,172.961 242.971,176.002 238.535,178.283 242.146,183.605      235.685,182.084 237.39,187.298 232.087,185.205 233.971,190.368 228.081,186.836 227.061,191.694 224.47,187.596      220.099,193.298 219.908,187.977 215.109,187.406 217.817,183.605 212.692,179.423    "/>
			<g>
				<circle fill="none" stroke="#000000" stroke-miterlimit="10" cx="228.738" cy="177.392" r="7.256"/>
			</g>
		</g>
		<g>
			<polygon fill="none" stroke="#000000" stroke-width="0.5" stroke-miterlimit="10" points="179.971,177.333 176.312,172.391      182.251,171.25 180.73,164.978 187.383,168.779 189.094,162.127 192.135,165.738 197.267,158.706 196.316,168.019      202.398,163.838 199.737,168.019 207.15,169.54 200.878,172.961 204.174,176.002 199.737,178.283 203.349,183.605      196.887,182.084 198.592,187.298 193.29,185.205 195.174,190.368 189.284,186.836 188.263,191.694 185.673,187.596      181.301,193.298 181.111,187.977 176.312,187.406 179.021,183.605 173.895,179.423    "/>
			<g>
				<g>
					<path d="M188.267,174.692h2.247c0.443,0,0.803,0.126,1.075,0.377c0.273,0.252,0.41,0.606,0.41,1.062       c0,0.393-0.122,0.733-0.366,1.023c-0.243,0.291-0.616,0.437-1.118,0.437h-1.568v2.122h-0.68V174.692z M190.904,175.383       c-0.149-0.071-0.354-0.106-0.614-0.106h-1.344v1.74h1.344c0.304,0,0.55-0.065,0.738-0.195c0.189-0.13,0.283-0.358,0.283-0.687       C191.312,175.766,191.176,175.515,190.904,175.383z"/>
				</g>
				<circle fill="none" stroke="#000000" stroke-miterlimit="10" cx="189.941" cy="177.392" r="7.256"/>
			</g>
		</g>
		<g>
			<polygon fill="none" stroke="#000000" stroke-width="0.5" stroke-miterlimit="10" points="63.578,177.333 59.919,172.391      65.858,171.25 64.338,164.978 70.99,168.779 72.701,162.127 75.742,165.738 80.874,158.706 79.923,168.019 86.006,163.838      83.345,168.019 90.757,169.54 84.485,172.961 87.781,176.002 83.345,178.283 86.956,183.605 80.494,182.084 82.199,187.298      76.897,185.205 78.781,190.368 72.891,186.836 71.87,191.694 69.28,187.596 64.908,193.298 64.718,187.977 59.919,187.406      62.627,183.605 57.502,179.423    "/>
			<g>
				<circle fill="none" stroke="#000000" stroke-miterlimit="10" cx="73.548" cy="177.392" r="7.256"/>
			</g>
		</g>
		<g>
			<path d="M126.346,152.025h0.598v1.822c0.135-0.175,0.296-0.309,0.483-0.402c0.188-0.092,0.392-0.138,0.611-0.138     c0.457,0,0.828,0.157,1.113,0.47c0.285,0.313,0.427,0.775,0.427,1.386c0,0.579-0.141,1.06-0.422,1.442s-0.671,0.574-1.17,0.574     c-0.279,0-0.515-0.067-0.707-0.202c-0.114-0.08-0.236-0.208-0.367-0.383v0.468h-0.566V152.025z M128.698,156.239     c0.166-0.264,0.249-0.613,0.249-1.046c0-0.385-0.083-0.704-0.249-0.957c-0.165-0.253-0.409-0.379-0.731-0.379     c-0.281,0-0.528,0.104-0.739,0.311c-0.212,0.208-0.317,0.549-0.317,1.025c0,0.344,0.043,0.623,0.13,0.837     c0.163,0.403,0.466,0.605,0.909,0.605C128.283,156.636,128.533,156.503,128.698,156.239z"/>
			<path d="M132.251,154.848c0.142-0.018,0.236-0.077,0.284-0.177c0.027-0.055,0.041-0.134,0.041-0.237     c0-0.21-0.075-0.363-0.224-0.458c-0.149-0.095-0.362-0.143-0.64-0.143c-0.321,0-0.548,0.087-0.683,0.261     c-0.075,0.096-0.124,0.239-0.146,0.429h-0.574c0.012-0.453,0.157-0.767,0.438-0.944s0.607-0.266,0.979-0.266     c0.43,0,0.779,0.082,1.048,0.246c0.267,0.164,0.399,0.419,0.399,0.766v2.109c0,0.064,0.013,0.115,0.039,0.154     s0.082,0.058,0.166,0.058c0.027,0,0.059-0.002,0.092-0.005c0.035-0.004,0.071-0.009,0.109-0.016v0.455     c-0.096,0.027-0.168,0.044-0.219,0.051c-0.05,0.007-0.118,0.01-0.205,0.01c-0.211,0-0.365-0.075-0.461-0.226     c-0.05-0.08-0.086-0.192-0.105-0.338c-0.126,0.164-0.306,0.307-0.541,0.427c-0.234,0.121-0.493,0.181-0.775,0.181     c-0.34,0-0.617-0.103-0.832-0.309c-0.216-0.206-0.323-0.463-0.323-0.773c0-0.339,0.106-0.602,0.317-0.789     c0.213-0.187,0.49-0.302,0.834-0.345L132.251,154.848z M130.956,156.51c0.131,0.102,0.284,0.153,0.462,0.153     c0.217,0,0.426-0.05,0.629-0.15c0.342-0.167,0.513-0.438,0.513-0.816v-0.495c-0.075,0.048-0.172,0.088-0.29,0.12     c-0.118,0.032-0.234,0.055-0.348,0.068l-0.372,0.048c-0.223,0.029-0.391,0.076-0.503,0.14c-0.19,0.107-0.285,0.277-0.285,0.512     C130.761,156.268,130.827,156.407,130.956,156.51z"/>
			<path d="M134.201,153.402h0.584v0.632c0.048-0.123,0.165-0.273,0.352-0.449c0.188-0.177,0.402-0.265,0.646-0.265     c0.012,0,0.031,0.001,0.059,0.003s0.073,0.007,0.14,0.014v0.649c-0.036-0.007-0.07-0.011-0.101-0.014     c-0.031-0.002-0.064-0.003-0.102-0.003c-0.31,0-0.548,0.1-0.714,0.299c-0.166,0.199-0.249,0.429-0.249,0.688v2.105h-0.615     V153.402z"/>
			<path d="M136.532,153.402h0.584v0.632c0.048-0.123,0.165-0.273,0.352-0.449c0.188-0.177,0.402-0.265,0.646-0.265     c0.012,0,0.031,0.001,0.059,0.003s0.073,0.007,0.14,0.014v0.649c-0.036-0.007-0.07-0.011-0.101-0.014     c-0.031-0.002-0.064-0.003-0.102-0.003c-0.31,0-0.548,0.1-0.714,0.299c-0.166,0.199-0.249,0.429-0.249,0.688v2.105h-0.615     V153.402z"/>
			<path d="M138.845,152.042h0.625v0.697h-0.625V152.042z M138.845,153.419h0.625v3.644h-0.625V153.419z"/>
			<path d="M142.662,153.503c0.242,0.122,0.427,0.279,0.554,0.473c0.123,0.185,0.204,0.4,0.245,0.646     c0.036,0.168,0.054,0.438,0.054,0.807h-2.662c0.012,0.373,0.099,0.671,0.261,0.896c0.163,0.225,0.415,0.337,0.757,0.337     c0.318,0,0.573-0.106,0.763-0.319c0.106-0.124,0.182-0.267,0.226-0.429h0.605c-0.016,0.134-0.069,0.284-0.159,0.449     c-0.09,0.166-0.19,0.3-0.301,0.405c-0.186,0.182-0.415,0.305-0.688,0.369c-0.147,0.037-0.313,0.055-0.499,0.055     c-0.453,0-0.837-0.166-1.151-0.497c-0.314-0.332-0.473-0.796-0.473-1.393c0-0.588,0.159-1.065,0.476-1.432     c0.317-0.367,0.731-0.55,1.244-0.55C142.169,153.32,142.419,153.381,142.662,153.503z M142.882,154.94     c-0.024-0.267-0.082-0.479-0.173-0.639c-0.167-0.296-0.446-0.444-0.837-0.444c-0.28,0-0.516,0.102-0.705,0.306     c-0.189,0.204-0.29,0.463-0.302,0.778H142.882z"/>
			<path d="M144.311,153.402h0.584v0.632c0.048-0.123,0.165-0.273,0.352-0.449c0.188-0.177,0.402-0.265,0.646-0.265     c0.012,0,0.031,0.001,0.059,0.003s0.073,0.007,0.14,0.014v0.649c-0.036-0.007-0.07-0.011-0.101-0.014     c-0.031-0.002-0.064-0.003-0.102-0.003c-0.31,0-0.548,0.1-0.714,0.299c-0.166,0.199-0.249,0.429-0.249,0.688v2.105h-0.615     V153.402z"/>
			<path d="M146.99,155.915c0.02,0.205,0.071,0.362,0.157,0.472c0.158,0.198,0.433,0.297,0.823,0.297     c0.232,0,0.438-0.049,0.614-0.149c0.177-0.099,0.265-0.252,0.265-0.459c0-0.157-0.07-0.277-0.211-0.359     c-0.091-0.05-0.27-0.108-0.535-0.174l-0.497-0.123c-0.317-0.078-0.551-0.164-0.701-0.26c-0.269-0.167-0.403-0.396-0.403-0.69     c0-0.346,0.126-0.626,0.379-0.841s0.593-0.321,1.021-0.321c0.559,0,0.962,0.162,1.209,0.485c0.154,0.205,0.229,0.426,0.226,0.663     h-0.582c-0.011-0.138-0.062-0.264-0.15-0.377c-0.145-0.161-0.395-0.241-0.752-0.241c-0.238,0-0.418,0.044-0.54,0.133     c-0.123,0.088-0.185,0.206-0.185,0.351c0,0.159,0.081,0.286,0.242,0.382c0.093,0.057,0.229,0.106,0.41,0.15l0.415,0.099     c0.45,0.107,0.752,0.211,0.905,0.311c0.239,0.157,0.359,0.404,0.359,0.742c0,0.326-0.126,0.607-0.376,0.844     s-0.632,0.355-1.144,0.355c-0.552,0-0.942-0.124-1.172-0.371c-0.229-0.248-0.352-0.553-0.368-0.918H146.99z"/>
		</g>
		<g>
			<g>
				<line fill="none" stroke="#000000" stroke-miterlimit="10" x1="143.484" y1="159.95" x2="145.82" y2="163.89"/>
				<g>
					<polygon points="147.621,166.926 143.335,163.684 145.686,163.663 146.832,161.611      "/>
				</g>
			</g>
		</g>
		<g>
			<g>
				<line fill="none" stroke="#000000" stroke-miterlimit="10" x1="130.621" y1="159.95" x2="128.285" y2="163.89"/>
				<g>
					<polygon points="126.484,166.926 127.272,161.61 128.419,163.663 130.77,163.684      "/>
				</g>
			</g>
		</g>
	</g>
</g>
</svg>