<svg xmlns="http://www.w3.org/2000/svg" xmlns:xlink="http://www.w3.org/1999/xlink" version="1.1" id="illustrator_art" x="0px" y="0px" width="205.826px" height="70.257px" viewBox="0 0 205.826 70.257" enable-background="new 0 0 205.826 70.257" xml:space="preserve">
<g>
	<g>
		<line fill="none" stroke="#000000" stroke-miterlimit="2.414" x1="51.415" y1="2.73" x2="72.108" y2="2.73"/>
		<g>
			<polygon points="75.639,2.73 70.664,4.763 71.844,2.73 70.664,0.698    "/>
		</g>
	</g>
</g>
<g>
	<path d="M0.839,40.527c0.406-0.415,0.922-0.622,1.548-0.622c0.839,0,1.452,0.278,1.84,0.834c0.214,0.312,0.329,0.626,0.345,0.94   H3.52c-0.067-0.242-0.153-0.424-0.258-0.547c-0.188-0.219-0.465-0.328-0.834-0.328c-0.375,0-0.67,0.154-0.887,0.463   c-0.216,0.309-0.325,0.745-0.325,1.311s0.114,0.988,0.343,1.27s0.519,0.422,0.871,0.422c0.361,0,0.636-0.12,0.826-0.361   c0.104-0.131,0.191-0.325,0.261-0.585h1.046c-0.09,0.549-0.321,0.996-0.691,1.34c-0.371,0.344-0.846,0.517-1.425,0.517   c-0.717,0-1.28-0.232-1.691-0.697c-0.41-0.468-0.615-1.107-0.615-1.922C0.139,41.681,0.373,41.003,0.839,40.527z"/>
</g>
<g>
	<path d="M4.115,20.537c0.154,0.215,0.231,0.471,0.231,0.77c0,0.308-0.078,0.555-0.233,0.742c-0.087,0.104-0.215,0.2-0.384,0.287   c0.257,0.093,0.451,0.241,0.582,0.443c0.131,0.203,0.196,0.449,0.196,0.738c0,0.299-0.075,0.566-0.224,0.804   c-0.095,0.157-0.214,0.289-0.357,0.396c-0.161,0.123-0.351,0.207-0.569,0.253s-0.456,0.068-0.712,0.068h-2.27V20H2.81   C3.424,20.009,3.859,20.189,4.115,20.537z M1.38,20.875v1.11h1.225c0.219,0,0.396-0.041,0.533-0.124   c0.136-0.083,0.205-0.231,0.205-0.442c0-0.235-0.09-0.391-0.271-0.465c-0.156-0.053-0.354-0.079-0.596-0.079H1.38z M1.38,22.82   v1.344h1.223c0.218,0,0.389-0.029,0.51-0.089c0.221-0.109,0.331-0.319,0.331-0.629c0-0.262-0.107-0.442-0.321-0.54   c-0.12-0.055-0.288-0.083-0.503-0.086H1.38z"/>
	<path d="M11.23,20.017h0.975l1.444,4.246l1.433-4.246h0.968v5.021H15.4v-2.963c0-0.104,0.002-0.272,0.007-0.51   s0.007-0.491,0.007-0.762l-1.434,4.234h-0.674l-1.447-4.234v0.153c0,0.123,0.003,0.311,0.01,0.562s0.01,0.437,0.01,0.556v2.963   H11.23V20.017z"/>
	<path d="M18.958,22.823c0.141-0.018,0.236-0.077,0.284-0.177c0.027-0.055,0.041-0.134,0.041-0.237c0-0.21-0.075-0.362-0.224-0.458   c-0.149-0.095-0.362-0.143-0.639-0.143c-0.321,0-0.548,0.088-0.683,0.262c-0.075,0.096-0.124,0.239-0.146,0.43h-0.574   c0.011-0.453,0.158-0.768,0.438-0.944c0.281-0.178,0.607-0.267,0.979-0.267c0.43,0,0.779,0.082,1.048,0.246   c0.266,0.164,0.399,0.42,0.399,0.767v2.108c0,0.064,0.013,0.115,0.039,0.154c0.026,0.038,0.082,0.058,0.166,0.058   c0.027,0,0.058-0.002,0.092-0.005c0.034-0.004,0.071-0.009,0.109-0.016v0.455c-0.096,0.027-0.168,0.044-0.219,0.051   s-0.119,0.01-0.205,0.01c-0.212,0-0.366-0.074-0.461-0.225c-0.05-0.08-0.085-0.193-0.106-0.339   c-0.125,0.164-0.305,0.307-0.54,0.428c-0.235,0.12-0.493,0.181-0.776,0.181c-0.339,0-0.617-0.103-0.832-0.309   c-0.216-0.206-0.323-0.464-0.323-0.773c0-0.339,0.106-0.603,0.318-0.789s0.49-0.301,0.834-0.345L18.958,22.823z M17.663,24.485   c0.13,0.103,0.284,0.153,0.461,0.153c0.216,0,0.426-0.05,0.629-0.149c0.342-0.166,0.513-0.438,0.513-0.815v-0.495   c-0.075,0.048-0.172,0.088-0.29,0.12s-0.234,0.055-0.348,0.068l-0.372,0.048c-0.223,0.029-0.39,0.076-0.503,0.14   c-0.19,0.107-0.285,0.277-0.285,0.512C17.468,24.243,17.533,24.383,17.663,24.485z"/>
	<path d="M20.907,21.378h0.584v0.632c0.048-0.123,0.165-0.272,0.352-0.449s0.402-0.265,0.646-0.265c0.011,0,0.031,0.001,0.058,0.003   s0.074,0.007,0.14,0.014v0.649c-0.037-0.007-0.07-0.012-0.101-0.014c-0.031-0.002-0.064-0.004-0.101-0.004   c-0.31,0-0.548,0.101-0.714,0.3s-0.25,0.429-0.25,0.688v2.105h-0.615V21.378z"/>
	<path d="M25.639,21.573c0.259,0.2,0.415,0.546,0.467,1.036h-0.598c-0.037-0.227-0.12-0.413-0.25-0.562s-0.338-0.225-0.625-0.225   c-0.392,0-0.672,0.191-0.841,0.574c-0.109,0.248-0.164,0.554-0.164,0.918c0,0.366,0.078,0.675,0.232,0.925   c0.155,0.251,0.399,0.376,0.731,0.376c0.255,0,0.458-0.078,0.607-0.233c0.149-0.155,0.252-0.368,0.309-0.638h0.598   c-0.068,0.484-0.239,0.84-0.513,1.064s-0.623,0.336-1.049,0.336c-0.479,0-0.86-0.175-1.145-0.524s-0.427-0.786-0.427-1.311   c0-0.643,0.156-1.143,0.468-1.501c0.312-0.357,0.71-0.536,1.193-0.536C25.045,21.272,25.38,21.373,25.639,21.573z"/>
	<path d="M26.721,20h0.615v1.873c0.146-0.185,0.277-0.314,0.393-0.39c0.198-0.13,0.445-0.195,0.742-0.195   c0.531,0,0.891,0.187,1.08,0.558c0.103,0.203,0.154,0.484,0.154,0.845v2.348h-0.632v-2.307c0-0.27-0.034-0.467-0.103-0.592   c-0.112-0.2-0.321-0.301-0.629-0.301c-0.255,0-0.486,0.088-0.694,0.264c-0.208,0.175-0.311,0.507-0.311,0.994v1.941h-0.615V20z"/>
	<path d="M32.682,20.356h0.622v1.022h0.584v0.502h-0.584v2.389c0,0.128,0.043,0.214,0.13,0.257c0.048,0.025,0.127,0.038,0.239,0.038   c0.03,0,0.062-0.001,0.096-0.003c0.034-0.001,0.074-0.005,0.12-0.011v0.488c-0.071,0.021-0.144,0.035-0.22,0.045   c-0.077,0.009-0.159,0.014-0.248,0.014c-0.287,0-0.482-0.074-0.584-0.221c-0.103-0.147-0.154-0.338-0.154-0.572V21.88h-0.496   v-0.502h0.496V20.356z"/>
	<path d="M36.765,21.479c0.242,0.122,0.427,0.279,0.554,0.474c0.122,0.184,0.204,0.399,0.245,0.646   c0.036,0.169,0.054,0.438,0.054,0.807h-2.663c0.011,0.372,0.098,0.671,0.261,0.896c0.163,0.225,0.415,0.337,0.756,0.337   c0.318,0,0.573-0.105,0.763-0.318c0.106-0.124,0.182-0.268,0.226-0.43h0.605c-0.016,0.135-0.069,0.284-0.159,0.449   c-0.09,0.165-0.19,0.301-0.301,0.405c-0.186,0.183-0.415,0.306-0.689,0.369c-0.147,0.036-0.313,0.055-0.499,0.055   c-0.453,0-0.836-0.166-1.151-0.497c-0.315-0.332-0.472-0.796-0.472-1.393c0-0.588,0.159-1.065,0.476-1.433s0.731-0.55,1.243-0.55   C36.272,21.296,36.522,21.357,36.765,21.479z M36.985,22.916c-0.025-0.266-0.083-0.479-0.173-0.639   c-0.167-0.296-0.446-0.444-0.837-0.444c-0.28,0-0.516,0.102-0.705,0.306c-0.19,0.204-0.291,0.463-0.302,0.777H36.985z"/>
	<path d="M38.396,21.378h0.608v0.52c0.146-0.181,0.278-0.312,0.396-0.394c0.203-0.139,0.433-0.208,0.69-0.208   c0.292,0,0.526,0.071,0.704,0.215c0.1,0.082,0.191,0.203,0.273,0.362c0.137-0.196,0.297-0.341,0.482-0.436s0.392-0.142,0.622-0.142   c0.492,0,0.827,0.178,1.005,0.533c0.096,0.191,0.144,0.448,0.144,0.771v2.438h-0.639v-2.543c0-0.244-0.061-0.411-0.183-0.502   c-0.122-0.092-0.271-0.137-0.446-0.137c-0.242,0-0.449,0.08-0.624,0.242c-0.174,0.162-0.261,0.432-0.261,0.811v2.129h-0.625V22.65   c0-0.249-0.03-0.43-0.089-0.544c-0.093-0.171-0.268-0.257-0.523-0.257c-0.232,0-0.444,0.091-0.634,0.271   c-0.19,0.18-0.285,0.506-0.285,0.978v1.941h-0.615V21.378z"/>
	<path d="M44.176,21.395h0.602v0.485c0.124-0.166,0.258-0.295,0.404-0.387c0.208-0.137,0.452-0.205,0.733-0.205   c0.416,0,0.769,0.159,1.059,0.478c0.29,0.317,0.435,0.771,0.435,1.362c0,0.797-0.209,1.367-0.628,1.709   c-0.266,0.216-0.574,0.324-0.926,0.324c-0.277,0-0.509-0.061-0.697-0.182c-0.11-0.068-0.232-0.186-0.367-0.352v1.869h-0.615V21.395   z M46.491,24.264c0.19-0.24,0.286-0.6,0.286-1.078c0-0.292-0.042-0.542-0.127-0.752c-0.16-0.403-0.453-0.604-0.878-0.604   c-0.428,0-0.72,0.213-0.878,0.639c-0.084,0.228-0.127,0.518-0.127,0.868c0,0.282,0.042,0.522,0.127,0.722   c0.16,0.378,0.453,0.566,0.878,0.566C46.061,24.625,46.3,24.504,46.491,24.264z"/>
</g>
<g>
	<path d="M1.798,0H2.99l1.782,5.038H3.63L3.298,4.003H1.443L1.101,5.039H0L1.798,0z M1.729,3.134H3.02L2.383,1.152L1.729,3.134z"/>
	<path d="M11.23,0.017h0.975l1.444,4.246l1.433-4.246h0.968v5.021H15.4V2.076c0-0.104,0.002-0.272,0.007-0.51   s0.007-0.491,0.007-0.762L13.98,5.039h-0.674l-1.447-4.234v0.153c0,0.123,0.003,0.311,0.01,0.562s0.01,0.437,0.01,0.556v2.963   H11.23V0.017z"/>
	<path d="M18.958,2.823c0.141-0.018,0.236-0.077,0.284-0.177c0.027-0.055,0.041-0.134,0.041-0.237c0-0.21-0.075-0.362-0.224-0.458   c-0.149-0.095-0.362-0.143-0.639-0.143c-0.321,0-0.548,0.088-0.683,0.262c-0.075,0.096-0.124,0.239-0.146,0.43h-0.574   c0.011-0.453,0.158-0.768,0.438-0.944c0.281-0.178,0.607-0.267,0.979-0.267c0.43,0,0.779,0.082,1.048,0.246   c0.266,0.164,0.399,0.42,0.399,0.767V4.41c0,0.064,0.013,0.115,0.039,0.154c0.026,0.038,0.082,0.058,0.166,0.058   c0.027,0,0.058-0.002,0.092-0.005c0.034-0.004,0.071-0.009,0.109-0.016v0.455C20.192,5.083,20.12,5.1,20.069,5.107   s-0.119,0.01-0.205,0.01c-0.212,0-0.366-0.074-0.461-0.225c-0.05-0.08-0.085-0.193-0.106-0.339   c-0.125,0.164-0.305,0.307-0.54,0.428c-0.235,0.12-0.493,0.181-0.776,0.181c-0.339,0-0.617-0.103-0.832-0.309   c-0.216-0.206-0.323-0.464-0.323-0.773c0-0.339,0.106-0.603,0.318-0.789s0.49-0.301,0.834-0.345L18.958,2.823z M17.663,4.485   c0.13,0.103,0.284,0.153,0.461,0.153c0.216,0,0.426-0.05,0.629-0.149c0.342-0.166,0.513-0.438,0.513-0.815V3.178   c-0.075,0.048-0.172,0.088-0.29,0.12s-0.234,0.055-0.348,0.068l-0.372,0.048c-0.223,0.029-0.39,0.076-0.503,0.14   c-0.19,0.107-0.285,0.277-0.285,0.512C17.468,4.243,17.533,4.383,17.663,4.485z"/>
	<path d="M20.907,1.378h0.584V2.01c0.048-0.123,0.165-0.272,0.352-0.449s0.402-0.265,0.646-0.265c0.011,0,0.031,0.001,0.058,0.003   s0.074,0.007,0.14,0.014v0.649c-0.037-0.007-0.07-0.012-0.101-0.014c-0.031-0.002-0.064-0.004-0.101-0.004   c-0.31,0-0.548,0.101-0.714,0.3s-0.25,0.429-0.25,0.688v2.105h-0.615V1.378z"/>
	<path d="M25.639,1.573c0.259,0.2,0.415,0.546,0.467,1.036h-0.598c-0.037-0.227-0.12-0.413-0.25-0.562s-0.338-0.225-0.625-0.225   c-0.392,0-0.672,0.191-0.841,0.574c-0.109,0.248-0.164,0.554-0.164,0.918c0,0.366,0.078,0.675,0.232,0.925   c0.155,0.251,0.399,0.376,0.731,0.376c0.255,0,0.458-0.078,0.607-0.233c0.149-0.155,0.252-0.368,0.309-0.638h0.598   c-0.068,0.484-0.239,0.84-0.513,1.064s-0.623,0.336-1.049,0.336c-0.479,0-0.86-0.175-1.145-0.524s-0.427-0.786-0.427-1.311   c0-0.643,0.156-1.143,0.468-1.501c0.312-0.357,0.71-0.536,1.193-0.536C25.045,1.272,25.38,1.373,25.639,1.573z"/>
	<path d="M26.721,0h0.615v1.873c0.146-0.185,0.277-0.314,0.393-0.39c0.198-0.13,0.445-0.195,0.742-0.195   c0.531,0,0.891,0.187,1.08,0.558c0.103,0.203,0.154,0.484,0.154,0.845v2.348h-0.632V2.732c0-0.27-0.034-0.467-0.103-0.592   c-0.112-0.2-0.321-0.301-0.629-0.301c-0.255,0-0.486,0.088-0.694,0.264c-0.208,0.175-0.311,0.507-0.311,0.994v1.941h-0.615V0z"/>
	<path d="M32.682,0.356h0.622v1.022h0.584V1.88h-0.584v2.389c0,0.128,0.043,0.214,0.13,0.257c0.048,0.025,0.127,0.038,0.239,0.038   c0.03,0,0.062-0.001,0.096-0.003c0.034-0.001,0.074-0.005,0.12-0.011v0.488c-0.071,0.021-0.144,0.035-0.22,0.045   c-0.077,0.009-0.159,0.014-0.248,0.014c-0.287,0-0.482-0.074-0.584-0.221c-0.103-0.147-0.154-0.338-0.154-0.572V1.88h-0.496V1.378   h0.496V0.356z"/>
	<path d="M36.765,1.479c0.242,0.122,0.427,0.279,0.554,0.474c0.122,0.184,0.204,0.399,0.245,0.646   c0.036,0.169,0.054,0.438,0.054,0.807h-2.663c0.011,0.372,0.098,0.671,0.261,0.896c0.163,0.225,0.415,0.337,0.756,0.337   c0.318,0,0.573-0.105,0.763-0.318c0.106-0.124,0.182-0.268,0.226-0.43h0.605c-0.016,0.135-0.069,0.284-0.159,0.449   c-0.09,0.165-0.19,0.301-0.301,0.405c-0.186,0.183-0.415,0.306-0.689,0.369c-0.147,0.036-0.313,0.055-0.499,0.055   c-0.453,0-0.836-0.166-1.151-0.497c-0.315-0.332-0.472-0.796-0.472-1.393c0-0.588,0.159-1.065,0.476-1.433s0.731-0.55,1.243-0.55   C36.272,1.296,36.522,1.357,36.765,1.479z M36.985,2.916c-0.025-0.266-0.083-0.479-0.173-0.639   c-0.167-0.296-0.446-0.444-0.837-0.444c-0.28,0-0.516,0.102-0.705,0.306c-0.19,0.204-0.291,0.463-0.302,0.777H36.985z"/>
	<path d="M38.396,1.378h0.608v0.52c0.146-0.181,0.278-0.312,0.396-0.394c0.203-0.139,0.433-0.208,0.69-0.208   c0.292,0,0.526,0.071,0.704,0.215c0.1,0.082,0.191,0.203,0.273,0.362c0.137-0.196,0.297-0.341,0.482-0.436s0.392-0.142,0.622-0.142   c0.492,0,0.827,0.178,1.005,0.533c0.096,0.191,0.144,0.448,0.144,0.771v2.438h-0.639V2.496c0-0.244-0.061-0.411-0.183-0.502   c-0.122-0.092-0.271-0.137-0.446-0.137c-0.242,0-0.449,0.08-0.624,0.242c-0.174,0.162-0.261,0.432-0.261,0.811v2.129h-0.625V2.65   c0-0.249-0.03-0.43-0.089-0.544c-0.093-0.171-0.268-0.257-0.523-0.257c-0.232,0-0.444,0.091-0.634,0.271   c-0.19,0.18-0.285,0.506-0.285,0.978v1.941h-0.615V1.378z"/>
	<path d="M44.176,1.395h0.602V1.88c0.124-0.166,0.258-0.295,0.404-0.387c0.208-0.137,0.452-0.205,0.733-0.205   c0.416,0,0.769,0.159,1.059,0.478c0.29,0.317,0.435,0.771,0.435,1.362c0,0.797-0.209,1.367-0.628,1.709   c-0.266,0.216-0.574,0.324-0.926,0.324c-0.277,0-0.509-0.061-0.697-0.182c-0.11-0.068-0.232-0.186-0.367-0.352v1.869h-0.615V1.395z    M46.491,4.264c0.19-0.24,0.286-0.6,0.286-1.078c0-0.292-0.042-0.542-0.127-0.752c-0.16-0.403-0.453-0.604-0.878-0.604   c-0.428,0-0.72,0.213-0.878,0.639c-0.084,0.228-0.127,0.518-0.127,0.868c0,0.282,0.042,0.522,0.127,0.722   c0.16,0.378,0.453,0.566,0.878,0.566C46.061,4.625,46.3,4.504,46.491,4.264z"/>
</g>
<g>
	<path d="M12.562,63.686h0.975l1.444,4.246l1.434-4.246h0.968v5.021h-0.65v-2.963c0-0.104,0.003-0.272,0.008-0.51   c0.004-0.237,0.006-0.491,0.006-0.762l-1.433,4.234h-0.675l-1.447-4.234v0.153c0,0.123,0.004,0.311,0.011,0.562   s0.011,0.437,0.011,0.556v2.963h-0.65V63.686z"/>
	<path d="M20.29,66.492c0.142-0.018,0.236-0.077,0.284-0.177c0.027-0.055,0.041-0.134,0.041-0.237c0-0.21-0.075-0.362-0.224-0.458   c-0.149-0.095-0.362-0.143-0.64-0.143c-0.321,0-0.548,0.088-0.683,0.262c-0.075,0.096-0.124,0.239-0.146,0.43h-0.574   c0.012-0.453,0.157-0.768,0.438-0.944c0.281-0.178,0.607-0.267,0.979-0.267c0.43,0,0.779,0.082,1.048,0.246   c0.267,0.164,0.399,0.42,0.399,0.767v2.108c0,0.064,0.013,0.115,0.039,0.154c0.026,0.038,0.082,0.058,0.166,0.058   c0.027,0,0.059-0.002,0.092-0.005c0.035-0.004,0.071-0.009,0.109-0.016v0.455c-0.096,0.027-0.168,0.044-0.219,0.051   c-0.05,0.007-0.118,0.01-0.205,0.01c-0.211,0-0.365-0.074-0.461-0.225c-0.05-0.08-0.086-0.193-0.105-0.339   c-0.126,0.164-0.306,0.307-0.541,0.428c-0.234,0.12-0.493,0.181-0.775,0.181c-0.34,0-0.617-0.103-0.832-0.309   c-0.216-0.206-0.323-0.464-0.323-0.773c0-0.339,0.106-0.603,0.317-0.789c0.213-0.187,0.49-0.301,0.834-0.345L20.29,66.492z    M18.994,68.154c0.131,0.103,0.284,0.153,0.462,0.153c0.217,0,0.426-0.05,0.629-0.149c0.342-0.166,0.513-0.438,0.513-0.815v-0.495   c-0.075,0.048-0.172,0.088-0.29,0.12s-0.234,0.055-0.348,0.068l-0.372,0.048c-0.223,0.029-0.391,0.076-0.503,0.14   c-0.19,0.107-0.285,0.277-0.285,0.512C18.8,67.912,18.865,68.052,18.994,68.154z"/>
	<path d="M22.239,65.047h0.584v0.632c0.048-0.123,0.165-0.272,0.352-0.449c0.188-0.177,0.402-0.265,0.646-0.265   c0.012,0,0.031,0.001,0.059,0.003s0.073,0.007,0.14,0.014v0.649c-0.036-0.007-0.07-0.012-0.101-0.014   c-0.031-0.002-0.064-0.004-0.102-0.004c-0.31,0-0.548,0.101-0.714,0.3s-0.249,0.429-0.249,0.688v2.105h-0.615V65.047z"/>
	<path d="M26.971,65.242c0.259,0.2,0.414,0.546,0.467,1.036H26.84c-0.037-0.227-0.12-0.413-0.25-0.562s-0.338-0.225-0.625-0.225   c-0.393,0-0.673,0.191-0.842,0.574c-0.109,0.248-0.164,0.554-0.164,0.918c0,0.366,0.078,0.675,0.232,0.925   c0.155,0.251,0.399,0.376,0.732,0.376c0.255,0,0.457-0.078,0.606-0.233s0.252-0.368,0.31-0.638h0.598   c-0.068,0.484-0.239,0.84-0.513,1.064s-0.623,0.336-1.05,0.336c-0.479,0-0.859-0.175-1.145-0.524s-0.428-0.786-0.428-1.311   c0-0.643,0.156-1.143,0.469-1.501c0.312-0.357,0.71-0.536,1.193-0.536C26.377,64.941,26.712,65.042,26.971,65.242z"/>
	<path d="M28.053,63.669h0.615v1.873c0.146-0.185,0.277-0.314,0.393-0.39c0.199-0.13,0.446-0.195,0.742-0.195   c0.531,0,0.891,0.187,1.08,0.558c0.103,0.203,0.154,0.484,0.154,0.845v2.348h-0.633v-2.307c0-0.27-0.034-0.467-0.103-0.592   c-0.111-0.2-0.321-0.301-0.629-0.301c-0.255,0-0.486,0.088-0.694,0.264c-0.207,0.175-0.311,0.507-0.311,0.994v1.941h-0.615V63.669z   "/>
	<path d="M34.015,64.025h0.622v1.022h0.585v0.502h-0.585v2.389c0,0.128,0.043,0.214,0.13,0.257c0.048,0.025,0.128,0.038,0.239,0.038   c0.029,0,0.062-0.001,0.096-0.003c0.034-0.001,0.074-0.005,0.12-0.011v0.488c-0.071,0.021-0.145,0.035-0.221,0.045   c-0.076,0.009-0.159,0.014-0.248,0.014c-0.287,0-0.482-0.074-0.584-0.221c-0.104-0.147-0.154-0.338-0.154-0.572v-2.424h-0.496   v-0.502h0.496V64.025z"/>
	<path d="M38.098,65.148c0.242,0.122,0.427,0.279,0.554,0.474c0.123,0.184,0.204,0.399,0.245,0.646   c0.036,0.169,0.054,0.438,0.054,0.807h-2.662c0.012,0.372,0.099,0.671,0.261,0.896c0.163,0.225,0.415,0.337,0.757,0.337   c0.318,0,0.573-0.105,0.763-0.318c0.106-0.124,0.182-0.268,0.226-0.43h0.605c-0.016,0.135-0.069,0.284-0.159,0.449   s-0.19,0.301-0.301,0.405c-0.186,0.183-0.415,0.306-0.688,0.369c-0.147,0.036-0.313,0.055-0.499,0.055   c-0.453,0-0.837-0.166-1.151-0.497c-0.314-0.332-0.473-0.796-0.473-1.393c0-0.588,0.159-1.065,0.476-1.433   c0.317-0.367,0.731-0.55,1.244-0.55C37.605,64.965,37.855,65.026,38.098,65.148z M38.318,66.584   c-0.024-0.266-0.082-0.479-0.173-0.639c-0.167-0.296-0.446-0.444-0.837-0.444c-0.28,0-0.516,0.102-0.705,0.306   s-0.29,0.463-0.302,0.777H38.318z"/>
	<path d="M39.729,65.047h0.608v0.52c0.146-0.181,0.278-0.312,0.396-0.394c0.203-0.139,0.433-0.208,0.69-0.208   c0.292,0,0.526,0.071,0.704,0.215c0.101,0.082,0.191,0.203,0.273,0.362c0.137-0.196,0.298-0.341,0.481-0.436   c0.186-0.095,0.393-0.142,0.623-0.142c0.492,0,0.826,0.178,1.004,0.533c0.096,0.191,0.145,0.448,0.145,0.771v2.438h-0.64v-2.543   c0-0.244-0.061-0.411-0.183-0.502c-0.122-0.092-0.271-0.137-0.446-0.137c-0.241,0-0.449,0.08-0.624,0.242   c-0.174,0.162-0.262,0.432-0.262,0.811v2.129h-0.625v-2.389c0-0.249-0.029-0.43-0.089-0.544c-0.094-0.171-0.268-0.257-0.522-0.257   c-0.232,0-0.444,0.091-0.635,0.271s-0.285,0.506-0.285,0.978v1.941h-0.615V65.047z"/>
	<path d="M45.51,65.064h0.602v0.485c0.123-0.166,0.258-0.295,0.404-0.387c0.207-0.137,0.452-0.205,0.733-0.205   c0.415,0,0.769,0.159,1.059,0.478c0.29,0.317,0.435,0.771,0.435,1.362c0,0.797-0.209,1.367-0.628,1.709   c-0.265,0.216-0.574,0.324-0.926,0.324c-0.277,0-0.509-0.061-0.697-0.182c-0.109-0.068-0.231-0.186-0.366-0.352v1.869H45.51V65.064   z M47.824,67.933c0.19-0.24,0.286-0.6,0.286-1.078c0-0.292-0.042-0.542-0.127-0.752c-0.16-0.403-0.453-0.604-0.878-0.604   c-0.428,0-0.721,0.213-0.878,0.639c-0.085,0.228-0.127,0.518-0.127,0.868c0,0.282,0.042,0.522,0.127,0.722   c0.16,0.378,0.452,0.566,0.878,0.566C47.394,68.293,47.633,68.173,47.824,67.933z"/>
</g>
<g>
	<g>
		<line fill="none" stroke="#000000" stroke-miterlimit="2.414" x1="137.415" y1="22.73" x2="158.108" y2="22.73"/>
		<g>
			<polygon points="161.639,22.73 156.664,24.763 157.845,22.73 156.664,20.698    "/>
		</g>
	</g>
</g>
<g>
	<path d="M165.851,20h0.598v1.821c0.135-0.175,0.296-0.309,0.483-0.401c0.188-0.092,0.392-0.138,0.611-0.138   c0.457,0,0.828,0.156,1.113,0.47s0.427,0.775,0.427,1.386c0,0.579-0.141,1.06-0.422,1.442s-0.671,0.574-1.17,0.574   c-0.279,0-0.515-0.067-0.707-0.202c-0.114-0.079-0.236-0.207-0.367-0.383v0.469h-0.566V20z M168.202,24.214   c0.166-0.264,0.249-0.612,0.249-1.045c0-0.386-0.083-0.705-0.249-0.957c-0.165-0.254-0.409-0.38-0.731-0.38   c-0.281,0-0.528,0.104-0.739,0.312c-0.212,0.207-0.317,0.549-0.317,1.025c0,0.344,0.043,0.623,0.13,0.837   c0.163,0.403,0.466,0.604,0.909,0.604C167.787,24.61,168.037,24.479,168.202,24.214z"/>
	<path d="M169.795,20.017h0.625v0.697h-0.625V20.017z M169.795,21.395h0.625v3.644h-0.625V21.395z"/>
	<path d="M171.367,21.378h0.584v0.632c0.048-0.123,0.165-0.272,0.352-0.449c0.188-0.177,0.402-0.265,0.646-0.265   c0.012,0,0.031,0.001,0.059,0.003s0.073,0.007,0.14,0.014v0.649c-0.036-0.007-0.07-0.012-0.101-0.014   c-0.031-0.002-0.064-0.004-0.102-0.004c-0.31,0-0.548,0.101-0.714,0.3s-0.249,0.429-0.249,0.688v2.105h-0.615V21.378z"/>
	<path d="M175.691,21.49c0.109,0.068,0.233,0.188,0.372,0.358V20h0.591v5.038h-0.554v-0.51c-0.143,0.227-0.312,0.389-0.508,0.489   c-0.194,0.101-0.418,0.15-0.67,0.15c-0.406,0-0.759-0.172-1.056-0.515c-0.298-0.343-0.446-0.799-0.446-1.369   c0-0.533,0.136-0.995,0.407-1.386c0.271-0.391,0.658-0.586,1.162-0.586C175.27,21.312,175.504,21.372,175.691,21.49z    M174.318,24.235c0.166,0.264,0.431,0.396,0.796,0.396c0.283,0,0.517-0.123,0.699-0.368s0.273-0.597,0.273-1.054   c0-0.463-0.094-0.806-0.282-1.027c-0.188-0.223-0.421-0.334-0.697-0.334c-0.309,0-0.559,0.119-0.75,0.355   c-0.191,0.237-0.287,0.586-0.287,1.047C174.07,23.643,174.153,23.971,174.318,24.235z"/>
	<path d="M179.469,20h0.598v1.821c0.135-0.175,0.296-0.309,0.483-0.401c0.188-0.092,0.392-0.138,0.611-0.138   c0.457,0,0.828,0.156,1.113,0.47s0.427,0.775,0.427,1.386c0,0.579-0.141,1.06-0.422,1.442s-0.671,0.574-1.17,0.574   c-0.279,0-0.515-0.067-0.707-0.202c-0.114-0.079-0.236-0.207-0.367-0.383v0.469h-0.566V20z M181.82,24.214   c0.166-0.264,0.249-0.612,0.249-1.045c0-0.386-0.083-0.705-0.249-0.957c-0.165-0.254-0.409-0.38-0.731-0.38   c-0.281,0-0.528,0.104-0.739,0.312c-0.212,0.207-0.317,0.549-0.317,1.025c0,0.344,0.043,0.623,0.13,0.837   c0.163,0.403,0.466,0.604,0.909,0.604C181.405,24.61,181.655,24.479,181.82,24.214z"/>
	<path d="M183.43,21.378h0.584v0.632c0.048-0.123,0.165-0.272,0.352-0.449c0.188-0.177,0.402-0.265,0.646-0.265   c0.012,0,0.031,0.001,0.059,0.003s0.073,0.007,0.14,0.014v0.649c-0.036-0.007-0.07-0.012-0.101-0.014   c-0.031-0.002-0.064-0.004-0.102-0.004c-0.31,0-0.548,0.101-0.714,0.3s-0.249,0.429-0.249,0.688v2.105h-0.615V21.378z"/>
	<path d="M188.004,21.479c0.242,0.122,0.427,0.279,0.554,0.474c0.123,0.184,0.204,0.399,0.245,0.646   c0.036,0.169,0.054,0.438,0.054,0.807h-2.662c0.012,0.372,0.099,0.671,0.261,0.896c0.163,0.225,0.415,0.337,0.757,0.337   c0.318,0,0.573-0.105,0.763-0.318c0.106-0.124,0.182-0.268,0.226-0.43h0.605c-0.016,0.135-0.069,0.284-0.159,0.449   s-0.19,0.301-0.301,0.405c-0.186,0.183-0.415,0.306-0.688,0.369c-0.147,0.036-0.313,0.055-0.499,0.055   c-0.453,0-0.837-0.166-1.151-0.497c-0.314-0.332-0.473-0.796-0.473-1.393c0-0.588,0.159-1.065,0.476-1.433   c0.317-0.367,0.731-0.55,1.244-0.55C187.512,21.296,187.762,21.356,188.004,21.479z M188.225,22.915   c-0.024-0.266-0.082-0.479-0.173-0.639c-0.167-0.296-0.446-0.444-0.837-0.444c-0.28,0-0.516,0.102-0.705,0.306   s-0.29,0.463-0.302,0.777H188.225z"/>
	<path d="M191.897,21.479c0.242,0.122,0.427,0.279,0.554,0.474c0.123,0.184,0.204,0.399,0.245,0.646   c0.036,0.169,0.054,0.438,0.054,0.807h-2.662c0.012,0.372,0.099,0.671,0.261,0.896c0.163,0.225,0.415,0.337,0.757,0.337   c0.318,0,0.573-0.105,0.763-0.318c0.106-0.124,0.182-0.268,0.226-0.43h0.605c-0.016,0.135-0.069,0.284-0.159,0.449   s-0.19,0.301-0.301,0.405c-0.186,0.183-0.415,0.306-0.688,0.369c-0.147,0.036-0.313,0.055-0.499,0.055   c-0.453,0-0.837-0.166-1.151-0.497c-0.314-0.332-0.473-0.796-0.473-1.393c0-0.588,0.159-1.065,0.476-1.433   c0.317-0.367,0.731-0.55,1.244-0.55C191.405,21.296,191.655,21.356,191.897,21.479z M192.118,22.915   c-0.024-0.266-0.082-0.479-0.173-0.639c-0.167-0.296-0.446-0.444-0.837-0.444c-0.28,0-0.516,0.102-0.705,0.306   s-0.29,0.463-0.302,0.777H192.118z"/>
	<path d="M195.54,21.49c0.109,0.068,0.233,0.188,0.372,0.358V20h0.591v5.038h-0.554v-0.51c-0.143,0.227-0.312,0.389-0.508,0.489   c-0.194,0.101-0.418,0.15-0.67,0.15c-0.406,0-0.759-0.172-1.056-0.515c-0.298-0.343-0.446-0.799-0.446-1.369   c0-0.533,0.136-0.995,0.407-1.386c0.271-0.391,0.658-0.586,1.162-0.586C195.118,21.312,195.353,21.372,195.54,21.49z    M194.167,24.235c0.166,0.264,0.431,0.396,0.796,0.396c0.283,0,0.517-0.123,0.699-0.368s0.273-0.597,0.273-1.054   c0-0.463-0.094-0.806-0.282-1.027c-0.188-0.223-0.421-0.334-0.697-0.334c-0.309,0-0.559,0.119-0.75,0.355   c-0.191,0.237-0.287,0.586-0.287,1.047C193.919,23.643,194.002,23.971,194.167,24.235z"/>
	<path d="M197.422,20.017h0.625v0.697h-0.625V20.017z M197.422,21.395h0.625v3.644h-0.625V21.395z"/>
	<path d="M198.977,21.378h0.584v0.52c0.174-0.215,0.357-0.368,0.551-0.462s0.409-0.14,0.646-0.14c0.52,0,0.87,0.181,1.053,0.543   c0.1,0.198,0.15,0.482,0.15,0.852v2.348h-0.626v-2.307c0-0.224-0.033-0.404-0.099-0.541c-0.109-0.228-0.309-0.342-0.596-0.342   c-0.146,0-0.265,0.016-0.358,0.045c-0.169,0.05-0.316,0.15-0.444,0.301c-0.103,0.121-0.169,0.245-0.2,0.374   c-0.03,0.129-0.046,0.313-0.046,0.552v1.918h-0.615V21.378z"/>
	<path d="M204.904,21.524c0.115,0.08,0.233,0.196,0.354,0.349v-0.462h0.568v3.33c0,0.465-0.068,0.831-0.205,1.1   c-0.254,0.497-0.734,0.746-1.44,0.746c-0.394,0-0.724-0.089-0.991-0.266c-0.269-0.177-0.418-0.453-0.45-0.828h0.626   c0.029,0.164,0.088,0.29,0.177,0.379c0.138,0.137,0.355,0.205,0.652,0.205c0.469,0,0.776-0.166,0.921-0.499   c0.086-0.196,0.126-0.546,0.119-1.05c-0.123,0.188-0.271,0.326-0.442,0.418c-0.173,0.091-0.4,0.137-0.685,0.137   c-0.395,0-0.74-0.142-1.037-0.423c-0.296-0.281-0.443-0.747-0.443-1.396c0-0.613,0.148-1.092,0.447-1.436   c0.299-0.345,0.659-0.517,1.081-0.517C204.441,21.312,204.69,21.383,204.904,21.524z M204.979,22.185   c-0.186-0.219-0.423-0.328-0.711-0.328c-0.431,0-0.726,0.202-0.884,0.607c-0.084,0.217-0.126,0.501-0.126,0.852   c0,0.412,0.083,0.727,0.25,0.941c0.167,0.216,0.391,0.323,0.672,0.323c0.439,0,0.749-0.199,0.928-0.599   c0.1-0.225,0.149-0.488,0.149-0.789C205.258,22.739,205.165,22.403,204.979,22.185z"/>
</g>
<g>
	<g>
		<line fill="none" stroke="#000000" stroke-miterlimit="2.414" x1="51.415" y1="22.73" x2="72.108" y2="22.73"/>
		<g>
			<polygon points="75.639,22.73 70.664,24.763 71.844,22.73 70.664,20.698    "/>
		</g>
	</g>
</g>
<g>
	<path d="M79.706,20.017h0.625v0.697h-0.625V20.017z M79.706,21.395h0.625v3.644h-0.625V21.395z"/>
	<path d="M81.262,21.378h0.584v0.52c0.174-0.215,0.357-0.368,0.551-0.462s0.409-0.14,0.646-0.14c0.52,0,0.87,0.181,1.053,0.543   c0.1,0.198,0.15,0.482,0.15,0.852v2.348H83.62v-2.307c0-0.224-0.033-0.404-0.099-0.541c-0.109-0.228-0.309-0.342-0.596-0.342   c-0.146,0-0.265,0.016-0.358,0.045c-0.169,0.05-0.316,0.15-0.444,0.301c-0.103,0.121-0.169,0.245-0.2,0.374   c-0.03,0.129-0.046,0.313-0.046,0.552v1.918h-0.615V21.378z"/>
	<path d="M85.52,23.89c0.02,0.205,0.071,0.362,0.157,0.472c0.158,0.198,0.433,0.298,0.823,0.298c0.232,0,0.438-0.05,0.614-0.149   c0.177-0.099,0.265-0.252,0.265-0.46c0-0.156-0.07-0.276-0.211-0.358c-0.091-0.05-0.27-0.108-0.535-0.175l-0.497-0.123   c-0.317-0.077-0.551-0.164-0.701-0.26c-0.269-0.166-0.403-0.396-0.403-0.689c0-0.347,0.126-0.627,0.379-0.842   c0.253-0.214,0.593-0.32,1.021-0.32c0.559,0,0.962,0.161,1.209,0.484c0.154,0.205,0.229,0.427,0.226,0.664h-0.582   c-0.011-0.139-0.062-0.265-0.15-0.378c-0.145-0.161-0.395-0.241-0.752-0.241c-0.238,0-0.418,0.044-0.54,0.133   c-0.123,0.089-0.185,0.205-0.185,0.351c0,0.159,0.081,0.286,0.242,0.382c0.093,0.057,0.229,0.106,0.41,0.15l0.415,0.099   c0.45,0.107,0.752,0.211,0.905,0.312c0.239,0.156,0.359,0.404,0.359,0.741c0,0.326-0.126,0.607-0.376,0.845   c-0.25,0.236-0.632,0.355-1.144,0.355c-0.552,0-0.942-0.124-1.172-0.371s-0.352-0.554-0.368-0.918H85.52z"/>
	<path d="M90.915,21.479c0.242,0.122,0.427,0.279,0.554,0.474c0.123,0.184,0.204,0.399,0.245,0.646   c0.036,0.169,0.054,0.438,0.054,0.807h-2.662c0.012,0.372,0.099,0.671,0.261,0.896c0.163,0.225,0.415,0.337,0.757,0.337   c0.318,0,0.573-0.105,0.763-0.318c0.106-0.124,0.182-0.268,0.226-0.43h0.605c-0.016,0.135-0.069,0.284-0.159,0.449   s-0.19,0.301-0.301,0.405c-0.186,0.183-0.415,0.306-0.688,0.369c-0.147,0.036-0.313,0.055-0.499,0.055   c-0.453,0-0.837-0.166-1.151-0.497c-0.314-0.332-0.473-0.796-0.473-1.393c0-0.588,0.159-1.065,0.476-1.433   c0.317-0.367,0.731-0.55,1.244-0.55C90.423,21.296,90.673,21.356,90.915,21.479z M91.136,22.915   c-0.024-0.266-0.082-0.479-0.173-0.639c-0.167-0.296-0.446-0.444-0.837-0.444c-0.28,0-0.516,0.102-0.705,0.306   s-0.29,0.463-0.302,0.777H91.136z"/>
	<path d="M94.965,21.572c0.259,0.2,0.414,0.546,0.467,1.036h-0.598c-0.037-0.227-0.12-0.413-0.25-0.562s-0.338-0.225-0.625-0.225   c-0.393,0-0.673,0.191-0.842,0.574c-0.109,0.248-0.164,0.554-0.164,0.918c0,0.366,0.078,0.675,0.232,0.925   c0.155,0.251,0.399,0.376,0.732,0.376c0.255,0,0.457-0.078,0.606-0.233s0.252-0.368,0.31-0.638h0.598   c-0.068,0.484-0.239,0.84-0.513,1.064s-0.623,0.336-1.05,0.336c-0.479,0-0.859-0.175-1.145-0.524s-0.428-0.786-0.428-1.311   c0-0.643,0.156-1.143,0.469-1.501c0.312-0.357,0.71-0.536,1.193-0.536C94.371,21.271,94.706,21.372,94.965,21.572z"/>
	<path d="M96.17,20.355h0.622v1.022h0.585v0.502h-0.585v2.389c0,0.128,0.043,0.214,0.13,0.257c0.048,0.025,0.128,0.038,0.239,0.038   c0.029,0,0.062-0.001,0.096-0.003c0.034-0.001,0.074-0.005,0.12-0.011v0.488c-0.071,0.021-0.145,0.035-0.221,0.045   c-0.076,0.009-0.159,0.014-0.248,0.014c-0.287,0-0.482-0.074-0.584-0.221c-0.104-0.147-0.154-0.338-0.154-0.572V21.88h-0.496   v-0.502h0.496V20.355z"/>
	<path d="M102.198,21.479c0.242,0.122,0.427,0.279,0.554,0.474c0.123,0.184,0.204,0.399,0.245,0.646   c0.036,0.169,0.054,0.438,0.054,0.807h-2.662c0.012,0.372,0.099,0.671,0.261,0.896c0.163,0.225,0.415,0.337,0.757,0.337   c0.318,0,0.573-0.105,0.763-0.318c0.106-0.124,0.182-0.268,0.226-0.43H103c-0.016,0.135-0.069,0.284-0.159,0.449   s-0.19,0.301-0.301,0.405c-0.186,0.183-0.415,0.306-0.688,0.369c-0.147,0.036-0.313,0.055-0.499,0.055   c-0.453,0-0.837-0.166-1.151-0.497c-0.314-0.332-0.473-0.796-0.473-1.393c0-0.588,0.159-1.065,0.476-1.433   c0.317-0.367,0.731-0.55,1.244-0.55C101.706,21.296,101.956,21.356,102.198,21.479z M102.419,22.915   c-0.024-0.266-0.082-0.479-0.173-0.639c-0.167-0.296-0.446-0.444-0.837-0.444c-0.28,0-0.516,0.102-0.705,0.306   s-0.29,0.463-0.302,0.777H102.419z"/>
	<path d="M103.83,21.378h0.608v0.52c0.146-0.181,0.278-0.312,0.396-0.394c0.203-0.139,0.433-0.208,0.69-0.208   c0.292,0,0.526,0.071,0.704,0.215c0.101,0.082,0.191,0.203,0.273,0.362c0.137-0.196,0.298-0.341,0.481-0.436   c0.186-0.095,0.393-0.142,0.623-0.142c0.492,0,0.826,0.178,1.004,0.533c0.096,0.191,0.145,0.448,0.145,0.771v2.438h-0.64v-2.543   c0-0.244-0.061-0.411-0.183-0.502c-0.122-0.092-0.271-0.137-0.446-0.137c-0.241,0-0.449,0.08-0.624,0.242   c-0.174,0.162-0.262,0.432-0.262,0.811v2.129h-0.625v-2.389c0-0.249-0.029-0.43-0.089-0.544c-0.094-0.171-0.268-0.257-0.522-0.257   c-0.232,0-0.444,0.091-0.635,0.271s-0.285,0.506-0.285,0.978v1.941h-0.615V21.378z"/>
	<path d="M111.922,21.479c0.242,0.122,0.427,0.279,0.554,0.474c0.123,0.184,0.204,0.399,0.245,0.646   c0.036,0.169,0.054,0.438,0.054,0.807h-2.662c0.012,0.372,0.099,0.671,0.261,0.896c0.163,0.225,0.415,0.337,0.757,0.337   c0.318,0,0.573-0.105,0.763-0.318c0.106-0.124,0.182-0.268,0.226-0.43h0.605c-0.016,0.135-0.069,0.284-0.159,0.449   s-0.19,0.301-0.301,0.405c-0.186,0.183-0.415,0.306-0.688,0.369c-0.147,0.036-0.313,0.055-0.499,0.055   c-0.453,0-0.837-0.166-1.151-0.497c-0.314-0.332-0.473-0.796-0.473-1.393c0-0.588,0.159-1.065,0.476-1.433   c0.317-0.367,0.731-0.55,1.244-0.55C111.43,21.296,111.68,21.356,111.922,21.479z M112.143,22.915   c-0.024-0.266-0.082-0.479-0.173-0.639c-0.167-0.296-0.446-0.444-0.837-0.444c-0.28,0-0.516,0.102-0.705,0.306   s-0.29,0.463-0.302,0.777H112.143z"/>
	<path d="M113.572,21.378h0.584v0.632c0.048-0.123,0.165-0.272,0.352-0.449c0.188-0.177,0.402-0.265,0.646-0.265   c0.012,0,0.031,0.001,0.059,0.003s0.073,0.007,0.14,0.014v0.649c-0.036-0.007-0.07-0.012-0.101-0.014   c-0.031-0.002-0.064-0.004-0.102-0.004c-0.31,0-0.548,0.101-0.714,0.3s-0.249,0.429-0.249,0.688v2.105h-0.615V21.378z"/>
	<path d="M117.921,21.524c0.115,0.08,0.233,0.196,0.354,0.349v-0.462h0.568v3.33c0,0.465-0.068,0.831-0.205,1.1   c-0.254,0.497-0.734,0.746-1.44,0.746c-0.394,0-0.724-0.089-0.991-0.266c-0.269-0.177-0.418-0.453-0.45-0.828h0.626   c0.029,0.164,0.088,0.29,0.177,0.379c0.138,0.137,0.355,0.205,0.652,0.205c0.469,0,0.776-0.166,0.921-0.499   c0.086-0.196,0.126-0.546,0.119-1.05c-0.123,0.188-0.271,0.326-0.442,0.418c-0.173,0.091-0.4,0.137-0.685,0.137   c-0.395,0-0.74-0.142-1.037-0.423c-0.296-0.281-0.443-0.747-0.443-1.396c0-0.613,0.148-1.092,0.447-1.436   c0.299-0.345,0.659-0.517,1.081-0.517C117.458,21.312,117.707,21.383,117.921,21.524z M117.996,22.185   c-0.186-0.219-0.423-0.328-0.711-0.328c-0.431,0-0.726,0.202-0.884,0.607c-0.084,0.217-0.126,0.501-0.126,0.852   c0,0.412,0.083,0.727,0.25,0.941c0.167,0.216,0.391,0.323,0.672,0.323c0.439,0,0.749-0.199,0.928-0.599   c0.1-0.225,0.149-0.488,0.149-0.789C118.274,22.739,118.182,22.403,117.996,22.185z"/>
	<path d="M122.04,21.479c0.242,0.122,0.427,0.279,0.554,0.474c0.123,0.184,0.204,0.399,0.245,0.646   c0.036,0.169,0.054,0.438,0.054,0.807h-2.662c0.012,0.372,0.099,0.671,0.261,0.896c0.163,0.225,0.415,0.337,0.757,0.337   c0.318,0,0.573-0.105,0.763-0.318c0.106-0.124,0.182-0.268,0.226-0.43h0.605c-0.016,0.135-0.069,0.284-0.159,0.449   s-0.19,0.301-0.301,0.405c-0.186,0.183-0.415,0.306-0.688,0.369c-0.147,0.036-0.313,0.055-0.499,0.055   c-0.453,0-0.837-0.166-1.151-0.497c-0.314-0.332-0.473-0.796-0.473-1.393c0-0.588,0.159-1.065,0.476-1.433   c0.317-0.367,0.731-0.55,1.244-0.55C121.548,21.296,121.798,21.356,122.04,21.479z M122.261,22.915   c-0.024-0.266-0.082-0.479-0.173-0.639c-0.167-0.296-0.446-0.444-0.837-0.444c-0.28,0-0.516,0.102-0.705,0.306   s-0.29,0.463-0.302,0.777H122.261z"/>
	<path d="M123.672,21.378h0.584v0.52c0.174-0.215,0.357-0.368,0.551-0.462s0.409-0.14,0.646-0.14c0.52,0,0.87,0.181,1.053,0.543   c0.1,0.198,0.15,0.482,0.15,0.852v2.348h-0.626v-2.307c0-0.224-0.033-0.404-0.099-0.541c-0.109-0.228-0.309-0.342-0.596-0.342   c-0.146,0-0.265,0.016-0.358,0.045c-0.169,0.05-0.316,0.15-0.444,0.301c-0.103,0.121-0.169,0.245-0.2,0.374   c-0.03,0.129-0.046,0.313-0.046,0.552v1.918h-0.615V21.378z"/>
	<path d="M129.982,21.572c0.259,0.2,0.414,0.546,0.467,1.036h-0.598c-0.037-0.227-0.12-0.413-0.25-0.562s-0.338-0.225-0.625-0.225   c-0.393,0-0.673,0.191-0.842,0.574c-0.109,0.248-0.164,0.554-0.164,0.918c0,0.366,0.078,0.675,0.232,0.925   c0.155,0.251,0.399,0.376,0.732,0.376c0.255,0,0.457-0.078,0.606-0.233s0.252-0.368,0.31-0.638h0.598   c-0.068,0.484-0.239,0.84-0.513,1.064s-0.623,0.336-1.05,0.336c-0.479,0-0.859-0.175-1.145-0.524s-0.428-0.786-0.428-1.311   c0-0.643,0.156-1.143,0.469-1.501c0.312-0.357,0.71-0.536,1.193-0.536C129.389,21.271,129.724,21.372,129.982,21.572z"/>
	<path d="M133.325,21.479c0.242,0.122,0.427,0.279,0.554,0.474c0.123,0.184,0.204,0.399,0.245,0.646   c0.036,0.169,0.054,0.438,0.054,0.807h-2.662c0.012,0.372,0.099,0.671,0.261,0.896c0.163,0.225,0.415,0.337,0.757,0.337   c0.318,0,0.573-0.105,0.763-0.318c0.106-0.124,0.182-0.268,0.226-0.43h0.605c-0.016,0.135-0.069,0.284-0.159,0.449   s-0.19,0.301-0.301,0.405c-0.186,0.183-0.415,0.306-0.688,0.369c-0.147,0.036-0.313,0.055-0.499,0.055   c-0.453,0-0.837-0.166-1.151-0.497c-0.314-0.332-0.473-0.796-0.473-1.393c0-0.588,0.159-1.065,0.476-1.433   c0.317-0.367,0.731-0.55,1.244-0.55C132.833,21.296,133.083,21.356,133.325,21.479z M133.546,22.915   c-0.024-0.266-0.082-0.479-0.173-0.639c-0.167-0.296-0.446-0.444-0.837-0.444c-0.28,0-0.516,0.102-0.705,0.306   s-0.29,0.463-0.302,0.777H133.546z"/>
</g>
<g>
	<path d="M79.655,0h0.598v1.821c0.135-0.175,0.296-0.309,0.483-0.401c0.188-0.092,0.392-0.138,0.611-0.138   c0.457,0,0.828,0.156,1.113,0.47s0.427,0.775,0.427,1.386c0,0.579-0.141,1.06-0.422,1.442s-0.671,0.574-1.17,0.574   c-0.279,0-0.515-0.067-0.707-0.202c-0.114-0.079-0.236-0.207-0.367-0.383v0.469h-0.566V0z M82.007,4.214   c0.166-0.264,0.249-0.612,0.249-1.045c0-0.386-0.083-0.705-0.249-0.957c-0.165-0.254-0.409-0.38-0.731-0.38   c-0.281,0-0.528,0.104-0.739,0.312c-0.212,0.207-0.317,0.549-0.317,1.025c0,0.344,0.043,0.623,0.13,0.837   c0.163,0.403,0.466,0.604,0.909,0.604C81.592,4.61,81.842,4.479,82.007,4.214z"/>
	<path d="M83.6,0.017h0.625v0.697H83.6V0.017z M83.6,1.395h0.625v3.644H83.6V1.395z"/>
	<path d="M85.172,1.378h0.584V2.01c0.048-0.123,0.165-0.272,0.352-0.449c0.188-0.177,0.402-0.265,0.646-0.265   c0.012,0,0.031,0.001,0.059,0.003s0.073,0.007,0.14,0.014v0.649c-0.036-0.007-0.07-0.012-0.101-0.014   c-0.031-0.002-0.064-0.004-0.102-0.004c-0.31,0-0.548,0.101-0.714,0.3s-0.249,0.429-0.249,0.688v2.105h-0.615V1.378z"/>
	<path d="M89.496,1.49c0.109,0.068,0.233,0.188,0.372,0.358V0h0.591v5.038h-0.554v-0.51c-0.143,0.227-0.312,0.389-0.508,0.489   c-0.194,0.101-0.418,0.15-0.67,0.15c-0.406,0-0.759-0.172-1.056-0.515c-0.298-0.343-0.446-0.799-0.446-1.369   c0-0.533,0.136-0.995,0.407-1.386c0.271-0.391,0.658-0.586,1.162-0.586C89.074,1.312,89.309,1.372,89.496,1.49z M88.123,4.235   c0.166,0.264,0.431,0.396,0.796,0.396c0.283,0,0.517-0.123,0.699-0.368s0.273-0.597,0.273-1.054c0-0.463-0.094-0.806-0.282-1.027   c-0.188-0.223-0.421-0.334-0.697-0.334c-0.309,0-0.559,0.119-0.75,0.355c-0.191,0.237-0.287,0.586-0.287,1.047   C87.875,3.643,87.958,3.971,88.123,4.235z"/>
	<path d="M93.273,0h0.598v1.821c0.135-0.175,0.296-0.309,0.483-0.401c0.188-0.092,0.392-0.138,0.611-0.138   c0.457,0,0.828,0.156,1.113,0.47s0.427,0.775,0.427,1.386c0,0.579-0.141,1.06-0.422,1.442s-0.671,0.574-1.17,0.574   c-0.279,0-0.515-0.067-0.707-0.202c-0.114-0.079-0.236-0.207-0.367-0.383v0.469h-0.566V0z M95.625,4.214   c0.166-0.264,0.249-0.612,0.249-1.045c0-0.386-0.083-0.705-0.249-0.957c-0.165-0.254-0.409-0.38-0.731-0.38   c-0.281,0-0.528,0.104-0.739,0.312c-0.212,0.207-0.317,0.549-0.317,1.025c0,0.344,0.043,0.623,0.13,0.837   c0.163,0.403,0.466,0.604,0.909,0.604C95.21,4.61,95.46,4.479,95.625,4.214z"/>
	<path d="M97.234,1.378h0.584V2.01c0.048-0.123,0.165-0.272,0.352-0.449c0.188-0.177,0.402-0.265,0.646-0.265   c0.012,0,0.031,0.001,0.059,0.003s0.073,0.007,0.14,0.014v0.649c-0.036-0.007-0.07-0.012-0.101-0.014   c-0.031-0.002-0.064-0.004-0.102-0.004c-0.31,0-0.548,0.101-0.714,0.3S97.85,2.673,97.85,2.933v2.105h-0.615V1.378z"/>
	<path d="M101.809,1.479c0.242,0.122,0.427,0.279,0.554,0.474c0.123,0.184,0.204,0.399,0.245,0.646   c0.036,0.169,0.054,0.438,0.054,0.807h-2.662c0.012,0.372,0.099,0.671,0.261,0.896c0.163,0.225,0.415,0.337,0.757,0.337   c0.318,0,0.573-0.105,0.763-0.318c0.106-0.124,0.182-0.268,0.226-0.43h0.605c-0.016,0.135-0.069,0.284-0.159,0.449   s-0.19,0.301-0.301,0.405c-0.186,0.183-0.415,0.306-0.688,0.369c-0.147,0.036-0.313,0.055-0.499,0.055   c-0.453,0-0.837-0.166-1.151-0.497c-0.314-0.332-0.473-0.796-0.473-1.393c0-0.588,0.159-1.065,0.476-1.433   c0.317-0.367,0.731-0.55,1.244-0.55C101.316,1.296,101.566,1.356,101.809,1.479z M102.029,2.915   c-0.024-0.266-0.082-0.479-0.173-0.639c-0.167-0.296-0.446-0.444-0.837-0.444c-0.28,0-0.516,0.102-0.705,0.306   s-0.29,0.463-0.302,0.777H102.029z"/>
	<path d="M105.702,1.479c0.242,0.122,0.427,0.279,0.554,0.474c0.123,0.184,0.204,0.399,0.245,0.646   c0.036,0.169,0.054,0.438,0.054,0.807h-2.662c0.012,0.372,0.099,0.671,0.261,0.896c0.163,0.225,0.415,0.337,0.757,0.337   c0.318,0,0.573-0.105,0.763-0.318c0.106-0.124,0.182-0.268,0.226-0.43h0.605c-0.016,0.135-0.069,0.284-0.159,0.449   s-0.19,0.301-0.301,0.405c-0.186,0.183-0.415,0.306-0.688,0.369c-0.147,0.036-0.313,0.055-0.499,0.055   c-0.453,0-0.837-0.166-1.151-0.497c-0.314-0.332-0.473-0.796-0.473-1.393c0-0.588,0.159-1.065,0.476-1.433   c0.317-0.367,0.731-0.55,1.244-0.55C105.21,1.296,105.46,1.356,105.702,1.479z M105.923,2.915   c-0.024-0.266-0.082-0.479-0.173-0.639c-0.167-0.296-0.446-0.444-0.837-0.444c-0.28,0-0.516,0.102-0.705,0.306   s-0.29,0.463-0.302,0.777H105.923z"/>
	<path d="M109.345,1.49c0.109,0.068,0.233,0.188,0.372,0.358V0h0.591v5.038h-0.554v-0.51c-0.143,0.227-0.312,0.389-0.508,0.489   c-0.194,0.101-0.418,0.15-0.67,0.15c-0.406,0-0.759-0.172-1.056-0.515c-0.298-0.343-0.446-0.799-0.446-1.369   c0-0.533,0.136-0.995,0.407-1.386c0.271-0.391,0.658-0.586,1.162-0.586C108.923,1.312,109.157,1.372,109.345,1.49z M107.972,4.235   c0.166,0.264,0.431,0.396,0.796,0.396c0.283,0,0.517-0.123,0.699-0.368s0.273-0.597,0.273-1.054c0-0.463-0.094-0.806-0.282-1.027   c-0.188-0.223-0.421-0.334-0.697-0.334c-0.309,0-0.559,0.119-0.75,0.355c-0.191,0.237-0.287,0.586-0.287,1.047   C107.724,3.643,107.807,3.971,107.972,4.235z"/>
	<path d="M111.227,0.017h0.625v0.697h-0.625V0.017z M111.227,1.395h0.625v3.644h-0.625V1.395z"/>
	<path d="M112.781,1.378h0.584v0.52c0.174-0.215,0.357-0.368,0.551-0.462s0.409-0.14,0.646-0.14c0.52,0,0.87,0.181,1.053,0.543   c0.1,0.198,0.15,0.482,0.15,0.852v2.348h-0.626V2.731c0-0.224-0.033-0.404-0.099-0.541c-0.109-0.228-0.309-0.342-0.596-0.342   c-0.146,0-0.265,0.016-0.358,0.045c-0.169,0.05-0.316,0.15-0.444,0.301c-0.103,0.121-0.169,0.245-0.2,0.374   c-0.03,0.129-0.046,0.313-0.046,0.552v1.918h-0.615V1.378z"/>
	<path d="M118.709,1.524c0.115,0.08,0.233,0.196,0.354,0.349V1.411h0.568v3.33c0,0.465-0.068,0.831-0.205,1.1   c-0.254,0.497-0.734,0.746-1.44,0.746c-0.394,0-0.724-0.089-0.991-0.266c-0.269-0.177-0.418-0.453-0.45-0.828h0.626   c0.029,0.164,0.088,0.29,0.177,0.379c0.138,0.137,0.355,0.205,0.652,0.205c0.469,0,0.776-0.166,0.921-0.499   c0.086-0.196,0.126-0.546,0.119-1.05c-0.123,0.188-0.271,0.326-0.442,0.418c-0.173,0.091-0.4,0.137-0.685,0.137   c-0.395,0-0.74-0.142-1.037-0.423c-0.296-0.281-0.443-0.747-0.443-1.396c0-0.613,0.148-1.092,0.447-1.436   c0.299-0.345,0.659-0.517,1.081-0.517C118.246,1.312,118.495,1.383,118.709,1.524z M118.784,2.185   c-0.186-0.219-0.423-0.328-0.711-0.328c-0.431,0-0.726,0.202-0.884,0.607c-0.084,0.217-0.126,0.501-0.126,0.852   c0,0.412,0.083,0.727,0.25,0.941c0.167,0.216,0.391,0.323,0.672,0.323c0.439,0,0.749-0.199,0.928-0.599   c0.1-0.225,0.149-0.488,0.149-0.789C119.062,2.739,118.97,2.403,118.784,2.185z"/>
</g>
<g>
	<path d="M46.373,41.49c0.109,0.068,0.233,0.188,0.372,0.358V40h0.591v5.038h-0.554v-0.51c-0.143,0.227-0.312,0.389-0.508,0.489   c-0.194,0.101-0.418,0.15-0.67,0.15c-0.406,0-0.759-0.172-1.056-0.515c-0.298-0.343-0.446-0.799-0.446-1.369   c0-0.533,0.136-0.995,0.407-1.386c0.271-0.391,0.658-0.586,1.162-0.586C45.951,41.312,46.185,41.372,46.373,41.49z M45,44.235   c0.166,0.264,0.431,0.396,0.796,0.396c0.283,0,0.517-0.123,0.699-0.368s0.273-0.597,0.273-1.054c0-0.463-0.094-0.806-0.282-1.027   c-0.188-0.223-0.421-0.334-0.697-0.334c-0.309,0-0.559,0.119-0.75,0.355c-0.191,0.237-0.287,0.586-0.287,1.047   C44.751,43.643,44.834,43.971,45,44.235z"/>
	<path d="M50.216,42.822c0.142-0.018,0.236-0.077,0.284-0.177c0.027-0.055,0.041-0.134,0.041-0.237c0-0.21-0.075-0.362-0.224-0.458   c-0.149-0.095-0.362-0.143-0.64-0.143c-0.321,0-0.548,0.088-0.683,0.262c-0.075,0.096-0.124,0.239-0.146,0.43h-0.574   c0.012-0.453,0.157-0.768,0.438-0.944c0.281-0.178,0.607-0.267,0.979-0.267c0.43,0,0.779,0.082,1.048,0.246   c0.267,0.164,0.399,0.42,0.399,0.767v2.108c0,0.064,0.013,0.115,0.039,0.154c0.026,0.038,0.082,0.058,0.166,0.058   c0.027,0,0.059-0.002,0.092-0.005c0.035-0.004,0.071-0.009,0.109-0.016v0.455c-0.096,0.027-0.168,0.044-0.219,0.051   c-0.05,0.007-0.118,0.01-0.205,0.01c-0.211,0-0.365-0.074-0.461-0.225c-0.05-0.08-0.086-0.193-0.105-0.339   c-0.126,0.164-0.306,0.307-0.541,0.428c-0.234,0.12-0.493,0.181-0.775,0.181c-0.34,0-0.617-0.103-0.832-0.309   c-0.216-0.206-0.323-0.464-0.323-0.773c0-0.339,0.106-0.603,0.317-0.789c0.213-0.187,0.49-0.301,0.834-0.345L50.216,42.822z    M48.92,44.484c0.131,0.103,0.284,0.153,0.462,0.153c0.217,0,0.426-0.05,0.629-0.149c0.342-0.166,0.513-0.438,0.513-0.815v-0.495   c-0.075,0.048-0.172,0.088-0.29,0.12S50,43.353,49.886,43.366l-0.372,0.048c-0.223,0.029-0.391,0.076-0.503,0.14   c-0.19,0.107-0.285,0.277-0.285,0.512C48.726,44.242,48.792,44.383,48.92,44.484z"/>
	<path d="M54.435,41.378h0.681c-0.087,0.234-0.279,0.771-0.578,1.606c-0.223,0.63-0.41,1.143-0.561,1.539   c-0.354,0.934-0.605,1.503-0.751,1.708s-0.396,0.307-0.751,0.307c-0.087,0-0.153-0.003-0.2-0.01s-0.104-0.02-0.173-0.037v-0.561   c0.107,0.029,0.185,0.047,0.232,0.055c0.048,0.006,0.09,0.01,0.126,0.01c0.114,0,0.197-0.019,0.251-0.057   c0.054-0.037,0.099-0.083,0.135-0.138c0.012-0.019,0.053-0.111,0.123-0.28c0.07-0.168,0.122-0.293,0.153-0.375l-1.354-3.768h0.697   l0.981,2.981L54.435,41.378z"/>
	<path d="M57.61,40.017h0.615v5.021H57.61V40.017z"/>
	<path d="M61.408,41.479c0.242,0.122,0.427,0.279,0.554,0.474c0.123,0.184,0.204,0.399,0.245,0.646   c0.036,0.169,0.054,0.438,0.054,0.807h-2.662c0.012,0.372,0.099,0.671,0.261,0.896c0.163,0.225,0.415,0.337,0.757,0.337   c0.318,0,0.573-0.105,0.763-0.318c0.106-0.124,0.182-0.268,0.226-0.43h0.605c-0.016,0.135-0.069,0.284-0.159,0.449   s-0.19,0.301-0.301,0.405c-0.186,0.183-0.415,0.306-0.688,0.369c-0.147,0.036-0.313,0.055-0.499,0.055   c-0.453,0-0.837-0.166-1.151-0.497c-0.314-0.332-0.473-0.796-0.473-1.393c0-0.588,0.159-1.065,0.476-1.433   c0.317-0.367,0.731-0.55,1.244-0.55C60.916,41.296,61.166,41.356,61.408,41.479z M61.628,42.915   c-0.024-0.266-0.082-0.479-0.173-0.639c-0.167-0.296-0.446-0.444-0.837-0.444c-0.28,0-0.516,0.102-0.705,0.306   s-0.29,0.463-0.302,0.777H61.628z"/>
	<path d="M63.04,41.378h0.584v0.52c0.174-0.215,0.357-0.368,0.551-0.462s0.409-0.14,0.646-0.14c0.52,0,0.87,0.181,1.053,0.543   c0.1,0.198,0.15,0.482,0.15,0.852v2.348h-0.626v-2.307c0-0.224-0.033-0.404-0.099-0.541c-0.109-0.228-0.309-0.342-0.596-0.342   c-0.146,0-0.265,0.016-0.358,0.045c-0.169,0.05-0.316,0.15-0.444,0.301c-0.103,0.121-0.169,0.245-0.2,0.374   c-0.03,0.129-0.046,0.313-0.046,0.552v1.918H63.04V41.378z"/>
	<path d="M68.967,41.524c0.115,0.08,0.233,0.196,0.354,0.349v-0.462h0.568v3.33c0,0.465-0.068,0.831-0.205,1.1   c-0.254,0.497-0.734,0.746-1.44,0.746c-0.394,0-0.724-0.089-0.991-0.266c-0.269-0.177-0.418-0.453-0.45-0.828h0.626   c0.029,0.164,0.088,0.29,0.177,0.379c0.138,0.137,0.355,0.205,0.652,0.205c0.469,0,0.776-0.166,0.921-0.499   c0.086-0.196,0.126-0.546,0.119-1.05c-0.123,0.188-0.271,0.326-0.442,0.418c-0.173,0.091-0.4,0.137-0.685,0.137   c-0.395,0-0.74-0.142-1.037-0.423c-0.296-0.281-0.443-0.747-0.443-1.396c0-0.613,0.148-1.092,0.447-1.436   c0.299-0.345,0.659-0.517,1.081-0.517C68.504,41.312,68.753,41.383,68.967,41.524z M69.042,42.185   c-0.186-0.219-0.423-0.328-0.711-0.328c-0.431,0-0.726,0.202-0.884,0.607c-0.084,0.217-0.126,0.501-0.126,0.852   c0,0.412,0.083,0.727,0.25,0.941c0.167,0.216,0.391,0.323,0.672,0.323c0.439,0,0.749-0.199,0.928-0.599   c0.1-0.225,0.149-0.488,0.149-0.789C69.321,42.739,69.228,42.403,69.042,42.185z"/>
	<path d="M70.948,40.355h0.622v1.022h0.585v0.502H71.57v2.389c0,0.128,0.043,0.214,0.13,0.257c0.048,0.025,0.128,0.038,0.239,0.038   c0.029,0,0.062-0.001,0.096-0.003c0.034-0.001,0.074-0.005,0.12-0.011v0.488c-0.071,0.021-0.145,0.035-0.221,0.045   c-0.076,0.009-0.159,0.014-0.248,0.014c-0.287,0-0.482-0.074-0.584-0.221c-0.104-0.147-0.154-0.338-0.154-0.572V41.88h-0.496   v-0.502h0.496V40.355z"/>
	<path d="M72.77,40h0.615v1.873c0.146-0.185,0.277-0.314,0.393-0.39c0.199-0.13,0.446-0.195,0.742-0.195   c0.531,0,0.891,0.187,1.08,0.558c0.103,0.203,0.154,0.484,0.154,0.845v2.348h-0.633v-2.307c0-0.27-0.034-0.467-0.103-0.592   c-0.111-0.2-0.321-0.301-0.629-0.301c-0.255,0-0.486,0.088-0.694,0.264c-0.207,0.175-0.311,0.507-0.311,0.994v1.941H72.77V40z"/>
</g>
<g>
	<path d="M80.05,63.67h0.598v1.821c0.135-0.175,0.296-0.309,0.483-0.401c0.188-0.092,0.392-0.138,0.611-0.138   c0.457,0,0.828,0.156,1.113,0.47s0.427,0.775,0.427,1.386c0,0.579-0.141,1.06-0.422,1.442s-0.671,0.574-1.17,0.574   c-0.279,0-0.515-0.067-0.707-0.202c-0.114-0.079-0.236-0.207-0.367-0.383v0.469H80.05V63.67z M82.402,67.884   c0.166-0.264,0.249-0.612,0.249-1.045c0-0.386-0.083-0.705-0.249-0.957c-0.165-0.254-0.409-0.38-0.731-0.38   c-0.281,0-0.528,0.104-0.739,0.312c-0.212,0.207-0.317,0.549-0.317,1.025c0,0.344,0.043,0.623,0.13,0.837   c0.163,0.403,0.466,0.604,0.909,0.604C81.987,68.28,82.237,68.148,82.402,67.884z"/>
	<path d="M83.994,63.687h0.625v0.697h-0.625V63.687z M83.994,65.064h0.625v3.644h-0.625V65.064z"/>
	<path d="M85.566,65.048h0.584v0.632c0.048-0.123,0.165-0.272,0.352-0.449c0.188-0.177,0.402-0.265,0.646-0.265   c0.012,0,0.031,0.001,0.059,0.003s0.073,0.007,0.14,0.014v0.649c-0.036-0.007-0.07-0.012-0.101-0.014   c-0.031-0.002-0.064-0.004-0.102-0.004c-0.31,0-0.548,0.101-0.714,0.3s-0.249,0.429-0.249,0.688v2.105h-0.615V65.048z"/>
	<path d="M89.89,65.16c0.109,0.068,0.233,0.188,0.372,0.358V63.67h0.591v5.038h-0.554v-0.51c-0.143,0.227-0.312,0.389-0.508,0.489   c-0.194,0.101-0.418,0.15-0.67,0.15c-0.406,0-0.759-0.172-1.056-0.515c-0.298-0.343-0.446-0.799-0.446-1.369   c0-0.533,0.136-0.995,0.407-1.386c0.271-0.391,0.658-0.586,1.162-0.586C89.468,64.982,89.703,65.042,89.89,65.16z M88.517,67.905   c0.166,0.264,0.431,0.396,0.796,0.396c0.283,0,0.517-0.123,0.699-0.368s0.273-0.597,0.273-1.054c0-0.463-0.094-0.806-0.282-1.027   c-0.188-0.223-0.421-0.334-0.697-0.334c-0.309,0-0.559,0.119-0.75,0.355c-0.191,0.237-0.287,0.586-0.287,1.047   C88.269,67.312,88.352,67.641,88.517,67.905z"/>
	<path d="M93.667,63.67h0.598v1.821c0.135-0.175,0.296-0.309,0.483-0.401c0.188-0.092,0.392-0.138,0.611-0.138   c0.457,0,0.828,0.156,1.113,0.47s0.427,0.775,0.427,1.386c0,0.579-0.141,1.06-0.422,1.442s-0.671,0.574-1.17,0.574   c-0.279,0-0.515-0.067-0.707-0.202c-0.114-0.079-0.236-0.207-0.367-0.383v0.469h-0.566V63.67z M96.019,67.884   c0.166-0.264,0.249-0.612,0.249-1.045c0-0.386-0.083-0.705-0.249-0.957c-0.165-0.254-0.409-0.38-0.731-0.38   c-0.281,0-0.528,0.104-0.739,0.312c-0.212,0.207-0.317,0.549-0.317,1.025c0,0.344,0.043,0.623,0.13,0.837   c0.163,0.403,0.466,0.604,0.909,0.604C95.604,68.28,95.854,68.148,96.019,67.884z"/>
	<path d="M97.628,65.048h0.584v0.632c0.048-0.123,0.165-0.272,0.352-0.449c0.188-0.177,0.402-0.265,0.646-0.265   c0.012,0,0.031,0.001,0.059,0.003s0.073,0.007,0.14,0.014v0.649c-0.036-0.007-0.07-0.012-0.101-0.014   c-0.031-0.002-0.064-0.004-0.102-0.004c-0.31,0-0.548,0.101-0.714,0.3s-0.249,0.429-0.249,0.688v2.105h-0.615V65.048z"/>
	<path d="M102.203,65.148c0.242,0.122,0.427,0.279,0.554,0.474c0.123,0.184,0.204,0.399,0.245,0.646   c0.036,0.169,0.054,0.438,0.054,0.807h-2.662c0.012,0.372,0.099,0.671,0.261,0.896c0.163,0.225,0.415,0.337,0.757,0.337   c0.318,0,0.573-0.105,0.763-0.318c0.106-0.124,0.182-0.268,0.226-0.43h0.605c-0.016,0.135-0.069,0.284-0.159,0.449   s-0.19,0.301-0.301,0.405c-0.186,0.183-0.415,0.306-0.688,0.369c-0.147,0.036-0.313,0.055-0.499,0.055   c-0.453,0-0.837-0.166-1.151-0.497c-0.314-0.332-0.473-0.796-0.473-1.393c0-0.588,0.159-1.065,0.476-1.433   c0.317-0.367,0.731-0.55,1.244-0.55C101.71,64.966,101.96,65.026,102.203,65.148z M102.423,66.585   c-0.024-0.266-0.082-0.479-0.173-0.639c-0.167-0.296-0.446-0.444-0.837-0.444c-0.28,0-0.516,0.102-0.705,0.306   s-0.29,0.463-0.302,0.777H102.423z"/>
	<path d="M106.096,65.148c0.242,0.122,0.427,0.279,0.554,0.474c0.123,0.184,0.204,0.399,0.245,0.646   c0.036,0.169,0.054,0.438,0.054,0.807h-2.662c0.012,0.372,0.099,0.671,0.261,0.896c0.163,0.225,0.415,0.337,0.757,0.337   c0.318,0,0.573-0.105,0.763-0.318c0.106-0.124,0.182-0.268,0.226-0.43h0.605c-0.016,0.135-0.069,0.284-0.159,0.449   s-0.19,0.301-0.301,0.405c-0.186,0.183-0.415,0.306-0.688,0.369c-0.147,0.036-0.313,0.055-0.499,0.055   c-0.453,0-0.837-0.166-1.151-0.497c-0.314-0.332-0.473-0.796-0.473-1.393c0-0.588,0.159-1.065,0.476-1.433   c0.317-0.367,0.731-0.55,1.244-0.55C105.604,64.966,105.854,65.026,106.096,65.148z M106.317,66.585   c-0.024-0.266-0.082-0.479-0.173-0.639c-0.167-0.296-0.446-0.444-0.837-0.444c-0.28,0-0.516,0.102-0.705,0.306   s-0.29,0.463-0.302,0.777H106.317z"/>
	<path d="M109.739,65.16c0.109,0.068,0.233,0.188,0.372,0.358V63.67h0.591v5.038h-0.554v-0.51c-0.143,0.227-0.312,0.389-0.508,0.489   c-0.194,0.101-0.418,0.15-0.67,0.15c-0.406,0-0.759-0.172-1.056-0.515c-0.298-0.343-0.446-0.799-0.446-1.369   c0-0.533,0.136-0.995,0.407-1.386c0.271-0.391,0.658-0.586,1.162-0.586C109.317,64.982,109.551,65.042,109.739,65.16z    M108.366,67.905c0.166,0.264,0.431,0.396,0.796,0.396c0.283,0,0.517-0.123,0.699-0.368s0.273-0.597,0.273-1.054   c0-0.463-0.094-0.806-0.282-1.027c-0.188-0.223-0.421-0.334-0.697-0.334c-0.309,0-0.559,0.119-0.75,0.355   c-0.191,0.237-0.287,0.586-0.287,1.047C108.118,67.312,108.201,67.641,108.366,67.905z"/>
	<path d="M111.621,63.687h0.625v0.697h-0.625V63.687z M111.621,65.064h0.625v3.644h-0.625V65.064z"/>
	<path d="M113.175,65.048h0.584v0.52c0.174-0.215,0.357-0.368,0.551-0.462s0.409-0.14,0.646-0.14c0.52,0,0.87,0.181,1.053,0.543   c0.1,0.198,0.15,0.482,0.15,0.852v2.348h-0.626v-2.307c0-0.224-0.033-0.404-0.099-0.541c-0.109-0.228-0.309-0.342-0.596-0.342   c-0.146,0-0.265,0.016-0.358,0.045c-0.169,0.05-0.316,0.15-0.444,0.301c-0.103,0.121-0.169,0.245-0.2,0.374   c-0.03,0.129-0.046,0.313-0.046,0.552v1.918h-0.615V65.048z"/>
	<path d="M119.103,65.194c0.115,0.08,0.233,0.196,0.354,0.349v-0.462h0.568v3.33c0,0.465-0.068,0.831-0.205,1.1   c-0.254,0.497-0.734,0.746-1.44,0.746c-0.394,0-0.724-0.089-0.991-0.266c-0.269-0.177-0.418-0.453-0.45-0.828h0.626   c0.029,0.164,0.088,0.29,0.177,0.379c0.138,0.137,0.355,0.205,0.652,0.205c0.469,0,0.776-0.166,0.921-0.499   c0.086-0.196,0.126-0.546,0.119-1.05c-0.123,0.188-0.271,0.326-0.442,0.418c-0.173,0.091-0.4,0.137-0.685,0.137   c-0.395,0-0.74-0.142-1.037-0.423c-0.296-0.281-0.443-0.747-0.443-1.396c0-0.613,0.148-1.092,0.447-1.436   c0.299-0.345,0.659-0.517,1.081-0.517C118.64,64.982,118.889,65.053,119.103,65.194z M119.178,65.854   c-0.186-0.219-0.423-0.328-0.711-0.328c-0.431,0-0.726,0.202-0.884,0.607c-0.084,0.217-0.126,0.501-0.126,0.852   c0,0.412,0.083,0.727,0.25,0.941c0.167,0.216,0.391,0.323,0.672,0.323c0.439,0,0.749-0.199,0.928-0.599   c0.1-0.225,0.149-0.488,0.149-0.789C119.457,66.409,119.364,66.073,119.178,65.854z"/>
</g>
<g>
	<g>
		<line fill="none" stroke="#000000" stroke-miterlimit="2.414" x1="67.973" y1="49.543" x2="82.135" y2="58.68"/>
		<g>
			<polygon points="85.102,60.594 79.82,59.605 81.914,58.537 82.023,56.189    "/>
		</g>
	</g>
</g>
<g>
	<g>
		<line fill="none" stroke="#000000" stroke-miterlimit="2.414" x1="55.102" y1="49.543" x2="40.939" y2="58.68"/>
		<g>
			<polygon points="37.973,60.594 41.051,56.189 41.161,58.537 43.255,59.605    "/>
		</g>
	</g>
</g>
</svg>